{"glyphs":{"0":{"ha":856,"x_min":49,"x_max":807,"o":"m 807 354 q 757 160 807 243 q 622 32 707 76 q 432 -12 536 -12 q 238 32 325 -12 q 100 160 151 76 q 49 354 49 243 q 102 543 49 464 q 243 663 156 622 q 432 703 331 703 q 623 662 538 703 q 758 542 708 621 q 807 354 807 463 m 244 385 q 271 246 244 315 q 347 131 297 176 q 460 85 396 85 q 569 151 532 85 q 607 317 607 217 q 582 451 607 382 q 510 567 557 521 q 400 614 463 614 q 287 547 329 614 q 244 385 244 481 z "},"1":{"ha":558,"x_min":75,"x_max":482,"o":"m 378 221 q 385 133 378 161 q 413 93 393 104 q 474 81 433 82 q 482 -4 482 49 q 279 0 401 0 q 75 -4 150 0 q 85 81 75 50 q 144 97 125 85 q 172 136 164 108 q 181 219 181 164 l 181 478 q 172 561 181 533 q 144 600 164 589 q 85 614 125 611 q 75 699 75 649 q 279 694 142 694 q 482 699 415 694 q 474 614 482 651 q 414 600 433 611 q 386 561 394 589 q 378 478 378 533 l 378 221 z "},"2":{"ha":722,"x_min":65,"x_max":661,"o":"m 646 242 q 661 43 646 114 q 635 10 653 22 q 594 -3 618 -3 q 331 0 453 0 q 92 -3 197 0 q 65 96 65 33 q 278 286 140 168 q 390 404 361 358 q 419 503 419 450 q 393 586 419 557 q 317 615 367 615 q 243 577 268 615 q 206 436 218 539 q 99 451 144 436 q 103 535 103 485 q 94 636 103 594 q 217 686 150 669 q 374 703 283 703 q 558 660 494 703 q 622 529 622 617 q 605 449 622 485 q 550 378 588 414 q 442 290 513 343 q 300 176 374 239 l 439 176 q 508 181 488 176 q 538 201 529 186 q 551 253 547 217 q 646 242 617 253 z "},"3":{"ha":708,"x_min":51,"x_max":654,"o":"m 274 -237 q 143 -220 200 -237 q 51 -172 86 -203 q 86 -100 57 -129 q 244 -144 146 -144 q 388 -95 329 -144 q 447 39 447 -46 q 409 148 447 107 q 296 189 371 189 q 251 182 276 189 q 229 217 238 196 q 222 258 221 239 q 429 525 368 439 l 296 525 q 231 518 253 525 q 193 490 208 511 q 163 424 178 469 q 74 446 103 424 q 88 558 85 504 q 90 699 90 611 q 356 694 253 694 q 603 699 449 694 q 628 613 631 663 q 397 315 511 469 q 584 249 514 314 q 654 65 654 185 q 609 -92 654 -24 q 478 -199 564 -161 q 274 -237 392 -237 z "},"4":{"ha":842,"x_min":40,"x_max":797,"o":"m 797 140 q 775 72 782 103 q 768 0 768 40 l 640 0 l 640 -203 q 548 -213 596 -203 q 467 -237 500 -224 q 440 -169 440 -215 l 440 0 l 415 0 q 76 -10 242 0 q 40 114 40 57 l 508 703 q 640 692 579 706 l 640 169 l 735 169 q 773 163 758 169 q 797 140 788 156 m 440 169 l 440 486 l 214 168 l 440 169 z "},"5":{"ha":668,"x_min":61,"x_max":610,"o":"m 163 700 q 428 694 290 694 q 479 714 463 694 q 496 767 496 733 q 589 775 522 775 q 579 554 579 699 q 513 521 565 521 q 211 515 268 521 l 188 411 q 510 294 410 372 q 610 78 610 217 q 555 -94 610 -24 q 415 -201 500 -165 q 236 -237 329 -237 q 61 -200 118 -237 q 85 -126 61 -158 q 210 -146 124 -146 q 349 -97 294 -146 q 404 36 404 -47 q 328 174 404 121 q 111 247 253 226 q 76 317 81 275 l 163 700 z "},"6":{"ha":763,"x_min":49,"x_max":714,"o":"m 440 549 q 641 481 568 549 q 714 294 714 414 q 667 124 714 193 q 544 21 619 54 q 385 -12 468 -12 q 135 72 222 -12 q 49 333 49 157 q 135 647 49 525 q 347 825 222 769 q 599 886 472 881 q 617 813 619 864 q 379 707 464 782 q 265 503 294 632 q 440 549 353 549 m 394 81 q 485 129 454 81 q 517 250 517 178 q 469 401 517 350 q 356 451 421 451 q 254 425 307 451 q 250 336 250 383 q 272 192 250 250 q 326 108 293 135 q 394 81 360 81 z "},"7":{"ha":664,"x_min":46,"x_max":621,"o":"m 201 -244 q 168 -219 179 -239 q 157 -158 157 -200 q 194 37 157 -67 q 292 251 231 140 q 456 518 354 361 l 296 518 q 223 510 249 518 q 181 481 197 503 q 153 417 165 460 q 46 438 88 415 q 71 697 68 531 q 326 694 139 694 q 594 697 492 694 q 621 614 621 667 q 518 450 567 535 q 443 307 469 365 q 382 110 399 203 q 365 -158 365 18 q 276 -195 319 -172 q 201 -244 232 -218 z "},"8":{"ha":757,"x_min":65,"x_max":692,"o":"m 511 499 q 647 378 603 440 q 692 231 692 317 q 610 50 692 113 q 376 -12 528 -12 q 147 46 229 -12 q 65 210 65 104 q 107 349 65 288 q 236 457 149 410 q 131 549 168 501 q 94 664 94 597 q 170 825 94 765 q 382 885 246 885 q 586 835 510 885 q 663 696 663 785 q 622 580 663 629 q 511 499 581 531 m 378 808 q 311 783 336 808 q 286 714 286 757 q 316 629 286 663 q 419 554 346 596 l 426 550 q 479 679 479 597 q 451 774 479 739 q 378 808 424 808 m 392 71 q 469 102 442 71 q 497 185 497 133 q 453 302 497 251 q 322 404 408 353 q 271 335 286 374 q 256 238 256 297 q 292 116 256 161 q 392 71 329 71 z "},"9":{"ha":767,"x_min":49,"x_max":722,"o":"m 386 703 q 637 616 551 703 q 722 346 722 529 q 627 36 722 164 q 396 -158 532 -92 q 135 -235 260 -225 q 117 -158 114 -208 q 501 169 429 -67 q 333 128 424 128 q 185 162 250 128 q 85 256 121 196 q 49 393 49 317 q 97 569 49 499 q 221 671 144 639 q 386 703 297 703 m 421 229 q 519 254 472 229 q 524 329 524 290 q 483 542 524 472 q 372 613 443 613 q 283 563 317 613 q 249 438 249 514 q 300 281 249 333 q 421 229 351 229 z "},"\r":{"ha":278,"x_min":0,"x_max":0,"o":""}," ":{"ha":278,"x_min":0,"x_max":0,"o":""},"A":{"ha":988,"x_min":24,"x_max":964,"o":"m 954 81 q 964 -4 964 47 q 774 0 900 0 q 571 -4 633 0 q 582 81 571 51 q 631 97 615 86 q 646 126 646 107 q 628 188 646 144 l 594 267 q 253 257 408 267 l 235 208 q 219 144 219 169 q 286 81 219 89 q 296 -4 296 50 q 149 0 249 0 q 24 -4 65 0 q 36 81 24 47 q 92 115 71 86 q 147 225 114 143 l 438 940 q 476 946 457 944 q 519 947 496 947 l 838 232 q 884 138 867 168 q 917 95 901 107 q 954 81 932 83 m 561 343 l 483 524 q 418 700 440 619 q 357 524 393 617 l 288 343 l 561 343 z "},"Á":{"ha":988,"x_min":24,"x_max":964,"o":"m 954 81 q 964 -4 964 47 q 774 0 900 0 q 571 -4 633 0 q 582 81 571 51 q 631 97 615 86 q 646 126 646 107 q 628 188 646 144 l 594 267 q 253 257 408 267 l 235 208 q 219 144 219 169 q 286 81 219 89 q 296 -4 296 50 q 149 0 249 0 q 24 -4 65 0 q 36 81 24 47 q 92 115 71 86 q 147 225 114 143 l 438 940 q 476 946 457 944 q 519 947 496 947 l 838 232 q 884 138 867 168 q 917 95 901 107 q 954 81 932 83 m 561 343 l 483 524 q 418 700 440 619 q 357 524 393 617 l 288 343 l 561 343 m 503 1019 q 403 1035 443 1019 q 485 1211 457 1136 q 585 1222 536 1222 q 665 1213 632 1222 q 503 1019 581 1119 z "},"Ă":{"ha":988,"x_min":24,"x_max":964,"o":"m 954 81 q 964 -4 964 47 q 774 0 900 0 q 571 -4 633 0 q 582 81 571 51 q 631 97 615 86 q 646 126 646 107 q 628 188 646 144 l 594 267 q 253 257 408 267 l 235 208 q 219 144 219 169 q 286 81 219 89 q 296 -4 296 50 q 149 0 249 0 q 24 -4 65 0 q 36 81 24 47 q 92 115 71 86 q 147 225 114 143 l 438 940 q 476 946 457 944 q 519 947 496 947 l 838 232 q 884 138 867 168 q 917 95 901 107 q 954 81 932 83 m 561 343 l 483 524 q 418 700 440 619 q 357 524 393 617 l 288 343 l 561 343 m 710 1204 q 650 1056 710 1107 q 476 1006 590 1006 q 307 1055 365 1006 q 249 1199 249 1104 q 329 1214 283 1214 q 354 1213 346 1214 q 397 1147 361 1169 q 492 1124 433 1124 q 583 1147 549 1124 q 619 1213 617 1169 q 650 1215 639 1215 q 710 1204 683 1215 z "},"Ắ":{"ha":988,"x_min":24,"x_max":964,"o":"m 954 81 q 964 -4 964 47 q 774 0 900 0 q 571 -4 633 0 q 582 81 571 51 q 631 97 615 86 q 646 126 646 107 q 628 188 646 144 l 594 267 q 253 257 408 267 l 235 208 q 219 144 219 169 q 286 81 219 89 q 296 -4 296 50 q 149 0 249 0 q 24 -4 65 0 q 36 81 24 47 q 92 115 71 86 q 147 225 114 143 l 438 940 q 476 946 457 944 q 519 947 496 947 l 838 232 q 884 138 867 168 q 917 95 901 107 q 954 81 932 83 m 561 343 l 483 524 q 418 700 440 619 q 357 524 393 617 l 288 343 l 561 343 z "},"Ặ":{"ha":988,"x_min":24,"x_max":964,"o":"m 954 81 q 964 -4 964 47 q 774 0 900 0 q 571 -4 633 0 q 582 81 571 51 q 631 97 615 86 q 646 126 646 107 q 628 188 646 144 l 594 267 q 253 257 408 267 l 235 208 q 219 144 219 169 q 286 81 219 89 q 296 -4 296 50 q 149 0 249 0 q 24 -4 65 0 q 36 81 24 47 q 92 115 71 86 q 147 225 114 143 l 438 940 q 476 946 457 944 q 519 947 496 947 l 838 232 q 884 138 867 168 q 917 95 901 107 q 954 81 932 83 m 561 343 l 483 524 q 418 700 440 619 q 357 524 393 617 l 288 343 l 561 343 m 428 -311 q 347 -283 378 -311 q 315 -214 315 -256 q 349 -137 315 -165 q 433 -108 382 -108 q 520 -136 489 -108 q 551 -212 551 -164 q 517 -283 551 -256 q 428 -311 483 -311 m 710 1204 q 650 1056 710 1107 q 476 1006 590 1006 q 307 1055 365 1006 q 249 1199 249 1104 q 329 1214 283 1214 q 354 1213 346 1214 q 397 1147 361 1169 q 492 1124 433 1124 q 583 1147 549 1124 q 619 1213 617 1169 q 650 1215 639 1215 q 710 1204 683 1215 z "},"Ằ":{"ha":988,"x_min":24,"x_max":964,"o":"m 954 81 q 964 -4 964 47 q 774 0 900 0 q 571 -4 633 0 q 582 81 571 51 q 631 97 615 86 q 646 126 646 107 q 628 188 646 144 l 594 267 q 253 257 408 267 l 235 208 q 219 144 219 169 q 286 81 219 89 q 296 -4 296 50 q 149 0 249 0 q 24 -4 65 0 q 36 81 24 47 q 92 115 71 86 q 147 225 114 143 l 438 940 q 476 946 457 944 q 519 947 496 947 l 838 232 q 884 138 867 168 q 917 95 901 107 q 954 81 932 83 m 561 343 l 483 524 q 418 700 440 619 q 357 524 393 617 l 288 343 l 561 343 z "},"Ẳ":{"ha":988,"x_min":24,"x_max":964,"o":"m 954 81 q 964 -4 964 47 q 774 0 900 0 q 571 -4 633 0 q 582 81 571 51 q 631 97 615 86 q 646 126 646 107 q 628 188 646 144 l 594 267 q 253 257 408 267 l 235 208 q 219 144 219 169 q 286 81 219 89 q 296 -4 296 50 q 149 0 249 0 q 24 -4 65 0 q 36 81 24 47 q 92 115 71 86 q 147 225 114 143 l 438 940 q 476 946 457 944 q 519 947 496 947 l 838 232 q 884 138 867 168 q 917 95 901 107 q 954 81 932 83 m 561 343 l 483 524 q 418 700 440 619 q 357 524 393 617 l 288 343 l 561 343 z "},"Ẵ":{"ha":988,"x_min":24,"x_max":964,"o":"m 954 81 q 964 -4 964 47 q 774 0 900 0 q 571 -4 633 0 q 582 81 571 51 q 631 97 615 86 q 646 126 646 107 q 628 188 646 144 l 594 267 q 253 257 408 267 l 235 208 q 219 144 219 169 q 286 81 219 89 q 296 -4 296 50 q 149 0 249 0 q 24 -4 65 0 q 36 81 24 47 q 92 115 71 86 q 147 225 114 143 l 438 940 q 476 946 457 944 q 519 947 496 947 l 838 232 q 884 138 867 168 q 917 95 901 107 q 954 81 932 83 m 561 343 l 483 524 q 418 700 440 619 q 357 524 393 617 l 288 343 l 561 343 m 710 1204 q 650 1056 710 1107 q 476 1006 590 1006 q 307 1055 365 1006 q 249 1199 249 1104 q 329 1214 283 1214 q 354 1213 346 1214 q 397 1147 361 1169 q 492 1124 433 1124 q 583 1147 549 1124 q 619 1213 617 1169 q 650 1215 639 1215 q 710 1204 683 1215 m 551 1257 q 499 1265 521 1257 q 444 1289 478 1272 q 399 1310 417 1303 q 360 1317 382 1317 q 257 1261 306 1317 q 221 1336 222 1292 q 306 1410 258 1388 q 400 1433 353 1433 q 456 1425 431 1433 q 510 1403 481 1417 q 556 1383 540 1389 q 592 1378 572 1378 q 674 1424 638 1378 q 738 1390 715 1417 q 656 1291 703 1325 q 551 1257 608 1257 z "},"Ǎ":{"ha":988,"x_min":24,"x_max":964,"o":"m 954 81 q 964 -4 964 47 q 774 0 900 0 q 571 -4 633 0 q 582 81 571 51 q 631 97 615 86 q 646 126 646 107 q 628 188 646 144 l 594 267 q 253 257 408 267 l 235 208 q 219 144 219 169 q 286 81 219 89 q 296 -4 296 50 q 149 0 249 0 q 24 -4 65 0 q 36 81 24 47 q 92 115 71 86 q 147 225 114 143 l 438 940 q 476 946 457 944 q 519 947 496 947 l 838 232 q 884 138 867 168 q 917 95 901 107 q 954 81 932 83 m 561 343 l 483 524 q 418 700 440 619 q 357 524 393 617 l 288 343 l 561 343 m 417 1011 q 226 1175 347 1086 q 317 1231 263 1219 q 482 1144 403 1179 q 570 1188 521 1163 q 649 1231 619 1213 q 687 1208 671 1226 q 708 1169 703 1190 q 506 1022 586 1094 q 417 1011 474 1011 z "},"Â":{"ha":988,"x_min":24,"x_max":964,"o":"m 954 81 q 964 -4 964 47 q 774 0 900 0 q 571 -4 633 0 q 582 81 571 51 q 631 97 615 86 q 646 126 646 107 q 628 188 646 144 l 594 267 q 253 257 408 267 l 235 208 q 219 144 219 169 q 286 81 219 89 q 296 -4 296 50 q 149 0 249 0 q 24 -4 65 0 q 36 81 24 47 q 92 115 71 86 q 147 225 114 143 l 438 940 q 476 946 457 944 q 519 947 496 947 l 838 232 q 884 138 867 168 q 917 95 901 107 q 954 81 932 83 m 561 343 l 483 524 q 418 700 440 619 q 357 524 393 617 l 288 343 l 561 343 m 297 1011 q 259 1033 275 1015 q 238 1072 243 1051 q 440 1221 363 1149 q 528 1231 472 1231 q 719 1067 600 1154 q 628 1011 683 1022 q 464 1099 539 1065 q 297 1011 335 1036 z "},"Ấ":{"ha":988,"x_min":24,"x_max":964,"o":"m 954 81 q 964 -4 964 47 q 774 0 900 0 q 571 -4 633 0 q 582 81 571 51 q 631 97 615 86 q 646 126 646 107 q 628 188 646 144 l 594 267 q 253 257 408 267 l 235 208 q 219 144 219 169 q 286 81 219 89 q 296 -4 296 50 q 149 0 249 0 q 24 -4 65 0 q 36 81 24 47 q 92 115 71 86 q 147 225 114 143 l 438 940 q 476 946 457 944 q 519 947 496 947 l 838 232 q 884 138 867 168 q 917 95 901 107 q 954 81 932 83 m 561 343 l 483 524 q 418 700 440 619 q 357 524 393 617 l 288 343 l 561 343 m 722 1193 q 631 1208 672 1193 q 704 1369 681 1301 q 797 1381 753 1381 q 871 1371 842 1381 q 722 1193 788 1278 m 297 1011 q 259 1033 275 1015 q 238 1072 243 1051 q 440 1221 363 1149 q 528 1231 472 1231 q 719 1067 600 1154 q 628 1011 683 1022 q 464 1099 539 1065 q 297 1011 335 1036 z "},"Ậ":{"ha":988,"x_min":24,"x_max":964,"o":"m 954 81 q 964 -4 964 47 q 774 0 900 0 q 571 -4 633 0 q 582 81 571 51 q 631 97 615 86 q 646 126 646 107 q 628 188 646 144 l 594 267 q 253 257 408 267 l 235 208 q 219 144 219 169 q 286 81 219 89 q 296 -4 296 50 q 149 0 249 0 q 24 -4 65 0 q 36 81 24 47 q 92 115 71 86 q 147 225 114 143 l 438 940 q 476 946 457 944 q 519 947 496 947 l 838 232 q 884 138 867 168 q 917 95 901 107 q 954 81 932 83 m 561 343 l 483 524 q 418 700 440 619 q 357 524 393 617 l 288 343 l 561 343 m 428 -311 q 347 -283 378 -311 q 315 -214 315 -256 q 349 -137 315 -165 q 433 -108 382 -108 q 520 -136 489 -108 q 551 -212 551 -164 q 517 -283 551 -256 q 428 -311 483 -311 m 297 1011 q 259 1033 275 1015 q 238 1072 243 1051 q 440 1221 363 1149 q 528 1231 472 1231 q 719 1067 600 1154 q 628 1011 683 1022 q 464 1099 539 1065 q 297 1011 335 1036 z "},"Ầ":{"ha":988,"x_min":24,"x_max":964,"o":"m 954 81 q 964 -4 964 47 q 774 0 900 0 q 571 -4 633 0 q 582 81 571 51 q 631 97 615 86 q 646 126 646 107 q 628 188 646 144 l 594 267 q 253 257 408 267 l 235 208 q 219 144 219 169 q 286 81 219 89 q 296 -4 296 50 q 149 0 249 0 q 24 -4 65 0 q 36 81 24 47 q 92 115 71 86 q 147 225 114 143 l 438 940 q 476 946 457 944 q 519 947 496 947 l 838 232 q 884 138 867 168 q 917 95 901 107 q 954 81 932 83 m 561 343 l 483 524 q 418 700 440 619 q 357 524 393 617 l 288 343 l 561 343 z "},"Ẩ":{"ha":988,"x_min":24,"x_max":964,"o":"m 954 81 q 964 -4 964 47 q 774 0 900 0 q 571 -4 633 0 q 582 81 571 51 q 631 97 615 86 q 646 126 646 107 q 628 188 646 144 l 594 267 q 253 257 408 267 l 235 208 q 219 144 219 169 q 286 81 219 89 q 296 -4 296 50 q 149 0 249 0 q 24 -4 65 0 q 36 81 24 47 q 92 115 71 86 q 147 225 114 143 l 438 940 q 476 946 457 944 q 519 947 496 947 l 838 232 q 884 138 867 168 q 917 95 901 107 q 954 81 932 83 m 561 343 l 483 524 q 418 700 440 619 q 357 524 393 617 l 288 343 l 561 343 z "},"Ẫ":{"ha":988,"x_min":24,"x_max":964,"o":"m 954 81 q 964 -4 964 47 q 774 0 900 0 q 571 -4 633 0 q 582 81 571 51 q 631 97 615 86 q 646 126 646 107 q 628 188 646 144 l 594 267 q 253 257 408 267 l 235 208 q 219 144 219 169 q 286 81 219 89 q 296 -4 296 50 q 149 0 249 0 q 24 -4 65 0 q 36 81 24 47 q 92 115 71 86 q 147 225 114 143 l 438 940 q 476 946 457 944 q 519 947 496 947 l 838 232 q 884 138 867 168 q 917 95 901 107 q 954 81 932 83 m 561 343 l 483 524 q 418 700 440 619 q 357 524 393 617 l 288 343 l 561 343 z "},"Ȁ":{"ha":988,"x_min":24,"x_max":964,"o":"m 954 81 q 964 -4 964 47 q 774 0 900 0 q 571 -4 633 0 q 582 81 571 51 q 631 97 615 86 q 646 126 646 107 q 628 188 646 144 l 594 267 q 253 257 408 267 l 235 208 q 219 144 219 169 q 286 81 219 89 q 296 -4 296 50 q 149 0 249 0 q 24 -4 65 0 q 36 81 24 47 q 92 115 71 86 q 147 225 114 143 l 438 940 q 476 946 457 944 q 519 947 496 947 l 838 232 q 884 138 867 168 q 917 95 901 107 q 954 81 932 83 m 561 343 l 483 524 q 418 700 440 619 q 357 524 393 617 l 288 343 l 561 343 m 328 997 q 174 1171 240 1106 q 248 1192 204 1186 q 338 1197 292 1199 q 428 1014 381 1092 q 328 997 385 997 m 572 997 q 425 1174 499 1096 q 497 1192 454 1186 q 582 1197 540 1199 q 672 1014 625 1092 q 572 997 629 997 z "},"Ä":{"ha":988,"x_min":24,"x_max":964,"o":"m 954 81 q 964 -4 964 47 q 774 0 900 0 q 571 -4 633 0 q 582 81 571 51 q 631 97 615 86 q 646 126 646 107 q 628 188 646 144 l 594 267 q 253 257 408 267 l 235 208 q 219 144 219 169 q 286 81 219 89 q 296 -4 296 50 q 149 0 249 0 q 24 -4 65 0 q 36 81 24 47 q 92 115 71 86 q 147 225 114 143 l 438 940 q 476 946 457 944 q 519 947 496 947 l 838 232 q 884 138 867 168 q 917 95 901 107 q 954 81 932 83 m 561 343 l 483 524 q 418 700 440 619 q 357 524 393 617 l 288 343 l 561 343 z "},"Ạ":{"ha":988,"x_min":24,"x_max":964,"o":"m 954 81 q 964 -4 964 47 q 774 0 900 0 q 571 -4 633 0 q 582 81 571 51 q 631 97 615 86 q 646 126 646 107 q 628 188 646 144 l 594 267 q 253 257 408 267 l 235 208 q 219 144 219 169 q 286 81 219 89 q 296 -4 296 50 q 149 0 249 0 q 24 -4 65 0 q 36 81 24 47 q 92 115 71 86 q 147 225 114 143 l 438 940 q 476 946 457 944 q 519 947 496 947 l 838 232 q 884 138 867 168 q 917 95 901 107 q 954 81 932 83 m 561 343 l 483 524 q 418 700 440 619 q 357 524 393 617 l 288 343 l 561 343 m 428 -311 q 347 -283 378 -311 q 315 -214 315 -256 q 349 -137 315 -165 q 433 -108 382 -108 q 520 -136 489 -108 q 551 -212 551 -164 q 517 -283 551 -256 q 428 -311 483 -311 z "},"À":{"ha":988,"x_min":24,"x_max":964,"o":"m 954 81 q 964 -4 964 47 q 774 0 900 0 q 571 -4 633 0 q 582 81 571 51 q 631 97 615 86 q 646 126 646 107 q 628 188 646 144 l 594 267 q 253 257 408 267 l 235 208 q 219 144 219 169 q 286 81 219 89 q 296 -4 296 50 q 149 0 249 0 q 24 -4 65 0 q 36 81 24 47 q 92 115 71 86 q 147 225 114 143 l 438 940 q 476 946 457 944 q 519 947 496 947 l 838 232 q 884 138 867 168 q 917 95 901 107 q 954 81 932 83 m 561 343 l 483 524 q 418 700 440 619 q 357 524 393 617 l 288 343 l 561 343 m 449 1019 q 300 1192 371 1124 q 376 1214 331 1207 q 464 1218 421 1221 q 554 1035 507 1113 q 449 1019 515 1019 z "},"Ả":{"ha":988,"x_min":24,"x_max":964,"o":"m 954 81 q 964 -4 964 47 q 774 0 900 0 q 571 -4 633 0 q 582 81 571 51 q 631 97 615 86 q 646 126 646 107 q 628 188 646 144 l 594 267 q 253 257 408 267 l 235 208 q 219 144 219 169 q 286 81 219 89 q 296 -4 296 50 q 149 0 249 0 q 24 -4 65 0 q 36 81 24 47 q 92 115 71 86 q 147 225 114 143 l 438 940 q 476 946 457 944 q 519 947 496 947 l 838 232 q 884 138 867 168 q 917 95 901 107 q 954 81 932 83 m 561 343 l 483 524 q 418 700 440 619 q 357 524 393 617 l 288 343 l 561 343 m 444 1003 q 432 1043 432 1022 q 443 1080 432 1065 q 475 1110 454 1094 q 502 1135 494 1125 q 510 1160 510 1144 q 475 1190 510 1190 q 437 1171 451 1190 q 415 1100 422 1151 q 335 1117 368 1100 q 339 1167 339 1144 q 335 1206 339 1188 q 488 1249 399 1249 q 588 1226 553 1249 q 622 1163 622 1204 q 606 1112 622 1131 q 560 1072 590 1093 q 531 1051 540 1060 q 522 1031 522 1042 q 526 1010 522 1021 q 469 1001 501 1001 q 444 1003 453 1001 z "},"Ȃ":{"ha":988,"x_min":24,"x_max":964,"o":"m 954 81 q 964 -4 964 47 q 774 0 900 0 q 571 -4 633 0 q 582 81 571 51 q 631 97 615 86 q 646 126 646 107 q 628 188 646 144 l 594 267 q 253 257 408 267 l 235 208 q 219 144 219 169 q 286 81 219 89 q 296 -4 296 50 q 149 0 249 0 q 24 -4 65 0 q 36 81 24 47 q 92 115 71 86 q 147 225 114 143 l 438 940 q 476 946 457 944 q 519 947 496 947 l 838 232 q 884 138 867 168 q 917 95 901 107 q 954 81 932 83 m 561 343 l 483 524 q 418 700 440 619 q 357 524 393 617 l 288 343 l 561 343 m 249 1017 q 308 1165 249 1114 q 482 1215 368 1215 q 651 1166 593 1215 q 710 1022 710 1117 q 629 1007 675 1007 q 604 1008 613 1007 q 561 1074 597 1051 q 467 1097 525 1097 q 376 1074 410 1097 q 339 1008 342 1051 q 308 1006 319 1006 q 249 1017 275 1006 z "},"Ā":{"ha":988,"x_min":24,"x_max":964,"o":"m 954 81 q 964 -4 964 47 q 774 0 900 0 q 571 -4 633 0 q 582 81 571 51 q 631 97 615 86 q 646 126 646 107 q 628 188 646 144 l 594 267 q 253 257 408 267 l 235 208 q 219 144 219 169 q 286 81 219 89 q 296 -4 296 50 q 149 0 249 0 q 24 -4 65 0 q 36 81 24 47 q 92 115 71 86 q 147 225 114 143 l 438 940 q 476 946 457 944 q 519 947 496 947 l 838 232 q 884 138 867 168 q 917 95 901 107 q 954 81 932 83 m 561 343 l 483 524 q 418 700 440 619 q 357 524 393 617 l 288 343 l 561 343 m 742 1135 q 729 1060 742 1093 q 215 1047 476 1060 q 228 1135 215 1104 l 742 1135 z "},"Ą":{"ha":988,"x_min":24,"x_max":964,"o":"m 810 -200 q 863 -193 842 -200 q 878 -233 872 -206 q 881 -281 883 -260 q 733 -344 792 -304 q 704 -346 722 -346 q 633 -331 669 -346 q 569 -284 596 -317 q 543 -200 543 -251 q 721 0 543 -76 l 571 -4 q 582 81 571 51 q 631 97 615 86 q 646 126 646 107 q 628 188 646 144 l 594 267 q 253 257 408 267 l 235 208 q 219 144 219 169 q 286 81 219 89 q 296 -4 296 50 q 149 0 249 0 q 24 -4 65 0 q 36 81 24 47 q 92 115 71 86 q 147 225 114 143 l 438 940 q 476 946 457 944 q 519 947 496 947 l 838 232 q 884 138 867 168 q 917 95 901 107 q 954 81 932 83 q 964 -4 964 47 q 851 -1 914 -1 q 748 -59 782 -24 q 714 -132 714 -94 q 739 -182 714 -164 q 810 -200 764 -200 m 561 343 l 483 524 q 418 700 440 619 q 357 524 393 617 l 288 343 l 561 343 z "},"Å":{"ha":988,"x_min":24,"x_max":964,"o":"m 954 81 q 964 -4 964 47 q 774 0 900 0 q 571 -4 633 0 q 582 81 571 51 q 631 97 615 86 q 646 126 646 107 q 628 188 646 144 l 594 267 q 253 257 408 267 l 235 208 q 219 144 219 169 q 286 81 219 89 q 296 -4 296 50 q 149 0 249 0 q 24 -4 65 0 q 36 81 24 47 q 92 115 71 86 q 147 225 114 143 l 438 940 q 476 946 457 944 q 519 947 496 947 l 838 232 q 884 138 867 168 q 917 95 901 107 q 954 81 932 83 m 561 343 l 483 524 q 418 700 440 619 q 357 524 393 617 l 288 343 l 561 343 m 472 997 q 364 1028 407 997 q 321 1111 321 1058 q 367 1199 321 1165 q 485 1232 413 1232 q 594 1203 551 1232 q 638 1119 638 1175 q 592 1031 638 1065 q 472 997 546 997 m 483 1051 q 520 1067 506 1051 q 535 1110 535 1083 q 519 1160 535 1138 q 474 1183 503 1183 q 438 1166 451 1183 q 424 1118 424 1149 q 440 1069 424 1088 q 483 1051 456 1051 z "},"Ǻ":{"ha":988,"x_min":24,"x_max":964,"o":"m 954 81 q 964 -4 964 47 q 774 0 900 0 q 571 -4 633 0 q 582 81 571 51 q 631 97 615 86 q 646 126 646 107 q 628 188 646 144 l 594 267 q 253 257 408 267 l 235 208 q 219 144 219 169 q 286 81 219 89 q 296 -4 296 50 q 149 0 249 0 q 24 -4 65 0 q 36 81 24 47 q 92 115 71 86 q 147 225 114 143 l 438 940 q 476 946 457 944 q 519 947 496 947 l 838 232 q 884 138 867 168 q 917 95 901 107 q 954 81 932 83 m 561 343 l 483 524 q 418 700 440 619 q 357 524 393 617 l 288 343 l 561 343 m 472 997 q 364 1028 407 997 q 321 1111 321 1058 q 367 1199 321 1165 q 485 1232 413 1232 q 594 1203 551 1232 q 638 1119 638 1175 q 592 1031 638 1065 q 472 997 546 997 m 483 1051 q 520 1067 506 1051 q 535 1110 535 1083 q 519 1160 535 1138 q 474 1183 503 1183 q 438 1166 451 1183 q 424 1118 424 1149 q 440 1069 424 1088 q 483 1051 456 1051 m 503 1313 q 403 1328 443 1313 q 485 1504 457 1429 q 585 1515 536 1515 q 665 1506 632 1515 q 503 1313 581 1413 z "},"Ã":{"ha":988,"x_min":24,"x_max":964,"o":"m 954 81 q 964 -4 964 47 q 774 0 900 0 q 571 -4 633 0 q 582 81 571 51 q 631 97 615 86 q 646 126 646 107 q 628 188 646 144 l 594 267 q 253 257 408 267 l 235 208 q 219 144 219 169 q 286 81 219 89 q 296 -4 296 50 q 149 0 249 0 q 24 -4 65 0 q 36 81 24 47 q 92 115 71 86 q 147 225 114 143 l 438 940 q 476 946 457 944 q 519 947 496 947 l 838 232 q 884 138 867 168 q 917 95 901 107 q 954 81 932 83 m 561 343 l 483 524 q 418 700 440 619 q 357 524 393 617 l 288 343 l 561 343 m 551 1029 q 499 1037 521 1029 q 444 1061 478 1044 q 399 1082 417 1075 q 360 1089 382 1089 q 257 1033 306 1089 q 221 1108 222 1064 q 306 1183 258 1160 q 400 1206 353 1206 q 456 1197 431 1206 q 510 1175 481 1189 q 556 1156 540 1161 q 592 1150 572 1150 q 674 1196 638 1150 q 738 1163 715 1189 q 656 1063 703 1097 q 551 1029 608 1029 z "},"Æ":{"ha":1331,"x_min":24,"x_max":1293,"o":"m 1293 226 q 1250 -3 1263 132 q 878 0 1086 0 q 538 -4 636 0 q 549 81 538 51 q 606 97 588 85 q 631 138 624 108 q 639 228 639 167 l 639 403 q 383 390 474 399 q 292 226 308 258 q 261 136 261 169 q 277 98 261 111 q 325 79 293 85 q 336 -4 336 51 q 182 0 272 0 q 24 -4 65 0 q 36 81 24 50 q 107 110 79 86 q 179 211 135 135 l 489 746 q 513 810 513 786 q 494 842 513 831 q 438 857 476 853 q 428 895 432 869 q 425 942 425 921 q 681 939 569 939 l 803 939 q 1213 943 1083 939 q 1222 821 1214 886 q 1242 710 1231 756 q 1198 693 1229 699 q 1139 688 1167 688 q 1083 814 1128 769 q 929 858 1039 858 l 846 858 l 846 482 l 888 482 q 983 505 958 482 q 1007 590 1007 528 q 1103 604 1056 604 q 1100 444 1100 532 q 1103 281 1100 353 q 1047 283 1069 281 q 1010 292 1025 285 q 997 360 1007 336 q 960 394 986 383 q 883 406 935 406 l 846 406 l 846 231 q 856 138 846 169 q 888 96 867 107 q 949 85 910 85 l 979 85 q 1081 102 1044 85 q 1141 157 1118 119 q 1190 267 1164 194 q 1293 226 1267 251 m 639 482 l 639 750 q 644 847 639 803 q 596 758 629 817 q 436 482 553 683 l 639 482 z "},"Ǽ":{"ha":1331,"x_min":24,"x_max":1293,"o":"m 1293 226 q 1250 -3 1263 132 q 878 0 1086 0 q 538 -4 636 0 q 549 81 538 51 q 606 97 588 85 q 631 138 624 108 q 639 228 639 167 l 639 403 q 383 390 474 399 q 292 226 308 258 q 261 136 261 169 q 277 98 261 111 q 325 79 293 85 q 336 -4 336 51 q 182 0 272 0 q 24 -4 65 0 q 36 81 24 50 q 107 110 79 86 q 179 211 135 135 l 489 746 q 513 810 513 786 q 494 842 513 831 q 438 857 476 853 q 428 895 432 869 q 425 942 425 921 q 681 939 569 939 l 803 939 q 1213 943 1083 939 q 1222 821 1214 886 q 1242 710 1231 756 q 1198 693 1229 699 q 1139 688 1167 688 q 1083 814 1128 769 q 929 858 1039 858 l 846 858 l 846 482 l 888 482 q 983 505 958 482 q 1007 590 1007 528 q 1103 604 1056 604 q 1100 444 1100 532 q 1103 281 1100 353 q 1047 283 1069 281 q 1010 292 1025 285 q 997 360 1007 336 q 960 394 986 383 q 883 406 935 406 l 846 406 l 846 231 q 856 138 846 169 q 888 96 867 107 q 949 85 910 85 l 979 85 q 1081 102 1044 85 q 1141 157 1118 119 q 1190 267 1164 194 q 1293 226 1267 251 m 639 482 l 639 750 q 644 847 639 803 q 596 758 629 817 q 436 482 553 683 l 639 482 m 772 1019 q 672 1035 713 1019 q 754 1211 726 1136 q 854 1222 806 1222 q 935 1213 901 1222 q 772 1019 850 1119 z "},"B":{"ha":931,"x_min":58,"x_max":872,"o":"m 601 513 q 872 271 872 497 q 778 73 872 146 q 483 0 683 0 q 58 -4 221 0 q 68 81 58 51 q 127 95 107 83 q 155 137 147 107 q 163 228 163 167 l 163 721 q 155 804 163 776 q 128 843 147 832 q 68 858 108 854 q 60 943 60 883 q 207 939 114 939 q 335 940 289 939 l 468 942 q 729 892 646 942 q 813 732 813 843 q 756 586 813 646 q 601 513 700 526 m 600 693 q 551 815 600 774 q 431 857 501 857 q 369 847 399 857 l 369 528 l 417 528 q 556 572 511 528 q 600 693 600 615 m 482 82 q 599 128 557 82 q 642 254 642 174 q 577 402 642 360 q 403 444 513 444 l 369 444 l 369 221 q 381 133 369 163 q 417 92 393 103 q 482 82 440 82 z "},"C":{"ha":893,"x_min":49,"x_max":846,"o":"m 510 -12 q 270 49 375 -12 q 107 222 165 111 q 49 475 49 332 q 114 734 49 626 q 287 897 179 842 q 519 951 394 951 q 826 879 675 951 q 811 664 811 801 q 704 647 779 647 q 657 819 701 769 q 528 868 613 868 q 331 766 394 868 q 267 511 267 664 q 302 298 267 392 q 408 150 338 204 q 579 96 479 96 q 697 114 636 96 q 814 165 757 132 q 834 139 825 156 q 846 106 843 122 q 694 18 775 49 q 510 -12 613 -12 z "},"Ć":{"ha":893,"x_min":49,"x_max":846,"o":"m 510 -12 q 270 49 375 -12 q 107 222 165 111 q 49 475 49 332 q 114 734 49 626 q 287 897 179 842 q 519 951 394 951 q 826 879 675 951 q 811 664 811 801 q 704 647 779 647 q 657 819 701 769 q 528 868 613 868 q 331 766 394 868 q 267 511 267 664 q 302 298 267 392 q 408 150 338 204 q 579 96 479 96 q 697 114 636 96 q 814 165 757 132 q 834 139 825 156 q 846 106 843 122 q 694 18 775 49 q 510 -12 613 -12 m 546 1019 q 446 1035 486 1019 q 528 1211 500 1136 q 628 1222 579 1222 q 708 1213 675 1222 q 546 1019 624 1119 z "},"Č":{"ha":893,"x_min":49,"x_max":846,"o":"m 510 -12 q 270 49 375 -12 q 107 222 165 111 q 49 475 49 332 q 114 734 49 626 q 287 897 179 842 q 519 951 394 951 q 826 879 675 951 q 811 664 811 801 q 704 647 779 647 q 657 819 701 769 q 528 868 613 868 q 331 766 394 868 q 267 511 267 664 q 302 298 267 392 q 408 150 338 204 q 579 96 479 96 q 697 114 636 96 q 814 165 757 132 q 834 139 825 156 q 846 106 843 122 q 694 18 775 49 q 510 -12 613 -12 m 460 1011 q 269 1175 390 1086 q 360 1231 306 1219 q 525 1144 446 1179 q 613 1188 564 1163 q 692 1231 663 1213 q 730 1208 714 1226 q 751 1169 746 1190 q 549 1022 629 1094 q 460 1011 517 1011 z "},"Ç":{"ha":893,"x_min":49,"x_max":846,"o":"m 503 -64 q 593 -109 560 -74 q 626 -193 626 -144 q 565 -298 626 -260 q 413 -336 504 -336 q 401 -278 401 -314 q 479 -260 447 -278 q 511 -210 511 -242 q 487 -165 511 -182 q 426 -147 463 -147 q 401 -87 401 -122 l 457 -10 q 243 66 336 1 q 99 236 150 131 q 49 475 49 342 q 114 734 49 626 q 287 897 179 842 q 519 951 394 951 q 826 879 675 951 q 811 664 811 801 q 704 647 779 647 q 657 819 701 769 q 528 868 613 868 q 331 766 394 868 q 267 511 267 664 q 302 298 267 392 q 408 150 338 204 q 579 96 479 96 q 697 114 636 96 q 814 165 757 132 q 834 139 825 156 q 846 106 843 122 q 543 -11 711 -4 l 503 -64 z "},"Ḉ":{"ha":893,"x_min":49,"x_max":846,"o":"m 708 1213 q 547 1019 621 1114 q 447 1035 488 1019 q 528 1211 497 1128 q 628 1222 581 1222 q 708 1213 678 1222 m 503 -64 q 593 -109 560 -74 q 626 -193 626 -144 q 565 -298 626 -260 q 413 -336 504 -336 q 401 -278 401 -314 q 479 -260 447 -278 q 511 -210 511 -242 q 487 -165 511 -182 q 426 -147 463 -147 q 401 -87 401 -122 l 457 -10 q 243 66 336 1 q 99 236 150 131 q 49 475 49 342 q 114 734 49 626 q 287 897 179 842 q 519 951 394 951 q 826 879 675 951 q 811 664 811 801 q 704 647 779 647 q 657 819 701 769 q 528 868 613 868 q 331 766 394 868 q 267 511 267 664 q 302 298 267 392 q 408 150 338 204 q 579 96 479 96 q 697 114 636 96 q 814 165 757 132 q 834 139 825 156 q 846 106 843 122 q 543 -11 711 -4 l 503 -64 z "},"Ĉ":{"ha":893,"x_min":49,"x_max":846,"o":"m 510 -12 q 270 49 375 -12 q 107 222 165 111 q 49 475 49 332 q 114 734 49 626 q 287 897 179 842 q 519 951 394 951 q 826 879 675 951 q 811 664 811 801 q 704 647 779 647 q 657 819 701 769 q 528 868 613 868 q 331 766 394 868 q 267 511 267 664 q 302 298 267 392 q 408 150 338 204 q 579 96 479 96 q 697 114 636 96 q 814 165 757 132 q 834 139 825 156 q 846 106 843 122 q 694 18 775 49 q 510 -12 613 -12 m 339 1011 q 301 1033 317 1015 q 279 1072 285 1051 q 482 1221 404 1149 q 569 1231 514 1231 q 761 1067 642 1154 q 669 1011 725 1022 q 506 1099 581 1065 q 339 1011 376 1036 z "},"Ċ":{"ha":893,"x_min":49,"x_max":846,"o":"m 510 -12 q 270 49 375 -12 q 107 222 165 111 q 49 475 49 332 q 114 734 49 626 q 287 897 179 842 q 519 951 394 951 q 826 879 675 951 q 811 664 811 801 q 704 647 779 647 q 657 819 701 769 q 528 868 613 868 q 331 766 394 868 q 267 511 267 664 q 302 298 267 392 q 408 150 338 204 q 579 96 479 96 q 697 114 636 96 q 814 165 757 132 q 834 139 825 156 q 846 106 843 122 q 694 18 775 49 q 510 -12 613 -12 z "},"D":{"ha":1021,"x_min":58,"x_max":972,"o":"m 458 942 q 831 847 690 942 q 972 493 972 751 q 882 178 972 288 q 677 35 792 69 q 456 0 563 0 q 58 -4 258 0 q 68 81 58 51 q 127 95 107 83 q 155 137 147 107 q 163 228 163 167 l 163 721 q 155 804 163 776 q 128 843 147 832 q 68 858 108 854 q 60 943 60 883 q 304 939 140 939 q 372 940 349 939 l 458 942 m 486 85 q 681 167 604 85 q 757 469 757 249 q 670 770 757 678 q 449 863 583 863 q 369 849 404 863 l 369 231 q 379 140 369 171 q 414 97 389 110 q 486 85 439 85 z "},"Ǳ":{"ha":1864,"x_min":58,"x_max":1801,"o":"m 458 942 q 831 847 690 942 q 972 493 972 751 q 882 178 972 288 q 677 35 792 69 q 456 0 563 0 q 58 -4 258 0 q 68 81 58 51 q 127 95 107 83 q 155 137 147 107 q 163 228 163 167 l 163 721 q 155 804 163 776 q 128 843 147 832 q 68 858 108 854 q 60 943 60 883 q 304 939 140 939 q 372 940 349 939 l 458 942 m 486 85 q 681 167 604 85 q 757 469 757 249 q 670 770 757 678 q 449 863 583 863 q 369 849 404 863 l 369 231 q 379 140 369 171 q 414 97 389 110 q 486 85 439 85 m 1688 265 q 1801 233 1754 261 q 1780 117 1789 185 q 1769 -4 1771 49 q 1408 0 1647 0 q 1101 -4 1208 0 q 1081 68 1081 28 q 1129 151 1114 124 q 1360 545 1275 397 q 1532 858 1444 693 l 1400 858 q 1314 843 1346 858 q 1260 788 1282 828 q 1222 668 1239 747 q 1107 685 1139 668 q 1130 808 1122 738 q 1138 942 1138 878 q 1469 939 1201 939 q 1758 942 1667 939 q 1781 869 1779 910 q 1335 82 1569 468 l 1464 82 q 1580 97 1539 82 q 1645 149 1621 111 q 1688 265 1669 188 z "},"Ǆ":{"ha":1864,"x_min":58,"x_max":1801,"o":"m 458 942 q 831 847 690 942 q 972 493 972 751 q 882 178 972 288 q 677 35 792 69 q 456 0 563 0 q 58 -4 258 0 q 68 81 58 51 q 127 95 107 83 q 155 137 147 107 q 163 228 163 167 l 163 721 q 155 804 163 776 q 128 843 147 832 q 68 858 108 854 q 60 943 60 883 q 304 939 140 939 q 372 940 349 939 l 458 942 m 486 85 q 681 167 604 85 q 757 469 757 249 q 670 770 757 678 q 449 863 583 863 q 369 849 404 863 l 369 231 q 379 140 369 171 q 414 97 389 110 q 486 85 439 85 m 1688 265 q 1801 233 1754 261 q 1780 117 1789 185 q 1769 -4 1771 49 q 1408 0 1647 0 q 1101 -4 1208 0 q 1081 68 1081 28 q 1129 151 1114 124 q 1360 545 1275 397 q 1532 858 1444 693 l 1400 858 q 1314 843 1346 858 q 1260 788 1282 828 q 1222 668 1239 747 q 1107 685 1139 668 q 1130 808 1122 738 q 1138 942 1138 878 q 1469 939 1201 939 q 1758 942 1667 939 q 1781 869 1779 910 q 1335 82 1569 468 l 1464 82 q 1580 97 1539 82 q 1645 149 1621 111 q 1688 265 1669 188 m 1396 1011 q 1206 1175 1326 1086 q 1296 1231 1242 1219 q 1461 1144 1382 1179 q 1549 1188 1500 1163 q 1628 1231 1599 1213 q 1666 1208 1650 1226 q 1688 1169 1682 1190 q 1485 1022 1565 1094 q 1396 1011 1453 1011 z "},"Ð":{"ha":1021,"x_min":39,"x_max":972,"o":"m 458 942 q 831 847 690 942 q 972 493 972 751 q 882 178 972 288 q 677 35 792 69 q 456 0 563 0 q 58 -4 258 0 q 68 81 58 51 q 127 95 107 83 q 155 137 147 107 q 163 228 163 167 l 163 424 l 39 421 q 54 519 39 486 l 163 519 l 163 721 q 155 804 163 776 q 128 843 147 832 q 68 858 108 854 q 60 943 60 883 q 304 939 140 939 q 372 940 349 939 l 458 942 m 486 85 q 681 167 604 85 q 757 469 757 249 q 670 770 757 678 q 449 863 583 863 q 369 849 404 863 l 369 519 l 553 519 q 536 422 553 460 q 369 424 468 424 l 369 231 q 379 140 369 171 q 414 97 389 110 q 486 85 439 85 z "},"Ď":{"ha":1021,"x_min":58,"x_max":972,"o":"m 458 942 q 831 847 690 942 q 972 493 972 751 q 882 178 972 288 q 677 35 792 69 q 456 0 563 0 q 58 -4 258 0 q 68 81 58 51 q 127 95 107 83 q 155 137 147 107 q 163 228 163 167 l 163 721 q 155 804 163 776 q 128 843 147 832 q 68 858 108 854 q 60 943 60 883 q 304 939 140 939 q 372 940 349 939 l 458 942 m 486 85 q 681 167 604 85 q 757 469 757 249 q 670 770 757 678 q 449 863 583 863 q 369 849 404 863 l 369 231 q 379 140 369 171 q 414 97 389 110 q 486 85 439 85 m 426 1011 q 236 1175 357 1086 q 326 1231 272 1219 q 492 1144 413 1179 q 580 1188 531 1163 q 658 1231 629 1213 q 697 1208 681 1226 q 718 1169 713 1190 q 515 1022 596 1094 q 426 1011 483 1011 z "},"Ḑ":{"ha":1021,"x_min":58,"x_max":972,"o":"m 458 942 q 831 847 690 942 q 972 493 972 751 q 882 178 972 288 q 677 35 792 69 q 456 0 563 0 q 58 -4 258 0 q 68 81 58 51 q 127 95 107 83 q 155 137 147 107 q 163 228 163 167 l 163 721 q 155 804 163 776 q 128 843 147 832 q 68 858 108 854 q 60 943 60 883 q 304 939 140 939 q 372 940 349 939 l 458 942 m 486 85 q 681 167 604 85 q 757 469 757 249 q 670 770 757 678 q 449 863 583 863 q 369 849 404 863 l 369 231 q 379 140 369 171 q 414 97 389 110 q 486 85 439 85 m 508 -56 q 555 -91 540 -65 q 569 -161 569 -117 q 417 -414 569 -307 q 374 -406 394 -414 q 343 -382 354 -397 q 400 -319 381 -350 q 419 -262 419 -289 q 347 -207 419 -215 q 349 -151 344 -182 q 364 -97 354 -121 q 508 -56 454 -90 z "},"Đ":{"ha":1021,"x_min":39,"x_max":972,"o":"m 458 942 q 831 847 690 942 q 972 493 972 751 q 882 178 972 288 q 677 35 792 69 q 456 0 563 0 q 58 -4 258 0 q 68 81 58 51 q 127 95 107 83 q 155 137 147 107 q 163 228 163 167 l 163 424 l 39 421 q 54 519 39 486 l 163 519 l 163 721 q 155 804 163 776 q 128 843 147 832 q 68 858 108 854 q 60 943 60 883 q 304 939 140 939 q 372 940 349 939 l 458 942 m 486 85 q 681 167 604 85 q 757 469 757 249 q 670 770 757 678 q 449 863 583 863 q 369 849 404 863 l 369 519 l 553 519 q 536 422 553 460 q 369 424 468 424 l 369 231 q 379 140 369 171 q 414 97 389 110 q 486 85 439 85 z "},"Ḍ":{"ha":1021,"x_min":58,"x_max":972,"o":"m 458 942 q 831 847 690 942 q 972 493 972 751 q 882 178 972 288 q 677 35 792 69 q 456 0 563 0 q 58 -4 258 0 q 68 81 58 51 q 127 95 107 83 q 155 137 147 107 q 163 228 163 167 l 163 721 q 155 804 163 776 q 128 843 147 832 q 68 858 108 854 q 60 943 60 883 q 304 939 140 939 q 372 940 349 939 l 458 942 m 486 85 q 681 167 604 85 q 757 469 757 249 q 670 770 757 678 q 449 863 583 863 q 369 849 404 863 l 369 231 q 379 140 369 171 q 414 97 389 110 q 486 85 439 85 m 456 -311 q 374 -283 406 -311 q 343 -214 343 -256 q 376 -137 343 -165 q 461 -108 410 -108 q 548 -136 517 -108 q 579 -212 579 -164 q 545 -283 579 -256 q 456 -311 511 -311 z "},"Ḏ":{"ha":1021,"x_min":58,"x_max":972,"o":"m 458 942 q 831 847 690 942 q 972 493 972 751 q 882 178 972 288 q 677 35 792 69 q 456 0 563 0 q 58 -4 258 0 q 68 81 58 51 q 127 95 107 83 q 155 137 147 107 q 163 228 163 167 l 163 721 q 155 804 163 776 q 128 843 147 832 q 68 858 108 854 q 60 943 60 883 q 304 939 140 939 q 372 940 349 939 l 458 942 m 486 85 q 681 167 604 85 q 757 469 757 249 q 670 770 757 678 q 449 863 583 863 q 369 849 404 863 l 369 231 q 379 140 369 171 q 414 97 389 110 q 486 85 439 85 m 201 -224 q 214 -143 201 -172 l 721 -143 q 708 -214 721 -183 q 201 -224 451 -214 z "},"ǲ":{"ha":1729,"x_min":58,"x_max":1685,"o":"m 458 942 q 831 847 690 942 q 972 493 972 751 q 882 178 972 288 q 677 35 792 69 q 456 0 563 0 q 58 -4 258 0 q 68 81 58 51 q 127 95 107 83 q 155 137 147 107 q 163 228 163 167 l 163 721 q 155 804 163 776 q 128 843 147 832 q 68 858 108 854 q 60 943 60 883 q 304 939 140 939 q 372 940 349 939 l 458 942 m 486 85 q 681 167 604 85 q 757 469 757 249 q 670 770 757 678 q 449 863 583 863 q 369 849 404 863 l 369 231 q 379 140 369 171 q 414 97 389 110 q 486 85 439 85 m 1674 231 q 1685 28 1674 94 q 1629 -3 1671 -3 q 1521 -1 1563 -3 l 1365 0 q 1110 -3 1210 0 q 1091 35 1099 13 q 1083 78 1083 57 q 1258 316 1158 175 q 1419 553 1358 457 l 1331 553 q 1265 541 1289 553 q 1228 500 1242 529 q 1204 413 1215 471 q 1143 415 1174 410 q 1092 429 1113 419 q 1106 640 1106 518 q 1381 636 1192 636 q 1640 640 1554 636 q 1661 567 1661 614 q 1503 331 1596 465 q 1326 85 1410 197 l 1444 85 q 1516 98 1492 85 q 1551 144 1540 111 q 1567 242 1563 176 q 1674 231 1624 244 z "},"ǅ":{"ha":1729,"x_min":58,"x_max":1685,"o":"m 458 942 q 831 847 690 942 q 972 493 972 751 q 882 178 972 288 q 677 35 792 69 q 456 0 563 0 q 58 -4 258 0 q 68 81 58 51 q 127 95 107 83 q 155 137 147 107 q 163 228 163 167 l 163 721 q 155 804 163 776 q 128 843 147 832 q 68 858 108 854 q 60 943 60 883 q 304 939 140 939 q 372 940 349 939 l 458 942 m 486 85 q 681 167 604 85 q 757 469 757 249 q 670 770 757 678 q 449 863 583 863 q 369 849 404 863 l 369 231 q 379 140 369 171 q 414 97 389 110 q 486 85 439 85 m 1674 231 q 1685 28 1674 94 q 1629 -3 1671 -3 q 1521 -1 1563 -3 l 1365 0 q 1110 -3 1210 0 q 1091 35 1099 13 q 1083 78 1083 57 q 1258 316 1158 175 q 1419 553 1358 457 l 1331 553 q 1265 541 1289 553 q 1228 500 1242 529 q 1204 413 1215 471 q 1143 415 1174 410 q 1092 429 1113 419 q 1106 640 1106 518 q 1381 636 1192 636 q 1640 640 1554 636 q 1661 567 1661 614 q 1503 331 1596 465 q 1326 85 1410 197 l 1444 85 q 1516 98 1492 85 q 1551 144 1540 111 q 1567 242 1563 176 q 1674 231 1624 244 m 1324 717 q 1121 929 1236 824 q 1186 989 1133 969 q 1378 871 1314 900 q 1473 926 1414 888 q 1563 989 1532 964 q 1602 969 1585 985 q 1628 933 1619 953 q 1510 833 1568 888 q 1411 728 1453 778 q 1324 717 1376 717 z "},"E":{"ha":868,"x_min":58,"x_max":829,"o":"m 726 267 q 829 226 799 256 q 786 -3 801 142 q 456 0 650 0 q 58 -4 258 0 q 68 81 58 51 q 126 95 107 83 q 153 137 146 107 q 161 228 161 167 l 161 721 q 153 804 161 776 q 126 843 146 832 q 67 858 107 854 q 58 943 58 890 q 368 939 167 939 q 749 943 654 939 q 778 710 758 790 q 675 688 738 688 q 619 814 664 769 q 467 858 575 858 l 369 858 l 369 511 l 411 511 q 515 533 488 511 q 544 617 543 556 q 640 631 585 631 q 636 472 636 563 q 640 310 636 375 q 547 321 578 310 q 513 406 542 383 q 411 429 485 429 l 369 429 l 369 231 q 379 140 369 171 q 414 97 389 110 q 486 85 439 85 l 503 85 q 615 104 574 85 q 681 161 657 124 q 726 267 706 199 z "},"É":{"ha":868,"x_min":58,"x_max":829,"o":"m 726 267 q 829 226 799 256 q 786 -3 801 142 q 456 0 650 0 q 58 -4 258 0 q 68 81 58 51 q 126 95 107 83 q 153 137 146 107 q 161 228 161 167 l 161 721 q 153 804 161 776 q 126 843 146 832 q 67 858 107 854 q 58 943 58 890 q 368 939 167 939 q 749 943 654 939 q 778 710 758 790 q 675 688 738 688 q 619 814 664 769 q 467 858 575 858 l 369 858 l 369 511 l 411 511 q 515 533 488 511 q 544 617 543 556 q 640 631 585 631 q 636 472 636 563 q 640 310 636 375 q 547 321 578 310 q 513 406 542 383 q 411 429 485 429 l 369 429 l 369 231 q 379 140 369 171 q 414 97 389 110 q 486 85 439 85 l 503 85 q 615 104 574 85 q 681 161 657 124 q 726 267 706 199 m 443 1019 q 343 1035 383 1019 q 425 1211 397 1136 q 525 1222 476 1222 q 606 1213 572 1222 q 443 1019 521 1119 z "},"Ĕ":{"ha":868,"x_min":58,"x_max":829,"o":"m 726 267 q 829 226 799 256 q 786 -3 801 142 q 456 0 650 0 q 58 -4 258 0 q 68 81 58 51 q 126 95 107 83 q 153 137 146 107 q 161 228 161 167 l 161 721 q 153 804 161 776 q 126 843 146 832 q 67 858 107 854 q 58 943 58 890 q 368 939 167 939 q 749 943 654 939 q 778 710 758 790 q 675 688 738 688 q 619 814 664 769 q 467 858 575 858 l 369 858 l 369 511 l 411 511 q 515 533 488 511 q 544 617 543 556 q 640 631 585 631 q 636 472 636 563 q 640 310 636 375 q 547 321 578 310 q 513 406 542 383 q 411 429 485 429 l 369 429 l 369 231 q 379 140 369 171 q 414 97 389 110 q 486 85 439 85 l 503 85 q 615 104 574 85 q 681 161 657 124 q 726 267 706 199 m 649 1204 q 589 1056 649 1107 q 415 1006 529 1006 q 246 1055 304 1006 q 188 1199 188 1104 q 268 1214 222 1214 q 293 1213 285 1214 q 336 1147 300 1169 q 431 1124 372 1124 q 522 1147 488 1124 q 558 1213 556 1169 q 589 1215 578 1215 q 649 1204 622 1215 z "},"Ě":{"ha":868,"x_min":58,"x_max":829,"o":"m 726 267 q 829 226 799 256 q 786 -3 801 142 q 456 0 650 0 q 58 -4 258 0 q 68 81 58 51 q 126 95 107 83 q 153 137 146 107 q 161 228 161 167 l 161 721 q 153 804 161 776 q 126 843 146 832 q 67 858 107 854 q 58 943 58 890 q 368 939 167 939 q 749 943 654 939 q 778 710 758 790 q 675 688 738 688 q 619 814 664 769 q 467 858 575 858 l 369 858 l 369 511 l 411 511 q 515 533 488 511 q 544 617 543 556 q 640 631 585 631 q 636 472 636 563 q 640 310 636 375 q 547 321 578 310 q 513 406 542 383 q 411 429 485 429 l 369 429 l 369 231 q 379 140 369 171 q 414 97 389 110 q 486 85 439 85 l 503 85 q 615 104 574 85 q 681 161 657 124 q 726 267 706 199 m 357 1011 q 167 1175 288 1086 q 257 1231 203 1219 q 422 1144 343 1179 q 510 1188 461 1163 q 589 1231 560 1213 q 627 1208 611 1226 q 649 1169 643 1190 q 446 1022 526 1094 q 357 1011 414 1011 z "},"Ȩ":{"ha":868,"x_min":58,"x_max":829,"o":"m 786 -3 q 489 0 661 0 l 440 -64 q 530 -109 497 -74 q 563 -193 563 -144 q 502 -298 563 -260 q 350 -336 442 -336 q 339 -278 339 -314 q 417 -260 385 -278 q 449 -210 449 -242 q 424 -165 449 -182 q 363 -147 400 -147 q 338 -87 338 -119 l 401 0 l 271 -1 q 158 -3 215 -3 q 58 -4 101 -3 q 68 81 58 51 q 126 95 107 83 q 153 137 146 107 q 161 228 161 167 l 161 721 q 153 804 161 776 q 126 843 146 832 q 67 858 107 854 q 58 943 58 890 q 368 939 167 939 q 749 943 654 939 q 778 710 758 790 q 675 688 738 688 q 619 814 664 769 q 467 858 575 858 l 369 858 l 369 511 l 411 511 q 515 533 488 511 q 544 617 543 556 q 640 631 585 631 q 636 472 636 563 q 640 310 636 375 q 547 321 578 310 q 513 406 542 383 q 411 429 485 429 l 369 429 l 369 231 q 379 140 369 171 q 414 97 389 110 q 486 85 439 85 l 503 85 q 615 104 574 85 q 681 161 657 124 q 726 267 706 199 q 829 226 799 256 q 786 -3 801 142 z "},"Ḝ":{"ha":868,"x_min":58,"x_max":829,"o":"m 417 1006 q 247 1055 306 1006 q 188 1199 188 1104 q 268 1214 222 1214 q 293 1213 285 1214 q 337 1147 300 1169 q 432 1124 374 1124 q 523 1147 489 1124 q 558 1213 557 1171 q 589 1215 578 1215 q 649 1204 622 1215 q 590 1056 649 1107 q 417 1006 531 1006 m 786 -3 q 489 0 661 0 l 440 -64 q 530 -109 497 -74 q 563 -193 563 -144 q 502 -298 563 -260 q 350 -336 442 -336 q 339 -278 339 -314 q 417 -260 385 -278 q 449 -210 449 -242 q 424 -165 449 -182 q 363 -147 400 -147 q 338 -87 338 -119 l 401 0 l 271 -1 q 158 -3 215 -3 q 58 -4 101 -3 q 68 81 58 51 q 126 95 107 83 q 153 137 146 107 q 161 228 161 167 l 161 721 q 153 804 161 776 q 126 843 146 832 q 67 858 107 854 q 58 943 58 890 q 368 939 167 939 q 749 943 654 939 q 778 710 758 790 q 675 688 738 688 q 619 814 664 769 q 467 858 575 858 l 369 858 l 369 511 l 411 511 q 515 533 488 511 q 544 617 543 556 q 640 631 585 631 q 636 472 636 563 q 640 310 636 375 q 547 321 578 310 q 513 406 542 383 q 411 429 485 429 l 369 429 l 369 231 q 379 140 369 171 q 414 97 389 110 q 486 85 439 85 l 503 85 q 615 104 574 85 q 681 161 657 124 q 726 267 706 199 q 829 226 799 256 q 786 -3 801 142 z "},"Ê":{"ha":868,"x_min":58,"x_max":829,"o":"m 726 267 q 829 226 799 256 q 786 -3 801 142 q 456 0 650 0 q 58 -4 258 0 q 68 81 58 51 q 126 95 107 83 q 153 137 146 107 q 161 228 161 167 l 161 721 q 153 804 161 776 q 126 843 146 832 q 67 858 107 854 q 58 943 58 890 q 368 939 167 939 q 749 943 654 939 q 778 710 758 790 q 675 688 738 688 q 619 814 664 769 q 467 858 575 858 l 369 858 l 369 511 l 411 511 q 515 533 488 511 q 544 617 543 556 q 640 631 585 631 q 636 472 636 563 q 640 310 636 375 q 547 321 578 310 q 513 406 542 383 q 411 429 485 429 l 369 429 l 369 231 q 379 140 369 171 q 414 97 389 110 q 486 85 439 85 l 503 85 q 615 104 574 85 q 681 161 657 124 q 726 267 706 199 m 236 1011 q 198 1033 214 1015 q 176 1072 182 1051 q 379 1221 301 1149 q 467 1231 411 1231 q 658 1067 539 1154 q 567 1011 622 1022 q 403 1099 478 1065 q 236 1011 274 1036 z "},"Ế":{"ha":868,"x_min":58,"x_max":829,"o":"m 726 267 q 829 226 799 256 q 786 -3 801 142 q 456 0 650 0 q 58 -4 258 0 q 68 81 58 51 q 126 95 107 83 q 153 137 146 107 q 161 228 161 167 l 161 721 q 153 804 161 776 q 126 843 146 832 q 67 858 107 854 q 58 943 58 890 q 368 939 167 939 q 749 943 654 939 q 778 710 758 790 q 675 688 738 688 q 619 814 664 769 q 467 858 575 858 l 369 858 l 369 511 l 411 511 q 515 533 488 511 q 544 617 543 556 q 640 631 585 631 q 636 472 636 563 q 640 310 636 375 q 547 321 578 310 q 513 406 542 383 q 411 429 485 429 l 369 429 l 369 231 q 379 140 369 171 q 414 97 389 110 q 486 85 439 85 l 503 85 q 615 104 574 85 q 681 161 657 124 q 726 267 706 199 m 661 1193 q 569 1208 611 1193 q 643 1369 619 1301 q 736 1381 692 1381 q 810 1371 781 1381 q 661 1193 726 1278 m 236 1011 q 198 1033 214 1015 q 176 1072 182 1051 q 379 1221 301 1149 q 467 1231 411 1231 q 658 1067 539 1154 q 567 1011 622 1022 q 403 1099 478 1065 q 236 1011 274 1036 z "},"Ệ":{"ha":868,"x_min":58,"x_max":829,"o":"m 726 267 q 829 226 799 256 q 786 -3 801 142 q 456 0 650 0 q 58 -4 258 0 q 68 81 58 51 q 126 95 107 83 q 153 137 146 107 q 161 228 161 167 l 161 721 q 153 804 161 776 q 126 843 146 832 q 67 858 107 854 q 58 943 58 890 q 368 939 167 939 q 749 943 654 939 q 778 710 758 790 q 675 688 738 688 q 619 814 664 769 q 467 858 575 858 l 369 858 l 369 511 l 411 511 q 515 533 488 511 q 544 617 543 556 q 640 631 585 631 q 636 472 636 563 q 640 310 636 375 q 547 321 578 310 q 513 406 542 383 q 411 429 485 429 l 369 429 l 369 231 q 379 140 369 171 q 414 97 389 110 q 486 85 439 85 l 503 85 q 615 104 574 85 q 681 161 657 124 q 726 267 706 199 m 444 -311 q 363 -283 394 -311 q 332 -214 332 -256 q 365 -137 332 -165 q 450 -108 399 -108 q 537 -136 506 -108 q 568 -212 568 -164 q 534 -283 568 -256 q 444 -311 500 -311 m 236 1011 q 198 1033 214 1015 q 176 1072 182 1051 q 379 1221 301 1149 q 467 1231 411 1231 q 658 1067 539 1154 q 567 1011 622 1022 q 403 1099 478 1065 q 236 1011 274 1036 z "},"Ề":{"ha":868,"x_min":58,"x_max":829,"o":"m 726 267 q 829 226 799 256 q 786 -3 801 142 q 456 0 650 0 q 58 -4 258 0 q 68 81 58 51 q 126 95 107 83 q 153 137 146 107 q 161 228 161 167 l 161 721 q 153 804 161 776 q 126 843 146 832 q 67 858 107 854 q 58 943 58 890 q 368 939 167 939 q 749 943 654 939 q 778 710 758 790 q 675 688 738 688 q 619 814 664 769 q 467 858 575 858 l 369 858 l 369 511 l 411 511 q 515 533 488 511 q 544 617 543 556 q 640 631 585 631 q 636 472 636 563 q 640 310 636 375 q 547 321 578 310 q 513 406 542 383 q 411 429 485 429 l 369 429 l 369 231 q 379 140 369 171 q 414 97 389 110 q 486 85 439 85 l 503 85 q 615 104 574 85 q 681 161 657 124 q 726 267 706 199 z "},"Ể":{"ha":868,"x_min":58,"x_max":829,"o":"m 726 267 q 829 226 799 256 q 786 -3 801 142 q 456 0 650 0 q 58 -4 258 0 q 68 81 58 51 q 126 95 107 83 q 153 137 146 107 q 161 228 161 167 l 161 721 q 153 804 161 776 q 126 843 146 832 q 67 858 107 854 q 58 943 58 890 q 368 939 167 939 q 749 943 654 939 q 778 710 758 790 q 675 688 738 688 q 619 814 664 769 q 467 858 575 858 l 369 858 l 369 511 l 411 511 q 515 533 488 511 q 544 617 543 556 q 640 631 585 631 q 636 472 636 563 q 640 310 636 375 q 547 321 578 310 q 513 406 542 383 q 411 429 485 429 l 369 429 l 369 231 q 379 140 369 171 q 414 97 389 110 q 486 85 439 85 l 503 85 q 615 104 574 85 q 681 161 657 124 q 726 267 706 199 m 236 1011 q 198 1033 214 1015 q 176 1072 182 1051 q 379 1221 301 1149 q 467 1231 411 1231 q 658 1067 539 1154 q 567 1011 622 1022 q 403 1099 478 1065 q 236 1011 274 1036 m 586 1201 q 574 1242 574 1221 q 585 1278 574 1264 q 617 1308 596 1293 q 644 1333 636 1324 q 651 1358 651 1343 q 617 1389 651 1389 q 578 1369 593 1389 q 557 1299 564 1350 q 476 1315 510 1299 q 481 1365 481 1343 q 476 1404 481 1386 q 629 1447 540 1447 q 729 1425 694 1447 q 764 1361 764 1403 q 748 1310 764 1329 q 701 1271 732 1292 q 673 1249 682 1258 q 664 1229 664 1240 q 668 1208 664 1219 q 611 1200 643 1200 q 586 1201 594 1200 z "},"Ễ":{"ha":868,"x_min":58,"x_max":829,"o":"m 726 267 q 829 226 799 256 q 786 -3 801 142 q 456 0 650 0 q 58 -4 258 0 q 68 81 58 51 q 126 95 107 83 q 153 137 146 107 q 161 228 161 167 l 161 721 q 153 804 161 776 q 126 843 146 832 q 67 858 107 854 q 58 943 58 890 q 368 939 167 939 q 749 943 654 939 q 778 710 758 790 q 675 688 738 688 q 619 814 664 769 q 467 858 575 858 l 369 858 l 369 511 l 411 511 q 515 533 488 511 q 544 617 543 556 q 640 631 585 631 q 636 472 636 563 q 640 310 636 375 q 547 321 578 310 q 513 406 542 383 q 411 429 485 429 l 369 429 l 369 231 q 379 140 369 171 q 414 97 389 110 q 486 85 439 85 l 503 85 q 615 104 574 85 q 681 161 657 124 q 726 267 706 199 m 236 1011 q 198 1033 214 1015 q 176 1072 182 1051 q 379 1221 301 1149 q 467 1231 411 1231 q 658 1067 539 1154 q 567 1011 622 1022 q 403 1099 478 1065 q 236 1011 274 1036 m 492 1293 q 440 1301 461 1293 q 385 1325 418 1308 q 340 1346 357 1339 q 300 1353 322 1353 q 197 1297 246 1353 q 161 1372 163 1328 q 246 1447 199 1424 q 340 1469 293 1469 q 396 1461 371 1469 q 450 1439 421 1453 q 497 1419 481 1425 q 532 1414 513 1414 q 614 1460 578 1414 q 678 1426 656 1453 q 596 1327 643 1361 q 492 1293 549 1293 z "},"Ȅ":{"ha":868,"x_min":58,"x_max":829,"o":"m 726 267 q 829 226 799 256 q 786 -3 801 142 q 456 0 650 0 q 58 -4 258 0 q 68 81 58 51 q 126 95 107 83 q 153 137 146 107 q 161 228 161 167 l 161 721 q 153 804 161 776 q 126 843 146 832 q 67 858 107 854 q 58 943 58 890 q 368 939 167 939 q 749 943 654 939 q 778 710 758 790 q 675 688 738 688 q 619 814 664 769 q 467 858 575 858 l 369 858 l 369 511 l 411 511 q 515 533 488 511 q 544 617 543 556 q 640 631 585 631 q 636 472 636 563 q 640 310 636 375 q 547 321 578 310 q 513 406 542 383 q 411 429 485 429 l 369 429 l 369 231 q 379 140 369 171 q 414 97 389 110 q 486 85 439 85 l 503 85 q 615 104 574 85 q 681 161 657 124 q 726 267 706 199 m 268 997 q 114 1171 181 1106 q 188 1192 144 1186 q 278 1197 232 1199 q 368 1014 321 1092 q 268 997 325 997 m 513 997 q 365 1174 439 1096 q 438 1192 394 1186 q 522 1197 481 1199 q 613 1014 565 1092 q 513 997 569 997 z "},"Ë":{"ha":868,"x_min":58,"x_max":829,"o":"m 726 267 q 829 226 799 256 q 786 -3 801 142 q 456 0 650 0 q 58 -4 258 0 q 68 81 58 51 q 126 95 107 83 q 153 137 146 107 q 161 228 161 167 l 161 721 q 153 804 161 776 q 126 843 146 832 q 67 858 107 854 q 58 943 58 890 q 368 939 167 939 q 749 943 654 939 q 778 710 758 790 q 675 688 738 688 q 619 814 664 769 q 467 858 575 858 l 369 858 l 369 511 l 411 511 q 515 533 488 511 q 544 617 543 556 q 640 631 585 631 q 636 472 636 563 q 640 310 636 375 q 547 321 578 310 q 513 406 542 383 q 411 429 485 429 l 369 429 l 369 231 q 379 140 369 171 q 414 97 389 110 q 486 85 439 85 l 503 85 q 615 104 574 85 q 681 161 657 124 q 726 267 706 199 z "},"Ė":{"ha":868,"x_min":58,"x_max":829,"o":"m 726 267 q 829 226 799 256 q 786 -3 801 142 q 456 0 650 0 q 58 -4 258 0 q 68 81 58 51 q 126 95 107 83 q 153 137 146 107 q 161 228 161 167 l 161 721 q 153 804 161 776 q 126 843 146 832 q 67 858 107 854 q 58 943 58 890 q 368 939 167 939 q 749 943 654 939 q 778 710 758 790 q 675 688 738 688 q 619 814 664 769 q 467 858 575 858 l 369 858 l 369 511 l 411 511 q 515 533 488 511 q 544 617 543 556 q 640 631 585 631 q 636 472 636 563 q 640 310 636 375 q 547 321 578 310 q 513 406 542 383 q 411 429 485 429 l 369 429 l 369 231 q 379 140 369 171 q 414 97 389 110 q 486 85 439 85 l 503 85 q 615 104 574 85 q 681 161 657 124 q 726 267 706 199 z "},"Ẹ":{"ha":868,"x_min":58,"x_max":829,"o":"m 726 267 q 829 226 799 256 q 786 -3 801 142 q 456 0 650 0 q 58 -4 258 0 q 68 81 58 51 q 126 95 107 83 q 153 137 146 107 q 161 228 161 167 l 161 721 q 153 804 161 776 q 126 843 146 832 q 67 858 107 854 q 58 943 58 890 q 368 939 167 939 q 749 943 654 939 q 778 710 758 790 q 675 688 738 688 q 619 814 664 769 q 467 858 575 858 l 369 858 l 369 511 l 411 511 q 515 533 488 511 q 544 617 543 556 q 640 631 585 631 q 636 472 636 563 q 640 310 636 375 q 547 321 578 310 q 513 406 542 383 q 411 429 485 429 l 369 429 l 369 231 q 379 140 369 171 q 414 97 389 110 q 486 85 439 85 l 503 85 q 615 104 574 85 q 681 161 657 124 q 726 267 706 199 m 444 -311 q 363 -283 394 -311 q 332 -214 332 -256 q 365 -137 332 -165 q 450 -108 399 -108 q 537 -136 506 -108 q 568 -212 568 -164 q 534 -283 568 -256 q 444 -311 500 -311 z "},"È":{"ha":868,"x_min":58,"x_max":829,"o":"m 726 267 q 829 226 799 256 q 786 -3 801 142 q 456 0 650 0 q 58 -4 258 0 q 68 81 58 51 q 126 95 107 83 q 153 137 146 107 q 161 228 161 167 l 161 721 q 153 804 161 776 q 126 843 146 832 q 67 858 107 854 q 58 943 58 890 q 368 939 167 939 q 749 943 654 939 q 778 710 758 790 q 675 688 738 688 q 619 814 664 769 q 467 858 575 858 l 369 858 l 369 511 l 411 511 q 515 533 488 511 q 544 617 543 556 q 640 631 585 631 q 636 472 636 563 q 640 310 636 375 q 547 321 578 310 q 513 406 542 383 q 411 429 485 429 l 369 429 l 369 231 q 379 140 369 171 q 414 97 389 110 q 486 85 439 85 l 503 85 q 615 104 574 85 q 681 161 657 124 q 726 267 706 199 m 388 1019 q 239 1192 310 1124 q 315 1214 269 1207 q 403 1218 360 1221 q 493 1035 446 1113 q 388 1019 454 1019 z "},"Ẻ":{"ha":868,"x_min":58,"x_max":829,"o":"m 726 267 q 829 226 799 256 q 786 -3 801 142 q 456 0 650 0 q 58 -4 258 0 q 68 81 58 51 q 126 95 107 83 q 153 137 146 107 q 161 228 161 167 l 161 721 q 153 804 161 776 q 126 843 146 832 q 67 858 107 854 q 58 943 58 890 q 368 939 167 939 q 749 943 654 939 q 778 710 758 790 q 675 688 738 688 q 619 814 664 769 q 467 858 575 858 l 369 858 l 369 511 l 411 511 q 515 533 488 511 q 544 617 543 556 q 640 631 585 631 q 636 472 636 563 q 640 310 636 375 q 547 321 578 310 q 513 406 542 383 q 411 429 485 429 l 369 429 l 369 231 q 379 140 369 171 q 414 97 389 110 q 486 85 439 85 l 503 85 q 615 104 574 85 q 681 161 657 124 q 726 267 706 199 m 383 1003 q 371 1043 371 1022 q 382 1080 371 1065 q 414 1110 393 1094 q 441 1135 433 1125 q 449 1160 449 1144 q 414 1190 449 1190 q 376 1171 390 1190 q 354 1100 361 1151 q 274 1117 307 1100 q 278 1167 278 1144 q 274 1206 278 1188 q 426 1249 338 1249 q 526 1226 492 1249 q 561 1163 561 1204 q 545 1112 561 1131 q 499 1072 529 1093 q 470 1051 479 1060 q 461 1031 461 1042 q 465 1010 461 1021 q 408 1001 440 1001 q 383 1003 392 1001 z "},"Ȇ":{"ha":868,"x_min":58,"x_max":829,"o":"m 726 267 q 829 226 799 256 q 786 -3 801 142 q 456 0 650 0 q 58 -4 258 0 q 68 81 58 51 q 126 95 107 83 q 153 137 146 107 q 161 228 161 167 l 161 721 q 153 804 161 776 q 126 843 146 832 q 67 858 107 854 q 58 943 58 890 q 368 939 167 939 q 749 943 654 939 q 778 710 758 790 q 675 688 738 688 q 619 814 664 769 q 467 858 575 858 l 369 858 l 369 511 l 411 511 q 515 533 488 511 q 544 617 543 556 q 640 631 585 631 q 636 472 636 563 q 640 310 636 375 q 547 321 578 310 q 513 406 542 383 q 411 429 485 429 l 369 429 l 369 231 q 379 140 369 171 q 414 97 389 110 q 486 85 439 85 l 503 85 q 615 104 574 85 q 681 161 657 124 q 726 267 706 199 m 188 1017 q 247 1165 188 1114 q 421 1215 307 1215 q 590 1166 532 1215 q 649 1022 649 1117 q 568 1007 614 1007 q 543 1008 551 1007 q 500 1074 536 1051 q 406 1097 464 1097 q 315 1074 349 1097 q 278 1008 281 1051 q 247 1006 258 1006 q 188 1017 214 1006 z "},"Ē":{"ha":868,"x_min":58,"x_max":829,"o":"m 726 267 q 829 226 799 256 q 786 -3 801 142 q 456 0 650 0 q 58 -4 258 0 q 68 81 58 51 q 126 95 107 83 q 153 137 146 107 q 161 228 161 167 l 161 721 q 153 804 161 776 q 126 843 146 832 q 67 858 107 854 q 58 943 58 890 q 368 939 167 939 q 749 943 654 939 q 778 710 758 790 q 675 688 738 688 q 619 814 664 769 q 467 858 575 858 l 369 858 l 369 511 l 411 511 q 515 533 488 511 q 544 617 543 556 q 640 631 585 631 q 636 472 636 563 q 640 310 636 375 q 547 321 578 310 q 513 406 542 383 q 411 429 485 429 l 369 429 l 369 231 q 379 140 369 171 q 414 97 389 110 q 486 85 439 85 l 503 85 q 615 104 574 85 q 681 161 657 124 q 726 267 706 199 m 682 1135 q 669 1060 682 1093 q 156 1047 417 1060 q 168 1135 156 1104 l 682 1135 z "},"Ḗ":{"ha":868,"x_min":58,"x_max":829,"o":"m 726 267 q 829 226 799 256 q 786 -3 801 142 q 456 0 650 0 q 58 -4 258 0 q 68 81 58 51 q 126 95 107 83 q 153 137 146 107 q 161 228 161 167 l 161 721 q 153 804 161 776 q 126 843 146 832 q 67 858 107 854 q 58 943 58 890 q 368 939 167 939 q 749 943 654 939 q 778 710 758 790 q 675 688 738 688 q 619 814 664 769 q 467 858 575 858 l 369 858 l 369 511 l 411 511 q 515 533 488 511 q 544 617 543 556 q 640 631 585 631 q 636 472 636 563 q 640 310 636 375 q 547 321 578 310 q 513 406 542 383 q 411 429 485 429 l 369 429 l 369 231 q 379 140 369 171 q 414 97 389 110 q 486 85 439 85 l 503 85 q 615 104 574 85 q 681 161 657 124 q 726 267 706 199 m 682 1135 q 669 1060 682 1093 q 156 1047 417 1060 q 168 1135 156 1104 l 682 1135 m 443 1215 q 343 1231 383 1215 q 425 1407 397 1332 q 525 1418 476 1418 q 606 1408 572 1418 q 443 1215 521 1315 z "},"Ḕ":{"ha":868,"x_min":58,"x_max":829,"o":"m 726 267 q 829 226 799 256 q 786 -3 801 142 q 456 0 650 0 q 58 -4 258 0 q 68 81 58 51 q 126 95 107 83 q 153 137 146 107 q 161 228 161 167 l 161 721 q 153 804 161 776 q 126 843 146 832 q 67 858 107 854 q 58 943 58 890 q 368 939 167 939 q 749 943 654 939 q 778 710 758 790 q 675 688 738 688 q 619 814 664 769 q 467 858 575 858 l 369 858 l 369 511 l 411 511 q 515 533 488 511 q 544 617 543 556 q 640 631 585 631 q 636 472 636 563 q 640 310 636 375 q 547 321 578 310 q 513 406 542 383 q 411 429 485 429 l 369 429 l 369 231 q 379 140 369 171 q 414 97 389 110 q 486 85 439 85 l 503 85 q 615 104 574 85 q 681 161 657 124 q 726 267 706 199 m 682 1135 q 669 1060 682 1093 q 156 1047 417 1060 q 168 1135 156 1104 l 682 1135 m 388 1215 q 239 1388 310 1319 q 315 1410 269 1403 q 403 1414 360 1417 q 493 1231 446 1308 q 388 1215 454 1215 z "},"Ę":{"ha":868,"x_min":58,"x_max":829,"o":"m 711 -1 q 610 -60 643 -24 q 576 -132 576 -96 q 602 -182 576 -164 q 674 -200 628 -200 q 726 -193 704 -200 q 739 -225 733 -204 q 744 -267 744 -246 l 743 -281 q 597 -344 656 -304 q 568 -346 586 -346 q 496 -331 533 -346 q 433 -284 458 -317 q 407 -200 407 -251 q 583 0 407 -76 l 456 0 q 58 -4 258 0 q 68 81 58 51 q 126 95 107 83 q 153 137 146 107 q 161 228 161 167 l 161 721 q 153 804 161 776 q 126 843 146 832 q 67 858 107 854 q 58 943 58 890 q 368 939 167 939 q 749 943 654 939 q 778 710 758 790 q 675 688 738 688 q 619 814 664 769 q 467 858 575 858 l 369 858 l 369 511 l 411 511 q 515 533 488 511 q 544 617 543 556 q 640 631 585 631 q 636 472 636 563 q 640 310 636 375 q 547 321 578 310 q 513 406 542 383 q 411 429 485 429 l 369 429 l 369 231 q 379 140 369 171 q 414 97 389 110 q 486 85 439 85 l 503 85 q 615 104 574 85 q 681 161 657 124 q 726 267 706 199 q 829 226 799 256 q 786 -3 801 142 l 711 -1 z "},"Ǝ":{"ha":868,"x_min":38,"x_max":808,"o":"m 706 228 q 713 137 706 167 q 741 95 721 107 q 800 81 761 83 q 808 -4 808 50 q 413 0 608 0 q 81 -3 219 0 q 38 226 68 131 q 142 267 69 256 q 187 162 163 200 q 253 104 211 124 q 365 85 294 85 l 382 85 q 454 97 429 85 q 489 140 479 110 q 499 231 499 171 l 499 429 l 456 429 q 354 407 382 429 q 321 321 326 385 q 228 310 290 310 q 232 472 232 375 q 228 631 232 563 q 324 617 283 631 q 353 533 325 556 q 456 511 381 511 l 499 511 l 499 858 l 401 858 q 247 814 292 858 q 192 688 203 769 q 89 710 131 688 q 108 819 100 753 q 118 943 115 885 q 500 939 214 939 q 808 943 703 939 q 800 858 808 883 q 740 843 760 854 q 713 804 721 832 q 706 721 706 776 l 706 228 z "},"Ẽ":{"ha":868,"x_min":58,"x_max":829,"o":"m 726 267 q 829 226 799 256 q 786 -3 801 142 q 456 0 650 0 q 58 -4 258 0 q 68 81 58 51 q 126 95 107 83 q 153 137 146 107 q 161 228 161 167 l 161 721 q 153 804 161 776 q 126 843 146 832 q 67 858 107 854 q 58 943 58 890 q 368 939 167 939 q 749 943 654 939 q 778 710 758 790 q 675 688 738 688 q 619 814 664 769 q 467 858 575 858 l 369 858 l 369 511 l 411 511 q 515 533 488 511 q 544 617 543 556 q 640 631 585 631 q 636 472 636 563 q 640 310 636 375 q 547 321 578 310 q 513 406 542 383 q 411 429 485 429 l 369 429 l 369 231 q 379 140 369 171 q 414 97 389 110 q 486 85 439 85 l 503 85 q 615 104 574 85 q 681 161 657 124 q 726 267 706 199 m 492 1029 q 440 1037 461 1029 q 385 1061 418 1044 q 340 1082 357 1075 q 300 1089 322 1089 q 197 1033 246 1089 q 161 1108 163 1064 q 246 1183 199 1160 q 340 1206 293 1206 q 396 1197 371 1206 q 450 1175 421 1189 q 497 1156 481 1161 q 532 1150 513 1150 q 614 1196 578 1150 q 678 1163 656 1189 q 596 1063 643 1097 q 492 1029 549 1029 z "},"Ʒ":{"ha":844,"x_min":71,"x_max":786,"o":"m 510 518 q 714 443 642 507 q 786 269 786 379 q 681 62 786 136 q 379 -12 575 -12 q 82 50 200 -12 q 83 101 83 65 q 71 276 83 200 q 182 292 115 292 q 242 130 196 179 q 375 81 288 81 q 517 126 465 81 q 568 254 568 172 q 498 395 568 347 q 299 443 428 443 q 282 485 289 458 q 275 532 275 513 q 511 858 393 663 l 367 858 q 280 843 313 858 q 226 788 247 828 q 188 668 204 747 q 74 685 106 668 q 97 808 89 738 q 104 942 104 878 q 435 939 167 939 q 731 942 638 939 q 754 869 753 908 q 510 518 653 692 z "},"Ǯ":{"ha":844,"x_min":71,"x_max":786,"o":"m 510 518 q 714 443 642 507 q 786 269 786 379 q 681 62 786 136 q 379 -12 575 -12 q 82 50 200 -12 q 83 101 83 65 q 71 276 83 200 q 182 292 115 292 q 242 130 196 179 q 375 81 288 81 q 517 126 465 81 q 568 254 568 172 q 498 395 568 347 q 299 443 428 443 q 282 485 289 458 q 275 532 275 513 q 511 858 393 663 l 367 858 q 280 843 313 858 q 226 788 247 828 q 188 668 204 747 q 74 685 106 668 q 97 808 89 738 q 104 942 104 878 q 435 939 167 939 q 731 942 638 939 q 754 869 753 908 q 510 518 653 692 m 349 1011 q 158 1175 279 1086 q 249 1231 194 1219 q 414 1144 335 1179 q 502 1188 453 1163 q 581 1231 551 1213 q 619 1208 603 1226 q 640 1169 635 1190 q 438 1022 518 1094 q 349 1011 406 1011 z "},"F":{"ha":819,"x_min":58,"x_max":783,"o":"m 369 858 l 369 472 l 438 472 q 540 494 513 472 q 569 578 568 517 q 665 592 610 592 q 661 435 661 524 q 665 271 661 336 q 572 282 607 271 q 539 368 567 346 q 438 390 511 390 l 369 390 l 369 240 q 383 147 369 181 q 425 99 396 114 q 507 81 454 85 q 517 -4 517 54 q 296 0 446 0 q 58 -4 135 0 q 67 81 58 50 q 125 95 106 83 q 153 135 144 107 q 161 219 161 163 l 161 721 q 153 805 161 778 q 127 843 146 832 q 69 858 108 854 q 58 943 58 892 q 367 939 168 939 q 754 943 658 939 q 765 819 757 885 q 783 710 772 753 q 681 688 742 688 q 624 814 668 769 q 471 858 579 858 l 369 858 z "},"G":{"ha":992,"x_min":49,"x_max":931,"o":"m 524 -12 q 272 47 379 -12 q 107 217 165 106 q 49 479 49 328 q 113 735 49 628 q 288 897 176 842 q 539 951 399 951 q 717 932 631 951 q 868 882 803 913 q 853 667 853 794 q 746 651 818 651 q 688 819 740 771 q 540 868 636 868 q 387 819 449 868 q 296 688 325 769 q 267 511 267 607 q 299 288 267 386 q 395 134 332 190 q 546 78 458 78 q 599 81 578 78 q 639 92 619 83 q 674 122 663 101 q 685 193 685 143 l 685 251 q 676 328 685 304 q 647 361 668 353 q 576 372 625 369 q 567 458 567 403 q 749 454 636 454 q 931 457 842 454 q 922 372 931 404 q 884 362 896 369 q 868 333 872 354 q 864 263 864 311 l 864 215 q 868 147 864 172 q 885 94 872 121 q 725 17 818 46 q 524 -12 632 -12 z "},"Ğ":{"ha":992,"x_min":49,"x_max":931,"o":"m 524 -12 q 272 47 379 -12 q 107 217 165 106 q 49 479 49 328 q 113 735 49 628 q 288 897 176 842 q 539 951 399 951 q 717 932 631 951 q 868 882 803 913 q 853 667 853 794 q 746 651 818 651 q 688 819 740 771 q 540 868 636 868 q 387 819 449 868 q 296 688 325 769 q 267 511 267 607 q 299 288 267 386 q 395 134 332 190 q 546 78 458 78 q 599 81 578 78 q 639 92 619 83 q 674 122 663 101 q 685 193 685 143 l 685 251 q 676 328 685 304 q 647 361 668 353 q 576 372 625 369 q 567 458 567 403 q 749 454 636 454 q 931 457 842 454 q 922 372 931 404 q 884 362 896 369 q 868 333 872 354 q 864 263 864 311 l 864 215 q 868 147 864 172 q 885 94 872 121 q 725 17 818 46 q 524 -12 632 -12 m 761 1204 q 701 1056 761 1107 q 528 1006 642 1006 q 358 1055 417 1006 q 300 1199 300 1104 q 381 1214 335 1214 q 406 1213 397 1214 q 449 1147 413 1169 q 543 1124 485 1124 q 634 1147 600 1124 q 671 1213 668 1169 q 701 1215 690 1215 q 761 1204 735 1215 z "},"Ǧ":{"ha":992,"x_min":49,"x_max":931,"o":"m 524 -12 q 272 47 379 -12 q 107 217 165 106 q 49 479 49 328 q 113 735 49 628 q 288 897 176 842 q 539 951 399 951 q 717 932 631 951 q 868 882 803 913 q 853 667 853 794 q 746 651 818 651 q 688 819 740 771 q 540 868 636 868 q 387 819 449 868 q 296 688 325 769 q 267 511 267 607 q 299 288 267 386 q 395 134 332 190 q 546 78 458 78 q 599 81 578 78 q 639 92 619 83 q 674 122 663 101 q 685 193 685 143 l 685 251 q 676 328 685 304 q 647 361 668 353 q 576 372 625 369 q 567 458 567 403 q 749 454 636 454 q 931 457 842 454 q 922 372 931 404 q 884 362 896 369 q 868 333 872 354 q 864 263 864 311 l 864 215 q 868 147 864 172 q 885 94 872 121 q 725 17 818 46 q 524 -12 632 -12 m 469 1011 q 279 1175 400 1086 q 369 1231 315 1219 q 535 1144 456 1179 q 623 1188 574 1163 q 701 1231 672 1213 q 740 1208 724 1226 q 761 1169 756 1190 q 558 1022 639 1094 q 469 1011 526 1011 z "},"Ĝ":{"ha":992,"x_min":49,"x_max":931,"o":"m 524 -12 q 272 47 379 -12 q 107 217 165 106 q 49 479 49 328 q 113 735 49 628 q 288 897 176 842 q 539 951 399 951 q 717 932 631 951 q 868 882 803 913 q 853 667 853 794 q 746 651 818 651 q 688 819 740 771 q 540 868 636 868 q 387 819 449 868 q 296 688 325 769 q 267 511 267 607 q 299 288 267 386 q 395 134 332 190 q 546 78 458 78 q 599 81 578 78 q 639 92 619 83 q 674 122 663 101 q 685 193 685 143 l 685 251 q 676 328 685 304 q 647 361 668 353 q 576 372 625 369 q 567 458 567 403 q 749 454 636 454 q 931 457 842 454 q 922 372 931 404 q 884 362 896 369 q 868 333 872 354 q 864 263 864 311 l 864 215 q 868 147 864 172 q 885 94 872 121 q 725 17 818 46 q 524 -12 632 -12 m 350 1011 q 312 1033 328 1015 q 290 1072 296 1051 q 493 1221 415 1149 q 581 1231 525 1231 q 772 1067 653 1154 q 681 1011 736 1022 q 517 1099 592 1065 q 350 1011 388 1036 z "},"Ģ":{"ha":992,"x_min":49,"x_max":931,"o":"m 524 -12 q 272 47 379 -12 q 107 217 165 106 q 49 479 49 328 q 113 735 49 628 q 288 897 176 842 q 539 951 399 951 q 717 932 631 951 q 868 882 803 913 q 853 667 853 794 q 746 651 818 651 q 688 819 740 771 q 540 868 636 868 q 387 819 449 868 q 296 688 325 769 q 267 511 267 607 q 299 288 267 386 q 395 134 332 190 q 546 78 458 78 q 599 81 578 78 q 639 92 619 83 q 674 122 663 101 q 685 193 685 143 l 685 251 q 676 328 685 304 q 647 361 668 353 q 576 372 625 369 q 567 458 567 403 q 749 454 636 454 q 931 457 842 454 q 922 372 931 404 q 884 362 896 369 q 868 333 872 354 q 864 263 864 311 l 864 215 q 868 147 864 172 q 885 94 872 121 q 725 17 818 46 q 524 -12 632 -12 m 578 -56 q 624 -91 610 -65 q 639 -161 639 -117 q 486 -414 639 -307 q 444 -406 464 -414 q 413 -382 424 -397 q 469 -319 450 -350 q 489 -262 489 -289 q 417 -207 489 -215 q 419 -151 414 -182 q 433 -97 424 -121 q 578 -56 524 -90 z "},"Ġ":{"ha":992,"x_min":49,"x_max":931,"o":"m 524 -12 q 272 47 379 -12 q 107 217 165 106 q 49 479 49 328 q 113 735 49 628 q 288 897 176 842 q 539 951 399 951 q 717 932 631 951 q 868 882 803 913 q 853 667 853 794 q 746 651 818 651 q 688 819 740 771 q 540 868 636 868 q 387 819 449 868 q 296 688 325 769 q 267 511 267 607 q 299 288 267 386 q 395 134 332 190 q 546 78 458 78 q 599 81 578 78 q 639 92 619 83 q 674 122 663 101 q 685 193 685 143 l 685 251 q 676 328 685 304 q 647 361 668 353 q 576 372 625 369 q 567 458 567 403 q 749 454 636 454 q 931 457 842 454 q 922 372 931 404 q 884 362 896 369 q 868 333 872 354 q 864 263 864 311 l 864 215 q 868 147 864 172 q 885 94 872 121 q 725 17 818 46 q 524 -12 632 -12 z "},"Ḡ":{"ha":992,"x_min":49,"x_max":931,"o":"m 524 -12 q 272 47 379 -12 q 107 217 165 106 q 49 479 49 328 q 113 735 49 628 q 288 897 176 842 q 539 951 399 951 q 717 932 631 951 q 868 882 803 913 q 853 667 853 794 q 746 651 818 651 q 688 819 740 771 q 540 868 636 868 q 387 819 449 868 q 296 688 325 769 q 267 511 267 607 q 299 288 267 386 q 395 134 332 190 q 546 78 458 78 q 599 81 578 78 q 639 92 619 83 q 674 122 663 101 q 685 193 685 143 l 685 251 q 676 328 685 304 q 647 361 668 353 q 576 372 625 369 q 567 458 567 403 q 749 454 636 454 q 931 457 842 454 q 922 372 931 404 q 884 362 896 369 q 868 333 872 354 q 864 263 864 311 l 864 215 q 868 147 864 172 q 885 94 872 121 q 725 17 818 46 q 524 -12 632 -12 m 794 1135 q 782 1060 794 1093 q 268 1047 529 1060 q 281 1135 268 1104 l 794 1135 z "},"Ǥ":{"ha":992,"x_min":49,"x_max":974,"o":"m 974 281 q 960 183 974 218 q 864 185 921 185 q 871 135 867 154 q 885 94 875 115 q 725 17 818 46 q 524 -12 632 -12 q 272 47 379 -12 q 107 217 165 106 q 49 479 49 328 q 113 735 49 628 q 288 897 176 842 q 539 951 399 951 q 717 932 631 951 q 868 882 803 913 q 853 667 853 794 q 746 651 818 651 q 688 819 740 771 q 540 868 636 868 q 387 819 449 868 q 296 688 325 769 q 267 511 267 607 q 299 288 267 386 q 395 134 332 190 q 546 78 458 78 q 599 81 578 78 q 639 92 619 83 q 673 121 663 101 q 685 185 683 140 l 567 183 l 506 182 q 519 281 506 246 l 685 281 q 672 338 682 319 q 642 363 663 356 q 576 372 621 369 q 567 458 567 403 q 749 454 636 454 q 931 457 842 454 q 922 372 931 404 q 885 363 897 369 q 869 338 874 356 q 864 281 865 319 l 974 281 z "},"Ȝ":{"ha":803,"x_min":65,"x_max":744,"o":"m 439 426 q 661 353 578 425 q 744 146 744 282 q 687 -53 744 35 q 528 -189 629 -140 q 299 -237 426 -237 q 163 -220 224 -237 q 65 -172 101 -203 q 99 -100 68 -129 q 167 -131 121 -118 q 263 -144 213 -144 q 402 -108 342 -144 q 495 -8 463 -72 q 528 139 528 56 q 478 292 528 240 q 338 344 429 344 q 213 321 268 344 q 195 365 200 340 q 193 414 190 390 q 415 522 346 456 q 483 696 483 589 q 445 824 483 781 q 333 867 407 867 q 236 824 268 867 q 188 678 204 782 q 76 697 125 675 q 83 807 83 749 q 79 893 83 850 q 351 951 179 951 q 613 889 525 951 q 700 715 700 826 q 634 549 700 619 q 439 426 568 478 z "},"H":{"ha":1082,"x_min":58,"x_max":1022,"o":"m 919 219 q 928 135 919 163 q 956 95 936 107 q 1014 81 975 83 q 1022 -4 1022 51 q 826 0 950 0 q 610 -4 696 0 q 619 81 610 44 q 678 95 658 83 q 705 135 697 107 q 713 219 713 163 l 713 440 q 369 431 460 440 l 369 219 q 377 135 369 163 q 404 95 385 107 q 463 81 424 83 q 472 -4 472 53 q 276 0 400 0 q 58 -4 144 0 q 69 81 58 39 q 127 95 108 83 q 153 135 146 107 q 161 219 161 163 l 161 721 q 153 805 161 778 q 127 843 146 832 q 69 858 108 854 q 58 943 58 892 q 269 939 131 939 q 472 943 389 939 q 463 858 472 889 q 404 843 424 854 q 377 804 385 832 q 369 721 369 776 l 369 526 l 713 526 l 713 721 q 705 804 713 776 q 678 843 697 832 q 619 858 660 854 q 610 943 610 888 q 819 939 683 939 q 1022 943 939 939 q 1021 894 1022 913 q 1013 858 1019 876 q 954 843 974 854 q 927 804 935 832 q 919 721 919 776 l 919 219 z "},"Ħ":{"ha":1082,"x_min":58,"x_max":1022,"o":"m 919 219 q 928 135 919 163 q 956 95 936 107 q 1014 81 975 83 q 1022 -4 1022 51 q 826 0 950 0 q 610 -4 696 0 q 619 81 610 44 q 678 95 658 83 q 705 135 697 107 q 713 219 713 163 l 713 440 q 369 431 460 440 l 369 219 q 377 135 369 163 q 404 95 385 107 q 463 81 424 83 q 472 -4 472 53 q 276 0 400 0 q 58 -4 144 0 q 69 81 58 39 q 127 95 108 83 q 153 135 146 107 q 161 219 161 163 l 161 624 l 67 622 q 72 669 67 644 q 83 711 76 694 l 161 711 l 161 721 q 153 805 161 778 q 127 843 146 832 q 69 858 108 854 q 58 943 58 892 q 269 939 131 939 q 472 943 389 939 q 463 858 472 889 q 404 843 424 854 q 377 804 385 832 q 369 721 369 776 l 369 711 l 713 711 l 713 721 q 705 804 713 776 q 678 843 697 832 q 619 858 660 854 q 610 943 610 888 q 819 939 683 939 q 1022 943 939 939 q 1021 894 1022 913 q 1013 858 1019 876 q 954 843 974 854 q 927 804 935 832 q 919 721 919 776 l 919 711 l 1014 711 q 997 628 1014 668 l 919 628 l 919 219 m 713 526 l 713 628 l 369 626 l 369 526 l 713 526 z "},"Ḫ":{"ha":1082,"x_min":58,"x_max":1022,"o":"m 919 219 q 928 135 919 163 q 956 95 936 107 q 1014 81 975 83 q 1022 -4 1022 51 q 826 0 950 0 q 610 -4 696 0 q 619 81 610 44 q 678 95 658 83 q 705 135 697 107 q 713 219 713 163 l 713 440 q 369 431 460 440 l 369 219 q 377 135 369 163 q 404 95 385 107 q 463 81 424 83 q 472 -4 472 53 q 276 0 400 0 q 58 -4 144 0 q 69 81 58 39 q 127 95 108 83 q 153 135 146 107 q 161 219 161 163 l 161 721 q 153 805 161 778 q 127 843 146 832 q 69 858 108 854 q 58 943 58 892 q 269 939 131 939 q 472 943 389 939 q 463 858 472 889 q 404 843 424 854 q 377 804 385 832 q 369 721 369 776 l 369 526 l 713 526 l 713 721 q 705 804 713 776 q 678 843 697 832 q 619 858 660 854 q 610 943 610 888 q 819 939 683 939 q 1022 943 939 939 q 1021 894 1022 913 q 1013 858 1019 876 q 954 843 974 854 q 927 804 935 832 q 919 721 919 776 l 919 219 z "},"Ȟ":{"ha":1082,"x_min":58,"x_max":1022,"o":"m 919 219 q 928 135 919 163 q 956 95 936 107 q 1014 81 975 83 q 1022 -4 1022 51 q 826 0 950 0 q 610 -4 696 0 q 619 81 610 44 q 678 95 658 83 q 705 135 697 107 q 713 219 713 163 l 713 440 q 369 431 460 440 l 369 219 q 377 135 369 163 q 404 95 385 107 q 463 81 424 83 q 472 -4 472 53 q 276 0 400 0 q 58 -4 144 0 q 69 81 58 39 q 127 95 108 83 q 153 135 146 107 q 161 219 161 163 l 161 721 q 153 805 161 778 q 127 843 146 832 q 69 858 108 854 q 58 943 58 892 q 269 939 131 939 q 472 943 389 939 q 463 858 472 889 q 404 843 424 854 q 377 804 385 832 q 369 721 369 776 l 369 526 l 713 526 l 713 721 q 705 804 713 776 q 678 843 697 832 q 619 858 660 854 q 610 943 610 888 q 819 939 683 939 q 1022 943 939 939 q 1021 894 1022 913 q 1013 858 1019 876 q 954 843 974 854 q 927 804 935 832 q 919 721 919 776 l 919 219 m 479 1011 q 289 1175 410 1086 q 379 1231 325 1219 q 544 1144 465 1179 q 633 1188 583 1163 q 711 1231 682 1213 q 749 1208 733 1226 q 771 1169 765 1190 q 568 1022 649 1094 q 479 1011 536 1011 z "},"Ĥ":{"ha":1082,"x_min":58,"x_max":1022,"o":"m 919 219 q 928 135 919 163 q 956 95 936 107 q 1014 81 975 83 q 1022 -4 1022 51 q 826 0 950 0 q 610 -4 696 0 q 619 81 610 44 q 678 95 658 83 q 705 135 697 107 q 713 219 713 163 l 713 440 q 369 431 460 440 l 369 219 q 377 135 369 163 q 404 95 385 107 q 463 81 424 83 q 472 -4 472 53 q 276 0 400 0 q 58 -4 144 0 q 69 81 58 39 q 127 95 108 83 q 153 135 146 107 q 161 219 161 163 l 161 721 q 153 805 161 778 q 127 843 146 832 q 69 858 108 854 q 58 943 58 892 q 269 939 131 939 q 472 943 389 939 q 463 858 472 889 q 404 843 424 854 q 377 804 385 832 q 369 721 369 776 l 369 526 l 713 526 l 713 721 q 705 804 713 776 q 678 843 697 832 q 619 858 660 854 q 610 943 610 888 q 819 939 683 939 q 1022 943 939 939 q 1021 894 1022 913 q 1013 858 1019 876 q 954 843 974 854 q 927 804 935 832 q 919 721 919 776 l 919 219 m 358 1011 q 320 1033 336 1015 q 299 1072 304 1051 q 501 1221 424 1149 q 589 1231 533 1231 q 781 1067 661 1154 q 689 1011 744 1022 q 525 1099 600 1065 q 358 1011 396 1036 z "},"Ḥ":{"ha":1082,"x_min":58,"x_max":1022,"o":"m 919 219 q 928 135 919 163 q 956 95 936 107 q 1014 81 975 83 q 1022 -4 1022 51 q 826 0 950 0 q 610 -4 696 0 q 619 81 610 44 q 678 95 658 83 q 705 135 697 107 q 713 219 713 163 l 713 440 q 369 431 460 440 l 369 219 q 377 135 369 163 q 404 95 385 107 q 463 81 424 83 q 472 -4 472 53 q 276 0 400 0 q 58 -4 144 0 q 69 81 58 39 q 127 95 108 83 q 153 135 146 107 q 161 219 161 163 l 161 721 q 153 805 161 778 q 127 843 146 832 q 69 858 108 854 q 58 943 58 892 q 269 939 131 939 q 472 943 389 939 q 463 858 472 889 q 404 843 424 854 q 377 804 385 832 q 369 721 369 776 l 369 526 l 713 526 l 713 721 q 705 804 713 776 q 678 843 697 832 q 619 858 660 854 q 610 943 610 888 q 819 939 683 939 q 1022 943 939 939 q 1021 894 1022 913 q 1013 858 1019 876 q 954 843 974 854 q 927 804 935 832 q 919 721 919 776 l 919 219 m 535 -311 q 453 -283 485 -311 q 422 -214 422 -256 q 456 -137 422 -165 q 540 -108 489 -108 q 627 -136 596 -108 q 658 -212 658 -164 q 624 -283 658 -256 q 535 -311 590 -311 z "},"I":{"ha":531,"x_min":58,"x_max":472,"o":"m 161 721 q 153 805 161 778 q 127 843 146 832 q 69 858 108 854 q 58 943 58 892 q 269 939 131 939 q 472 943 389 939 q 463 858 472 889 q 404 843 424 854 q 377 804 385 832 q 369 721 369 776 l 369 219 q 377 135 369 163 q 404 95 385 107 q 463 81 424 83 q 472 -4 472 53 q 276 0 400 0 q 58 -4 144 0 q 69 81 58 39 q 127 95 108 83 q 153 135 146 107 q 161 219 161 163 l 161 721 z "},"Ĳ":{"ha":960,"x_min":58,"x_max":911,"o":"m 161 721 q 153 805 161 778 q 127 843 146 832 q 69 858 108 854 q 58 943 58 892 q 269 939 131 939 q 472 943 389 939 q 463 858 472 889 q 404 843 424 854 q 377 804 385 832 q 369 721 369 776 l 369 219 q 377 135 369 163 q 404 95 385 107 q 463 81 424 83 q 472 -4 472 53 q 276 0 400 0 q 58 -4 144 0 q 69 81 58 39 q 127 95 108 83 q 153 135 146 107 q 161 219 161 163 l 161 721 m 808 181 q 785 -51 808 40 q 691 -215 761 -143 q 486 -346 621 -287 q 447 -275 454 -324 q 565 -139 529 -212 q 601 68 601 -65 l 601 718 q 594 803 601 775 q 567 843 586 832 q 508 858 547 854 q 499 943 499 888 q 704 939 547 939 q 911 943 863 939 q 901 858 911 889 q 842 843 863 856 q 815 802 822 831 q 808 718 808 774 l 808 181 z "},"Í":{"ha":531,"x_min":58,"x_max":472,"o":"m 161 721 q 153 805 161 778 q 127 843 146 832 q 69 858 108 854 q 58 943 58 892 q 269 939 131 939 q 472 943 389 939 q 463 858 472 889 q 404 843 424 854 q 377 804 385 832 q 369 721 369 776 l 369 219 q 377 135 369 163 q 404 95 385 107 q 463 81 424 83 q 472 -4 472 53 q 276 0 400 0 q 58 -4 144 0 q 69 81 58 39 q 127 95 108 83 q 153 135 146 107 q 161 219 161 163 l 161 721 m 290 1019 q 190 1035 231 1019 q 272 1211 244 1136 q 372 1222 324 1222 q 453 1213 419 1222 q 290 1019 368 1119 z "},"Ĭ":{"ha":531,"x_min":50,"x_max":479,"o":"m 263 990 q 103 1042 157 990 q 50 1196 50 1094 q 118 1210 85 1210 q 139 1208 132 1210 q 183 1133 149 1160 q 276 1107 218 1107 q 368 1133 335 1107 q 404 1208 401 1160 q 431 1210 414 1210 q 479 1201 463 1210 q 263 990 479 990 m 161 721 q 153 805 161 778 q 127 843 146 832 q 69 858 108 854 q 58 943 58 892 q 269 939 131 939 q 472 943 389 939 q 463 858 472 889 q 404 843 424 854 q 377 804 385 832 q 369 721 369 776 l 369 219 q 377 135 369 163 q 404 95 385 107 q 463 81 424 83 q 472 -4 472 53 q 276 0 400 0 q 58 -4 144 0 q 69 81 58 39 q 127 95 108 83 q 153 135 146 107 q 161 219 161 163 l 161 721 z "},"Ǐ":{"ha":531,"x_min":53,"x_max":478,"o":"m 217 985 q 53 1169 158 1056 q 97 1201 69 1188 q 153 1218 125 1214 q 288 1124 204 1175 q 407 1219 360 1169 q 478 1158 457 1203 q 363 1053 428 1115 q 338 1028 351 1042 q 306 999 324 1014 q 217 985 263 985 m 161 721 q 153 805 161 778 q 127 843 146 832 q 69 858 108 854 q 58 943 58 892 q 269 939 131 939 q 472 943 389 939 q 463 858 472 889 q 404 843 424 854 q 377 804 385 832 q 369 721 369 776 l 369 219 q 377 135 369 163 q 404 95 385 107 q 463 81 424 83 q 472 -4 472 53 q 276 0 400 0 q 58 -4 144 0 q 69 81 58 39 q 127 95 108 83 q 153 135 146 107 q 161 219 161 163 l 161 721 z "},"Î":{"ha":531,"x_min":53,"x_max":478,"o":"m 124 985 q 53 1044 74 1001 q 174 1157 83 1069 l 225 1207 q 314 1219 281 1219 q 478 1036 376 1142 q 433 1003 461 1017 q 379 986 406 989 q 243 1079 319 1035 q 124 985 179 1040 m 161 721 q 153 805 161 778 q 127 843 146 832 q 69 858 108 854 q 58 943 58 892 q 269 939 131 939 q 472 943 389 939 q 463 858 472 889 q 404 843 424 854 q 377 804 385 832 q 369 721 369 776 l 369 219 q 377 135 369 163 q 404 95 385 107 q 463 81 424 83 q 472 -4 472 53 q 276 0 400 0 q 58 -4 144 0 q 69 81 58 39 q 127 95 108 83 q 153 135 146 107 q 161 219 161 163 l 161 721 z "},"Ȉ":{"ha":531,"x_min":-17,"x_max":472,"o":"m 161 721 q 153 805 161 778 q 127 843 146 832 q 69 858 108 854 q 58 943 58 892 q 269 939 131 939 q 472 943 389 939 q 463 858 472 889 q 404 843 424 854 q 377 804 385 832 q 369 721 369 776 l 369 219 q 377 135 369 163 q 404 95 385 107 q 463 81 424 83 q 472 -4 472 53 q 276 0 400 0 q 58 -4 144 0 q 69 81 58 39 q 127 95 108 83 q 153 135 146 107 q 161 219 161 163 l 161 721 m 128 997 q -17 1171 46 1106 q 56 1192 13 1186 q 144 1197 99 1199 q 228 1014 178 1100 q 128 997 185 997 m 358 997 q 225 1174 292 1096 q 293 1192 253 1186 q 375 1197 333 1199 q 460 1014 410 1097 q 358 997 414 997 z "},"Ï":{"ha":531,"x_min":28,"x_max":501,"o":"m 135 1004 q 58 1029 88 1004 q 28 1092 28 1054 q 53 1161 28 1133 q 131 1189 79 1189 q 211 1163 185 1189 q 238 1093 238 1136 q 208 1030 238 1056 q 135 1004 178 1004 m 400 1004 q 317 1031 346 1004 q 289 1101 289 1057 q 318 1165 289 1142 q 394 1189 347 1189 q 471 1164 440 1189 q 501 1101 501 1139 q 477 1032 501 1060 q 400 1004 453 1004 m 161 721 q 153 805 161 778 q 127 843 146 832 q 69 858 108 854 q 58 943 58 892 q 269 939 131 939 q 472 943 389 939 q 463 858 472 889 q 404 843 424 854 q 377 804 385 832 q 369 721 369 776 l 369 219 q 377 135 369 163 q 404 95 385 107 q 463 81 424 83 q 472 -4 472 53 q 276 0 400 0 q 58 -4 144 0 q 69 81 58 39 q 127 95 108 83 q 153 135 146 107 q 161 219 161 163 l 161 721 z "},"Ḯ":{"ha":531,"x_min":28,"x_max":501,"o":"m 292 1233 q 190 1249 232 1233 q 272 1425 240 1336 q 372 1436 324 1436 q 453 1426 422 1436 q 292 1233 364 1329 m 135 1004 q 58 1029 88 1004 q 28 1092 28 1054 q 53 1161 28 1133 q 131 1189 79 1189 q 211 1163 185 1189 q 238 1093 238 1136 q 208 1030 238 1056 q 135 1004 178 1004 m 400 1004 q 317 1031 346 1004 q 289 1101 289 1057 q 318 1165 289 1142 q 394 1189 347 1189 q 471 1164 440 1189 q 501 1101 501 1139 q 477 1032 501 1060 q 400 1004 453 1004 m 161 721 q 153 805 161 778 q 127 843 146 832 q 69 858 108 854 q 58 943 58 892 q 269 939 131 939 q 472 943 389 939 q 463 858 472 889 q 404 843 424 854 q 377 804 385 832 q 369 721 369 776 l 369 219 q 377 135 369 163 q 404 95 385 107 q 463 81 424 83 q 472 -4 472 53 q 276 0 400 0 q 58 -4 144 0 q 69 81 58 39 q 127 95 108 83 q 153 135 146 107 q 161 219 161 163 l 161 721 z "},"İ":{"ha":531,"x_min":58,"x_max":472,"o":"m 161 721 q 153 805 161 778 q 127 843 146 832 q 69 858 108 854 q 58 943 58 892 q 269 939 131 939 q 472 943 389 939 q 463 858 472 889 q 404 843 424 854 q 377 804 385 832 q 369 721 369 776 l 369 219 q 377 135 369 163 q 404 95 385 107 q 463 81 424 83 q 472 -4 472 53 q 276 0 400 0 q 58 -4 144 0 q 69 81 58 39 q 127 95 108 83 q 153 135 146 107 q 161 219 161 163 l 161 721 z "},"Ị":{"ha":531,"x_min":58,"x_max":472,"o":"m 161 721 q 153 805 161 778 q 127 843 146 832 q 69 858 108 854 q 58 943 58 892 q 269 939 131 939 q 472 943 389 939 q 463 858 472 889 q 404 843 424 854 q 377 804 385 832 q 369 721 369 776 l 369 219 q 377 135 369 163 q 404 95 385 107 q 463 81 424 83 q 472 -4 472 53 q 276 0 400 0 q 58 -4 144 0 q 69 81 58 39 q 127 95 108 83 q 153 135 146 107 q 161 219 161 163 l 161 721 m 260 -311 q 178 -283 210 -311 q 147 -214 147 -256 q 181 -137 147 -165 q 265 -108 214 -108 q 352 -136 321 -108 q 383 -212 383 -164 q 349 -283 383 -256 q 260 -311 315 -311 z "},"Ì":{"ha":531,"x_min":58,"x_max":472,"o":"m 161 721 q 153 805 161 778 q 127 843 146 832 q 69 858 108 854 q 58 943 58 892 q 269 939 131 939 q 472 943 389 939 q 463 858 472 889 q 404 843 424 854 q 377 804 385 832 q 369 721 369 776 l 369 219 q 377 135 369 163 q 404 95 385 107 q 463 81 424 83 q 472 -4 472 53 q 276 0 400 0 q 58 -4 144 0 q 69 81 58 39 q 127 95 108 83 q 153 135 146 107 q 161 219 161 163 l 161 721 m 235 1019 q 86 1192 157 1124 q 162 1214 117 1207 q 250 1218 207 1221 q 340 1035 293 1113 q 235 1019 301 1019 z "},"Ỉ":{"ha":531,"x_min":58,"x_max":472,"o":"m 161 721 q 153 805 161 778 q 127 843 146 832 q 69 858 108 854 q 58 943 58 892 q 269 939 131 939 q 472 943 389 939 q 463 858 472 889 q 404 843 424 854 q 377 804 385 832 q 369 721 369 776 l 369 219 q 377 135 369 163 q 404 95 385 107 q 463 81 424 83 q 472 -4 472 53 q 276 0 400 0 q 58 -4 144 0 q 69 81 58 39 q 127 95 108 83 q 153 135 146 107 q 161 219 161 163 l 161 721 m 231 1003 q 218 1043 218 1022 q 229 1080 218 1065 q 261 1110 240 1094 q 288 1135 281 1125 q 296 1160 296 1144 q 261 1190 296 1190 q 223 1171 238 1190 q 201 1100 208 1151 q 121 1117 154 1100 q 125 1167 125 1144 q 121 1206 125 1188 q 274 1249 185 1249 q 374 1226 339 1249 q 408 1163 408 1204 q 392 1112 408 1131 q 346 1072 376 1093 q 317 1051 326 1060 q 308 1031 308 1042 q 313 1010 308 1021 q 256 1001 288 1001 q 231 1003 239 1001 z "},"Ȋ":{"ha":531,"x_min":50,"x_max":479,"o":"m 161 721 q 153 805 161 778 q 127 843 146 832 q 69 858 108 854 q 58 943 58 892 q 269 939 131 939 q 472 943 389 939 q 463 858 472 889 q 404 843 424 854 q 377 804 385 832 q 369 721 369 776 l 369 219 q 377 135 369 163 q 404 95 385 107 q 463 81 424 83 q 472 -4 472 53 q 276 0 400 0 q 58 -4 144 0 q 69 81 58 39 q 127 95 108 83 q 153 135 146 107 q 161 219 161 163 l 161 721 m 267 1210 q 426 1158 372 1210 q 479 1004 479 1106 q 411 990 444 990 q 390 992 397 990 q 346 1067 381 1040 q 253 1093 311 1093 q 161 1067 194 1093 q 124 992 128 1040 q 97 990 115 990 q 50 999 67 990 q 267 1210 50 1210 z "},"Ī":{"ha":531,"x_min":44,"x_max":486,"o":"m 44 1042 q 58 1135 44 1106 l 486 1135 q 472 1054 486 1100 q 44 1042 269 1054 m 161 721 q 153 805 161 778 q 127 843 146 832 q 69 858 108 854 q 58 943 58 892 q 269 939 131 939 q 472 943 389 939 q 463 858 472 889 q 404 843 424 854 q 377 804 385 832 q 369 721 369 776 l 369 219 q 377 135 369 163 q 404 95 385 107 q 463 81 424 83 q 472 -4 472 53 q 276 0 400 0 q 58 -4 144 0 q 69 81 58 39 q 127 95 108 83 q 153 135 146 107 q 161 219 161 163 l 161 721 z "},"Į":{"ha":531,"x_min":58,"x_max":472,"o":"m 356 0 q 279 -57 307 -24 q 251 -129 251 -90 q 349 -200 251 -200 q 400 -193 379 -200 q 415 -233 410 -206 q 418 -281 421 -260 q 271 -344 329 -304 q 242 -346 260 -346 q 169 -331 207 -346 q 106 -283 132 -317 q 81 -197 81 -250 q 242 0 81 -76 q 58 -4 132 0 q 69 81 58 39 q 127 95 108 83 q 153 135 146 107 q 161 219 161 163 l 161 721 q 153 805 161 778 q 127 843 146 832 q 69 858 108 854 q 58 943 58 892 q 269 939 131 939 q 472 943 389 939 q 463 858 472 889 q 404 843 424 854 q 377 804 385 832 q 369 721 369 776 l 369 219 q 377 135 369 163 q 404 95 385 107 q 463 81 424 83 q 472 -4 472 53 l 356 0 z "},"Ĩ":{"ha":531,"x_min":36,"x_max":493,"o":"m 336 1013 q 285 1020 306 1013 q 243 1042 265 1028 q 210 1060 224 1054 q 178 1065 197 1065 q 72 1017 128 1065 q 36 1076 40 1040 q 115 1169 75 1142 q 201 1197 156 1197 q 245 1190 228 1197 q 288 1169 263 1183 q 320 1151 307 1157 q 351 1146 333 1146 q 397 1157 374 1146 q 436 1190 419 1168 q 493 1142 478 1175 q 428 1044 465 1075 q 336 1013 390 1013 m 161 721 q 153 805 161 778 q 127 843 146 832 q 69 858 108 854 q 58 943 58 892 q 269 939 131 939 q 472 943 389 939 q 463 858 472 889 q 404 843 424 854 q 377 804 385 832 q 369 721 369 776 l 369 219 q 377 135 369 163 q 404 95 385 107 q 463 81 424 83 q 472 -4 472 53 q 276 0 400 0 q 58 -4 144 0 q 69 81 58 39 q 127 95 108 83 q 153 135 146 107 q 161 219 161 163 l 161 721 z "},"J":{"ha":503,"x_min":-8,"x_max":454,"o":"m 351 181 q 328 -51 351 40 q 234 -215 304 -143 q 29 -346 164 -287 q -8 -275 -4 -322 q 109 -139 74 -212 q 144 68 144 -65 l 144 718 q 137 803 144 775 q 110 843 129 832 q 51 858 90 854 q 42 943 42 888 q 247 939 92 939 q 454 943 406 939 q 444 858 454 885 q 385 843 406 856 q 358 802 365 831 q 351 718 351 774 l 351 181 z "},"Ĵ":{"ha":503,"x_min":-8,"x_max":460,"o":"m 106 985 q 36 1044 54 1001 q 169 1169 68 1072 l 207 1207 q 296 1219 264 1219 q 460 1036 358 1142 q 415 1003 443 1017 q 361 986 388 989 q 225 1079 296 1039 q 106 985 167 1043 m 351 181 q 328 -51 351 40 q 234 -215 304 -143 q 29 -346 164 -287 q -8 -275 -4 -322 q 109 -139 74 -212 q 144 68 144 -65 l 144 718 q 137 803 144 775 q 110 843 129 832 q 51 858 90 854 q 42 943 42 888 q 247 939 92 939 q 454 943 406 939 q 444 858 454 885 q 385 843 406 856 q 358 802 365 831 q 351 718 351 774 l 351 181 z "},"K":{"ha":1006,"x_min":58,"x_max":985,"o":"m 789 222 q 881 119 840 149 q 985 83 921 89 q 972 0 985 31 q 818 -3 907 0 q 683 -11 729 -6 q 544 216 631 92 q 369 435 457 340 l 369 219 q 377 135 369 163 q 404 95 385 107 q 463 81 424 83 q 472 -4 472 53 q 276 0 400 0 q 58 -4 144 0 q 69 81 58 39 q 127 95 108 83 q 153 135 146 107 q 161 219 161 163 l 161 721 q 153 805 161 778 q 127 843 146 832 q 69 858 108 854 q 58 943 58 892 q 269 939 131 939 q 472 943 389 939 q 463 858 472 889 q 404 843 424 854 q 377 804 385 832 q 369 721 369 776 l 369 508 l 593 736 q 651 828 651 796 q 610 858 651 856 q 600 943 600 892 q 751 939 650 939 q 931 943 876 939 q 927 898 931 922 q 918 858 924 874 q 823 831 867 856 q 722 746 779 806 l 536 550 q 789 222 638 436 z "},"Ǩ":{"ha":1006,"x_min":58,"x_max":985,"o":"m 789 222 q 881 119 840 149 q 985 83 921 89 q 972 0 985 31 q 818 -3 907 0 q 683 -11 729 -6 q 544 216 631 92 q 369 435 457 340 l 369 219 q 377 135 369 163 q 404 95 385 107 q 463 81 424 83 q 472 -4 472 53 q 276 0 400 0 q 58 -4 144 0 q 69 81 58 39 q 127 95 108 83 q 153 135 146 107 q 161 219 161 163 l 161 721 q 153 805 161 778 q 127 843 146 832 q 69 858 108 854 q 58 943 58 892 q 269 939 131 939 q 472 943 389 939 q 463 858 472 889 q 404 843 424 854 q 377 804 385 832 q 369 721 369 776 l 369 508 l 593 736 q 651 828 651 796 q 610 858 651 856 q 600 943 600 892 q 751 939 650 939 q 931 943 876 939 q 927 898 931 922 q 918 858 924 874 q 823 831 867 856 q 722 746 779 806 l 536 550 q 789 222 638 436 m 457 1011 q 267 1175 388 1086 q 357 1231 303 1219 q 522 1144 443 1179 q 610 1188 561 1163 q 689 1231 660 1213 q 727 1208 711 1226 q 749 1169 743 1190 q 546 1022 626 1094 q 457 1011 514 1011 z "},"Ķ":{"ha":1006,"x_min":58,"x_max":985,"o":"m 789 222 q 881 119 840 149 q 985 83 921 89 q 972 0 985 31 q 818 -3 907 0 q 683 -11 729 -6 q 544 216 631 92 q 369 435 457 340 l 369 219 q 377 135 369 163 q 404 95 385 107 q 463 81 424 83 q 472 -4 472 53 q 276 0 400 0 q 58 -4 144 0 q 69 81 58 39 q 127 95 108 83 q 153 135 146 107 q 161 219 161 163 l 161 721 q 153 805 161 778 q 127 843 146 832 q 69 858 108 854 q 58 943 58 892 q 269 939 131 939 q 472 943 389 939 q 463 858 472 889 q 404 843 424 854 q 377 804 385 832 q 369 721 369 776 l 369 508 l 593 736 q 651 828 651 796 q 610 858 651 856 q 600 943 600 892 q 751 939 650 939 q 931 943 876 939 q 927 898 931 922 q 918 858 924 874 q 823 831 867 856 q 722 746 779 806 l 536 550 q 789 222 638 436 m 551 -56 q 598 -91 583 -65 q 613 -161 613 -117 q 460 -414 613 -307 q 417 -406 438 -414 q 386 -382 397 -397 q 443 -319 424 -350 q 463 -262 463 -289 q 390 -207 463 -215 q 392 -151 388 -182 q 407 -97 397 -121 q 551 -56 497 -90 z "},"L":{"ha":836,"x_min":58,"x_max":817,"o":"m 503 85 q 638 125 593 85 q 713 267 682 165 q 817 226 785 256 q 774 -3 786 131 q 456 0 635 0 q 58 -4 258 0 q 68 81 58 51 q 127 95 107 83 q 155 137 147 107 q 163 228 163 167 l 163 721 q 155 803 163 776 q 128 842 147 831 q 68 858 108 854 q 60 943 60 883 q 267 939 165 939 q 472 943 389 939 q 471 892 472 911 q 463 858 469 874 q 404 843 424 854 q 377 803 385 832 q 369 718 369 775 l 369 231 q 379 140 369 171 q 414 97 389 110 q 486 85 439 85 l 503 85 z "},"Ǉ":{"ha":1340,"x_min":58,"x_max":1290,"o":"m 503 85 q 638 125 593 85 q 713 267 682 165 q 817 226 785 256 q 774 -3 786 131 q 456 0 635 0 q 58 -4 258 0 q 68 81 58 51 q 127 95 107 83 q 155 137 147 107 q 163 228 163 167 l 163 721 q 155 803 163 776 q 128 842 147 831 q 68 858 108 854 q 60 943 60 883 q 267 939 165 939 q 472 943 389 939 q 471 892 472 911 q 463 858 469 874 q 404 843 424 854 q 377 803 385 832 q 369 718 369 775 l 369 231 q 379 140 369 171 q 414 97 389 110 q 486 85 439 85 l 503 85 m 1188 181 q 1164 -51 1188 40 q 1070 -215 1140 -143 q 865 -346 1000 -287 q 828 -275 832 -322 q 945 -139 910 -212 q 981 68 981 -65 l 981 718 q 973 803 981 775 q 946 843 965 832 q 888 858 926 854 q 878 943 878 888 q 1083 939 928 939 q 1290 943 1242 939 q 1281 858 1290 885 q 1222 843 1242 856 q 1194 802 1201 831 q 1188 718 1188 774 l 1188 181 z "},"Ĺ":{"ha":836,"x_min":58,"x_max":817,"o":"m 503 85 q 638 125 593 85 q 713 267 682 165 q 817 226 785 256 q 774 -3 786 131 q 456 0 635 0 q 58 -4 258 0 q 68 81 58 51 q 127 95 107 83 q 155 137 147 107 q 163 228 163 167 l 163 721 q 155 803 163 776 q 128 842 147 831 q 68 858 108 854 q 60 943 60 883 q 267 939 165 939 q 472 943 389 939 q 471 892 472 911 q 463 858 469 874 q 404 843 424 854 q 377 803 385 832 q 369 718 369 775 l 369 231 q 379 140 369 171 q 414 97 389 110 q 486 85 439 85 l 503 85 m 290 1019 q 190 1035 231 1019 q 272 1211 244 1136 q 372 1222 324 1222 q 453 1213 419 1222 q 290 1019 368 1119 z "},"Ľ":{"ha":836,"x_min":58,"x_max":817,"o":"m 503 85 q 638 125 593 85 q 713 267 682 165 q 817 226 785 256 q 774 -3 786 131 q 456 0 635 0 q 58 -4 258 0 q 68 81 58 51 q 127 95 107 83 q 155 137 147 107 q 163 228 163 167 l 163 721 q 155 803 163 776 q 128 842 147 831 q 68 858 108 854 q 60 943 60 883 q 267 939 165 939 q 472 943 389 939 q 471 892 472 911 q 463 858 469 874 q 404 843 424 854 q 377 803 385 832 q 369 718 369 775 l 369 231 q 379 140 369 171 q 414 97 389 110 q 486 85 439 85 l 503 85 m 803 883 q 678 607 803 732 q 596 629 626 607 q 649 706 635 675 q 663 772 663 736 q 579 839 663 829 q 596 961 579 910 q 740 1004 688 969 q 788 966 774 993 q 803 883 803 939 z "},"Ļ":{"ha":836,"x_min":58,"x_max":817,"o":"m 503 85 q 638 125 593 85 q 713 267 682 165 q 817 226 785 256 q 774 -3 786 131 q 456 0 635 0 q 58 -4 258 0 q 68 81 58 51 q 127 95 107 83 q 155 137 147 107 q 163 228 163 167 l 163 721 q 155 803 163 776 q 128 842 147 831 q 68 858 108 854 q 60 943 60 883 q 267 939 165 939 q 472 943 389 939 q 471 892 472 911 q 463 858 469 874 q 404 843 424 854 q 377 803 385 832 q 369 718 369 775 l 369 231 q 379 140 369 171 q 414 97 389 110 q 486 85 439 85 l 503 85 m 474 -56 q 520 -91 506 -65 q 535 -161 535 -117 q 382 -414 535 -307 q 340 -406 360 -414 q 308 -382 319 -397 q 365 -319 346 -350 q 385 -262 385 -289 q 313 -207 385 -215 q 315 -151 310 -182 q 329 -97 319 -121 q 474 -56 419 -90 z "},"Ŀ":{"ha":836,"x_min":58,"x_max":817,"o":"m 503 85 q 638 125 593 85 q 713 267 682 165 q 817 226 785 256 q 774 -3 786 131 q 456 0 635 0 q 58 -4 258 0 q 68 81 58 51 q 127 95 107 83 q 155 137 147 107 q 163 228 163 167 l 163 721 q 155 803 163 776 q 128 842 147 831 q 68 858 108 854 q 60 943 60 883 q 267 939 165 939 q 472 943 389 939 q 471 892 472 911 q 463 858 469 874 q 404 843 424 854 q 377 803 385 832 q 369 718 369 775 l 369 231 q 379 140 369 171 q 414 97 389 110 q 486 85 439 85 l 503 85 m 685 413 q 619 436 643 413 q 594 499 594 460 q 622 562 594 538 q 690 586 649 586 q 752 561 728 586 q 776 504 776 536 q 751 438 776 463 q 685 413 725 413 z "},"Ḷ":{"ha":836,"x_min":58,"x_max":817,"o":"m 503 85 q 638 125 593 85 q 713 267 682 165 q 817 226 785 256 q 774 -3 786 131 q 456 0 635 0 q 58 -4 258 0 q 68 81 58 51 q 127 95 107 83 q 155 137 147 107 q 163 228 163 167 l 163 721 q 155 803 163 776 q 128 842 147 831 q 68 858 108 854 q 60 943 60 883 q 267 939 165 939 q 472 943 389 939 q 471 892 472 911 q 463 858 469 874 q 404 843 424 854 q 377 803 385 832 q 369 718 369 775 l 369 231 q 379 140 369 171 q 414 97 389 110 q 486 85 439 85 l 503 85 m 419 -311 q 338 -283 369 -311 q 307 -214 307 -256 q 340 -137 307 -165 q 425 -108 374 -108 q 512 -136 481 -108 q 543 -212 543 -164 q 509 -283 543 -256 q 419 -311 475 -311 z "},"ǈ":{"ha":1267,"x_min":58,"x_max":1188,"o":"m 503 85 q 638 125 593 85 q 713 267 682 165 q 817 226 785 256 q 774 -3 786 131 q 456 0 635 0 q 58 -4 258 0 q 68 81 58 51 q 127 95 107 83 q 155 137 147 107 q 163 228 163 167 l 163 721 q 155 803 163 776 q 128 842 147 831 q 68 858 108 854 q 60 943 60 883 q 267 939 165 939 q 472 943 389 939 q 471 892 472 911 q 463 858 469 874 q 404 843 424 854 q 377 803 385 832 q 369 718 369 775 l 369 231 q 379 140 369 171 q 414 97 389 110 q 486 85 439 85 l 503 85 m 1065 758 q 983 785 1014 758 q 951 856 951 813 q 985 933 951 904 q 1069 961 1019 961 q 1157 934 1126 961 q 1188 857 1188 907 q 1153 787 1188 815 q 1065 758 1119 758 m 904 -346 q 872 -317 885 -336 q 856 -274 858 -297 q 956 -128 929 -194 q 983 39 983 -61 l 983 425 q 963 499 983 478 q 879 524 943 521 q 894 603 879 574 q 1035 617 961 603 q 1140 649 1110 632 q 1181 575 1181 632 l 1181 82 q 1097 -179 1181 -69 q 904 -346 1014 -289 z "},"Ḻ":{"ha":836,"x_min":58,"x_max":817,"o":"m 503 85 q 638 125 593 85 q 713 267 682 165 q 817 226 785 256 q 774 -3 786 131 q 456 0 635 0 q 58 -4 258 0 q 68 81 58 51 q 127 95 107 83 q 155 137 147 107 q 163 228 163 167 l 163 721 q 155 803 163 776 q 128 842 147 831 q 68 858 108 854 q 60 943 60 883 q 267 939 165 939 q 472 943 389 939 q 471 892 472 911 q 463 858 469 874 q 404 843 424 854 q 377 803 385 832 q 369 718 369 775 l 369 231 q 379 140 369 171 q 414 97 389 110 q 486 85 439 85 l 503 85 m 165 -224 q 178 -143 165 -172 l 685 -143 q 672 -214 685 -183 q 165 -224 415 -214 z "},"Ł":{"ha":836,"x_min":24,"x_max":817,"o":"m 713 267 q 817 226 785 256 q 774 -3 786 131 q 456 0 635 0 q 58 -4 258 0 q 68 81 58 51 q 127 95 107 83 q 155 137 147 107 q 163 228 163 167 l 163 342 l 63 275 q 37 325 47 299 q 24 369 26 351 l 163 460 l 163 721 q 155 803 163 776 q 128 842 147 831 q 68 858 108 854 q 60 943 60 883 q 267 939 165 939 q 472 943 389 939 q 471 892 472 911 q 463 858 469 874 q 404 843 424 854 q 377 803 385 832 q 369 718 369 775 l 369 565 l 479 635 q 503 589 493 614 q 515 544 513 564 l 369 450 l 369 231 q 379 140 369 171 q 414 97 389 110 q 486 85 439 85 l 503 85 q 638 125 593 85 q 713 267 682 165 z "},"M":{"ha":1342,"x_min":31,"x_max":1311,"o":"m 1303 82 q 1311 -4 1311 51 q 1090 0 1253 0 q 897 -4 1018 0 q 908 81 897 40 q 978 104 960 86 q 996 171 996 122 q 990 249 996 185 l 944 676 l 672 -1 q 590 -12 644 -12 l 283 672 l 244 296 q 239 207 239 250 q 260 111 239 138 q 331 81 281 85 q 339 -4 339 50 q 189 0 285 0 q 31 -4 126 0 q 40 81 31 51 q 99 102 78 83 q 135 167 121 121 q 156 299 149 213 l 193 711 q 196 758 196 747 q 176 837 196 815 q 104 858 156 858 q 94 943 94 888 q 246 939 147 939 q 396 943 347 939 l 693 263 l 950 943 q 1107 939 1013 939 q 1256 943 1194 939 q 1246 858 1256 892 q 1174 835 1196 858 q 1151 751 1151 811 q 1154 707 1151 740 l 1199 264 q 1217 150 1207 186 q 1247 100 1228 114 q 1303 82 1265 86 z "},"Ṃ":{"ha":1342,"x_min":31,"x_max":1311,"o":"m 1303 82 q 1311 -4 1311 51 q 1090 0 1253 0 q 897 -4 1018 0 q 908 81 897 40 q 978 104 960 86 q 996 171 996 122 q 990 249 996 185 l 944 676 l 672 -1 q 590 -12 644 -12 l 283 672 l 244 296 q 239 207 239 250 q 260 111 239 138 q 331 81 281 85 q 339 -4 339 50 q 189 0 285 0 q 31 -4 126 0 q 40 81 31 51 q 99 102 78 83 q 135 167 121 121 q 156 299 149 213 l 193 711 q 196 758 196 747 q 176 837 196 815 q 104 858 156 858 q 94 943 94 888 q 246 939 147 939 q 396 943 347 939 l 693 263 l 950 943 q 1107 939 1013 939 q 1256 943 1194 939 q 1246 858 1256 892 q 1174 835 1196 858 q 1151 751 1151 811 q 1154 707 1151 740 l 1199 264 q 1217 150 1207 186 q 1247 100 1228 114 q 1303 82 1265 86 m 621 -311 q 540 -283 571 -311 q 508 -214 508 -256 q 542 -137 508 -165 q 626 -108 575 -108 q 713 -136 682 -108 q 744 -212 744 -164 q 710 -283 744 -256 q 621 -311 676 -311 z "},"N":{"ha":1008,"x_min":49,"x_max":960,"o":"m 819 939 q 960 943 906 939 q 951 858 960 892 q 899 839 917 856 q 873 781 881 822 q 865 660 865 740 l 865 0 q 771 -11 831 -11 l 250 682 l 250 282 q 258 160 250 201 q 288 101 267 118 q 353 81 310 83 q 361 -4 361 53 q 208 0 301 0 q 49 -4 99 0 q 57 81 49 53 q 121 101 99 83 q 152 160 143 118 q 161 282 161 203 l 161 800 l 149 817 q 115 846 133 838 q 57 858 97 854 q 49 943 49 889 q 193 939 97 939 q 319 943 289 939 l 778 326 l 778 660 q 769 781 778 740 q 738 838 761 821 q 671 858 715 856 q 661 943 661 896 q 819 939 721 939 z "},"Ǌ":{"ha":1511,"x_min":49,"x_max":1463,"o":"m 819 939 q 960 943 906 939 q 951 858 960 892 q 899 839 917 856 q 873 781 881 822 q 865 660 865 740 l 865 0 q 771 -11 831 -11 l 250 682 l 250 282 q 258 160 250 201 q 288 101 267 118 q 353 81 310 83 q 361 -4 361 53 q 208 0 301 0 q 49 -4 99 0 q 57 81 49 53 q 121 101 99 83 q 152 160 143 118 q 161 282 161 203 l 161 800 l 149 817 q 115 846 133 838 q 57 858 97 854 q 49 943 49 889 q 193 939 97 939 q 319 943 289 939 l 778 326 l 778 660 q 769 781 778 740 q 738 838 761 821 q 671 858 715 856 q 661 943 661 896 q 819 939 721 939 m 1360 181 q 1336 -51 1360 40 q 1242 -215 1313 -143 q 1038 -346 1172 -287 q 1000 -275 1004 -322 q 1117 -139 1082 -212 q 1153 68 1153 -65 l 1153 718 q 1145 803 1153 775 q 1118 843 1138 832 q 1060 858 1099 854 q 1050 943 1050 888 q 1256 939 1100 939 q 1463 943 1414 939 q 1453 858 1463 885 q 1394 843 1414 856 q 1367 802 1374 831 q 1360 718 1360 774 l 1360 181 z "},"Ń":{"ha":1008,"x_min":49,"x_max":960,"o":"m 819 939 q 960 943 906 939 q 951 858 960 892 q 899 839 917 856 q 873 781 881 822 q 865 660 865 740 l 865 0 q 771 -11 831 -11 l 250 682 l 250 282 q 258 160 250 201 q 288 101 267 118 q 353 81 310 83 q 361 -4 361 53 q 208 0 301 0 q 49 -4 99 0 q 57 81 49 53 q 121 101 99 83 q 152 160 143 118 q 161 282 161 203 l 161 800 l 149 817 q 115 846 133 838 q 57 858 97 854 q 49 943 49 889 q 193 939 97 939 q 319 943 289 939 l 778 326 l 778 660 q 769 781 778 740 q 738 838 761 821 q 671 858 715 856 q 661 943 661 896 q 819 939 721 939 m 535 1019 q 435 1035 475 1019 q 517 1211 489 1136 q 617 1222 568 1222 q 697 1213 664 1222 q 535 1019 613 1119 z "},"Ň":{"ha":1008,"x_min":49,"x_max":960,"o":"m 819 939 q 960 943 906 939 q 951 858 960 892 q 899 839 917 856 q 873 781 881 822 q 865 660 865 740 l 865 0 q 771 -11 831 -11 l 250 682 l 250 282 q 258 160 250 201 q 288 101 267 118 q 353 81 310 83 q 361 -4 361 53 q 208 0 301 0 q 49 -4 99 0 q 57 81 49 53 q 121 101 99 83 q 152 160 143 118 q 161 282 161 203 l 161 800 l 149 817 q 115 846 133 838 q 57 858 97 854 q 49 943 49 889 q 193 939 97 939 q 319 943 289 939 l 778 326 l 778 660 q 769 781 778 740 q 738 838 761 821 q 671 858 715 856 q 661 943 661 896 q 819 939 721 939 m 449 1011 q 258 1175 379 1086 q 349 1231 294 1219 q 514 1144 435 1179 q 602 1188 553 1163 q 681 1231 651 1213 q 719 1208 703 1226 q 740 1169 735 1190 q 538 1022 618 1094 q 449 1011 506 1011 z "},"Ņ":{"ha":1008,"x_min":49,"x_max":960,"o":"m 819 939 q 960 943 906 939 q 951 858 960 892 q 899 839 917 856 q 873 781 881 822 q 865 660 865 740 l 865 0 q 771 -11 831 -11 l 250 682 l 250 282 q 258 160 250 201 q 288 101 267 118 q 353 81 310 83 q 361 -4 361 53 q 208 0 301 0 q 49 -4 99 0 q 57 81 49 53 q 121 101 99 83 q 152 160 143 118 q 161 282 161 203 l 161 800 l 149 817 q 115 846 133 838 q 57 858 97 854 q 49 943 49 889 q 193 939 97 939 q 319 943 289 939 l 778 326 l 778 660 q 769 781 778 740 q 738 838 761 821 q 671 858 715 856 q 661 943 661 896 q 819 939 721 939 m 594 -56 q 641 -91 626 -65 q 656 -161 656 -117 q 503 -414 656 -307 q 460 -406 481 -414 q 429 -382 440 -397 q 486 -319 467 -350 q 506 -262 506 -289 q 433 -207 506 -215 q 435 -151 431 -182 q 450 -97 440 -121 q 594 -56 540 -90 z "},"Ṅ":{"ha":1008,"x_min":49,"x_max":960,"o":"m 819 939 q 960 943 906 939 q 951 858 960 892 q 899 839 917 856 q 873 781 881 822 q 865 660 865 740 l 865 0 q 771 -11 831 -11 l 250 682 l 250 282 q 258 160 250 201 q 288 101 267 118 q 353 81 310 83 q 361 -4 361 53 q 208 0 301 0 q 49 -4 99 0 q 57 81 49 53 q 121 101 99 83 q 152 160 143 118 q 161 282 161 203 l 161 800 l 149 817 q 115 846 133 838 q 57 858 97 854 q 49 943 49 889 q 193 939 97 939 q 319 943 289 939 l 778 326 l 778 660 q 769 781 778 740 q 738 838 761 821 q 671 858 715 856 q 661 943 661 896 q 819 939 721 939 z "},"Ṇ":{"ha":1008,"x_min":49,"x_max":960,"o":"m 819 939 q 960 943 906 939 q 951 858 960 892 q 899 839 917 856 q 873 781 881 822 q 865 660 865 740 l 865 0 q 771 -11 831 -11 l 250 682 l 250 282 q 258 160 250 201 q 288 101 267 118 q 353 81 310 83 q 361 -4 361 53 q 208 0 301 0 q 49 -4 99 0 q 57 81 49 53 q 121 101 99 83 q 152 160 143 118 q 161 282 161 203 l 161 800 l 149 817 q 115 846 133 838 q 57 858 97 854 q 49 943 49 889 q 193 939 97 939 q 319 943 289 939 l 778 326 l 778 660 q 769 781 778 740 q 738 838 761 821 q 671 858 715 856 q 661 943 661 896 q 819 939 721 939 m 540 -311 q 459 -283 490 -311 q 428 -214 428 -256 q 461 -137 428 -165 q 546 -108 494 -108 q 633 -136 601 -108 q 664 -212 664 -164 q 630 -283 664 -256 q 540 -311 596 -311 z "},"Ŋ":{"ha":961,"x_min":60,"x_max":901,"o":"m 578 -346 q 499 -330 535 -346 q 446 -292 464 -314 q 443 -257 443 -272 q 456 -165 443 -203 q 515 -177 481 -172 q 576 -182 549 -182 q 654 -160 629 -182 q 687 -92 679 -137 q 694 44 694 -46 l 694 607 q 661 769 694 721 q 561 818 628 818 q 422 747 474 818 q 369 540 369 676 l 369 219 q 378 135 369 163 q 406 95 386 107 q 464 81 425 83 q 472 -4 472 51 q 276 0 400 0 q 60 -4 146 0 q 71 81 60 47 q 128 95 110 83 q 155 135 147 107 q 163 219 163 163 l 163 714 q 156 778 163 757 q 127 811 149 800 q 61 825 106 822 q 76 904 61 876 q 222 919 151 906 q 331 951 293 933 q 369 875 369 935 q 357 772 369 850 l 358 772 q 466 901 390 856 q 643 946 542 946 q 831 878 761 946 q 901 669 901 811 l 901 150 q 858 -97 901 17 q 740 -278 814 -211 q 578 -346 665 -346 z "},"Ɲ":{"ha":1008,"x_min":-167,"x_max":960,"o":"m 819 939 q 960 943 906 939 q 951 858 960 892 q 899 839 917 856 q 873 781 881 822 q 865 660 865 740 l 865 -3 q 772 -12 835 -12 l 250 682 l 250 94 q 215 -140 250 -40 q 118 -292 181 -239 q -28 -346 56 -346 q -108 -330 -74 -346 q -164 -292 -143 -314 q -167 -258 -167 -272 q -153 -165 -167 -207 q -32 -182 -89 -182 q 114 -119 67 -182 q 161 79 161 -57 l 161 800 l 149 817 q 115 846 133 838 q 57 858 97 854 q 49 943 49 889 q 193 939 97 939 q 319 943 289 939 l 778 326 l 778 660 q 769 781 778 740 q 738 838 761 821 q 671 858 715 856 q 661 943 661 896 q 819 939 721 939 z "},"ǋ":{"ha":1439,"x_min":49,"x_max":1360,"o":"m 819 939 q 960 943 906 939 q 951 858 960 892 q 899 839 917 856 q 873 781 881 822 q 865 660 865 740 l 865 0 q 771 -11 831 -11 l 250 682 l 250 282 q 258 160 250 201 q 288 101 267 118 q 353 81 310 83 q 361 -4 361 53 q 208 0 301 0 q 49 -4 99 0 q 57 81 49 53 q 121 101 99 83 q 152 160 143 118 q 161 282 161 203 l 161 800 l 149 817 q 115 846 133 838 q 57 858 97 854 q 49 943 49 889 q 193 939 97 939 q 319 943 289 939 l 778 326 l 778 660 q 769 781 778 740 q 738 838 761 821 q 671 858 715 856 q 661 943 661 896 q 819 939 721 939 m 1238 758 q 1155 785 1186 758 q 1124 856 1124 813 q 1158 933 1124 904 q 1242 961 1192 961 q 1329 934 1299 961 q 1360 857 1360 907 q 1326 787 1360 815 q 1238 758 1292 758 m 1076 -346 q 1044 -317 1057 -336 q 1028 -274 1031 -297 q 1128 -128 1101 -194 q 1156 39 1156 -61 l 1156 425 q 1135 499 1156 478 q 1051 524 1115 521 q 1067 603 1051 574 q 1208 617 1133 603 q 1313 649 1282 632 q 1353 575 1353 632 l 1353 82 q 1269 -179 1353 -69 q 1076 -346 1186 -289 z "},"Ṉ":{"ha":1008,"x_min":49,"x_max":960,"o":"m 819 939 q 960 943 906 939 q 951 858 960 892 q 899 839 917 856 q 873 781 881 822 q 865 660 865 740 l 865 0 q 771 -11 831 -11 l 250 682 l 250 282 q 258 160 250 201 q 288 101 267 118 q 353 81 310 83 q 361 -4 361 53 q 208 0 301 0 q 49 -4 99 0 q 57 81 49 53 q 121 101 99 83 q 152 160 143 118 q 161 282 161 203 l 161 800 l 149 817 q 115 846 133 838 q 57 858 97 854 q 49 943 49 889 q 193 939 97 939 q 319 943 289 939 l 778 326 l 778 660 q 769 781 778 740 q 738 838 761 821 q 671 858 715 856 q 661 943 661 896 q 819 939 721 939 m 288 -224 q 300 -143 288 -172 l 807 -143 q 794 -214 807 -183 q 288 -224 538 -214 z "},"Ñ":{"ha":1008,"x_min":49,"x_max":960,"o":"m 819 939 q 960 943 906 939 q 951 858 960 892 q 899 839 917 856 q 873 781 881 822 q 865 660 865 740 l 865 0 q 771 -11 831 -11 l 250 682 l 250 282 q 258 160 250 201 q 288 101 267 118 q 353 81 310 83 q 361 -4 361 53 q 208 0 301 0 q 49 -4 99 0 q 57 81 49 53 q 121 101 99 83 q 152 160 143 118 q 161 282 161 203 l 161 800 l 149 817 q 115 846 133 838 q 57 858 97 854 q 49 943 49 889 q 193 939 97 939 q 319 943 289 939 l 778 326 l 778 660 q 769 781 778 740 q 738 838 761 821 q 671 858 715 856 q 661 943 661 896 q 819 939 721 939 m 583 1029 q 531 1037 553 1029 q 476 1061 510 1044 q 431 1082 449 1075 q 392 1089 414 1089 q 289 1033 338 1089 q 253 1108 254 1064 q 338 1183 290 1160 q 432 1206 385 1206 q 488 1197 463 1206 q 542 1175 513 1189 q 588 1156 572 1161 q 624 1150 604 1150 q 706 1196 669 1150 q 769 1163 747 1189 q 688 1063 735 1097 q 583 1029 640 1029 z "},"O":{"ha":1038,"x_min":49,"x_max":989,"o":"m 518 -12 q 270 49 376 -12 q 106 222 164 111 q 49 474 49 332 q 109 724 49 615 q 276 892 169 832 q 518 951 383 951 q 763 893 656 951 q 929 728 869 835 q 989 482 989 621 q 930 228 989 340 q 764 51 871 115 q 518 -12 657 -12 m 540 76 q 663 124 611 76 q 743 256 715 171 q 771 450 771 340 q 735 660 771 565 q 638 810 700 754 q 494 865 575 865 q 374 822 426 865 q 294 698 322 779 q 265 508 265 617 q 297 293 265 392 q 390 135 328 194 q 540 76 453 76 z "},"Ó":{"ha":1038,"x_min":49,"x_max":989,"o":"m 518 -12 q 270 49 376 -12 q 106 222 164 111 q 49 474 49 332 q 109 724 49 615 q 276 892 169 832 q 518 951 383 951 q 763 893 656 951 q 929 728 869 835 q 989 482 989 621 q 930 228 989 340 q 764 51 871 115 q 518 -12 657 -12 m 540 76 q 663 124 611 76 q 743 256 715 171 q 771 450 771 340 q 735 660 771 565 q 638 810 700 754 q 494 865 575 865 q 374 822 426 865 q 294 698 322 779 q 265 508 265 617 q 297 293 265 392 q 390 135 328 194 q 540 76 453 76 m 544 1019 q 444 1035 485 1019 q 526 1211 499 1136 q 626 1222 578 1222 q 707 1213 674 1222 q 544 1019 622 1119 z "},"Ŏ":{"ha":1038,"x_min":49,"x_max":989,"o":"m 518 -12 q 270 49 376 -12 q 106 222 164 111 q 49 474 49 332 q 109 724 49 615 q 276 892 169 832 q 518 951 383 951 q 763 893 656 951 q 929 728 869 835 q 989 482 989 621 q 930 228 989 340 q 764 51 871 115 q 518 -12 657 -12 m 540 76 q 663 124 611 76 q 743 256 715 171 q 771 450 771 340 q 735 660 771 565 q 638 810 700 754 q 494 865 575 865 q 374 822 426 865 q 294 698 322 779 q 265 508 265 617 q 297 293 265 392 q 390 135 328 194 q 540 76 453 76 m 750 1204 q 690 1056 750 1107 q 517 1006 631 1006 q 347 1055 406 1006 q 289 1199 289 1104 q 369 1214 324 1214 q 394 1213 386 1214 q 438 1147 401 1169 q 532 1124 474 1124 q 623 1147 589 1124 q 660 1213 657 1169 q 690 1215 679 1215 q 750 1204 724 1215 z "},"Ǒ":{"ha":1038,"x_min":49,"x_max":989,"o":"m 518 -12 q 270 49 376 -12 q 106 222 164 111 q 49 474 49 332 q 109 724 49 615 q 276 892 169 832 q 518 951 383 951 q 763 893 656 951 q 929 728 869 835 q 989 482 989 621 q 930 228 989 340 q 764 51 871 115 q 518 -12 657 -12 m 540 76 q 663 124 611 76 q 743 256 715 171 q 771 450 771 340 q 735 660 771 565 q 638 810 700 754 q 494 865 575 865 q 374 822 426 865 q 294 698 322 779 q 265 508 265 617 q 297 293 265 392 q 390 135 328 194 q 540 76 453 76 m 457 1011 q 267 1175 388 1086 q 357 1231 303 1219 q 522 1144 443 1179 q 610 1188 561 1163 q 689 1231 660 1213 q 727 1208 711 1226 q 749 1169 743 1190 q 546 1022 626 1094 q 457 1011 514 1011 z "},"Ô":{"ha":1038,"x_min":49,"x_max":989,"o":"m 518 -12 q 270 49 376 -12 q 106 222 164 111 q 49 474 49 332 q 109 724 49 615 q 276 892 169 832 q 518 951 383 951 q 763 893 656 951 q 929 728 869 835 q 989 482 989 621 q 930 228 989 340 q 764 51 871 115 q 518 -12 657 -12 m 540 76 q 663 124 611 76 q 743 256 715 171 q 771 450 771 340 q 735 660 771 565 q 638 810 700 754 q 494 865 575 865 q 374 822 426 865 q 294 698 322 779 q 265 508 265 617 q 297 293 265 392 q 390 135 328 194 q 540 76 453 76 m 338 1011 q 299 1033 315 1015 q 278 1072 283 1051 q 481 1221 403 1149 q 568 1231 513 1231 q 760 1067 640 1154 q 668 1011 724 1022 q 504 1099 579 1065 q 338 1011 375 1036 z "},"Ố":{"ha":1038,"x_min":49,"x_max":989,"o":"m 518 -12 q 270 49 376 -12 q 106 222 164 111 q 49 474 49 332 q 109 724 49 615 q 276 892 169 832 q 518 951 383 951 q 763 893 656 951 q 929 728 869 835 q 989 482 989 621 q 930 228 989 340 q 764 51 871 115 q 518 -12 657 -12 m 540 76 q 663 124 611 76 q 743 256 715 171 q 771 450 771 340 q 735 660 771 565 q 638 810 700 754 q 494 865 575 865 q 374 822 426 865 q 294 698 322 779 q 265 508 265 617 q 297 293 265 392 q 390 135 328 194 q 540 76 453 76 m 763 1193 q 671 1208 713 1193 q 744 1369 721 1301 q 838 1381 793 1381 q 911 1371 882 1381 q 763 1193 828 1278 m 338 1011 q 299 1033 315 1015 q 278 1072 283 1051 q 481 1221 403 1149 q 568 1231 513 1231 q 760 1067 640 1154 q 668 1011 724 1022 q 504 1099 579 1065 q 338 1011 375 1036 z "},"Ộ":{"ha":1038,"x_min":49,"x_max":989,"o":"m 518 -12 q 270 49 376 -12 q 106 222 164 111 q 49 474 49 332 q 109 724 49 615 q 276 892 169 832 q 518 951 383 951 q 763 893 656 951 q 929 728 869 835 q 989 482 989 621 q 930 228 989 340 q 764 51 871 115 q 518 -12 657 -12 m 540 76 q 663 124 611 76 q 743 256 715 171 q 771 450 771 340 q 735 660 771 565 q 638 810 700 754 q 494 865 575 865 q 374 822 426 865 q 294 698 322 779 q 265 508 265 617 q 297 293 265 392 q 390 135 328 194 q 540 76 453 76 m 513 -311 q 431 -283 463 -311 q 400 -214 400 -256 q 433 -137 400 -165 q 518 -108 467 -108 q 605 -136 574 -108 q 636 -212 636 -164 q 602 -283 636 -256 q 513 -311 568 -311 m 338 1011 q 299 1033 315 1015 q 278 1072 283 1051 q 481 1221 403 1149 q 568 1231 513 1231 q 760 1067 640 1154 q 668 1011 724 1022 q 504 1099 579 1065 q 338 1011 375 1036 z "},"Ồ":{"ha":1038,"x_min":49,"x_max":989,"o":"m 518 -12 q 270 49 376 -12 q 106 222 164 111 q 49 474 49 332 q 109 724 49 615 q 276 892 169 832 q 518 951 383 951 q 763 893 656 951 q 929 728 869 835 q 989 482 989 621 q 930 228 989 340 q 764 51 871 115 q 518 -12 657 -12 m 540 76 q 663 124 611 76 q 743 256 715 171 q 771 450 771 340 q 735 660 771 565 q 638 810 700 754 q 494 865 575 865 q 374 822 426 865 q 294 698 322 779 q 265 508 265 617 q 297 293 265 392 q 390 135 328 194 q 540 76 453 76 z "},"Ổ":{"ha":1038,"x_min":49,"x_max":989,"o":"m 518 -12 q 270 49 376 -12 q 106 222 164 111 q 49 474 49 332 q 109 724 49 615 q 276 892 169 832 q 518 951 383 951 q 763 893 656 951 q 929 728 869 835 q 989 482 989 621 q 930 228 989 340 q 764 51 871 115 q 518 -12 657 -12 m 540 76 q 663 124 611 76 q 743 256 715 171 q 771 450 771 340 q 735 660 771 565 q 638 810 700 754 q 494 865 575 865 q 374 822 426 865 q 294 698 322 779 q 265 508 265 617 q 297 293 265 392 q 390 135 328 194 q 540 76 453 76 m 338 1011 q 299 1033 315 1015 q 278 1072 283 1051 q 481 1221 403 1149 q 568 1231 513 1231 q 760 1067 640 1154 q 668 1011 724 1022 q 504 1099 579 1065 q 338 1011 375 1036 m 686 1201 q 674 1242 674 1221 q 685 1278 674 1264 q 717 1308 696 1293 q 744 1333 736 1324 q 751 1358 751 1343 q 717 1389 751 1389 q 678 1369 693 1389 q 657 1299 664 1350 q 576 1315 610 1299 q 581 1365 581 1343 q 576 1404 581 1386 q 729 1447 640 1447 q 829 1425 794 1447 q 864 1361 864 1403 q 848 1310 864 1329 q 801 1271 832 1292 q 773 1249 782 1258 q 764 1229 764 1240 q 768 1208 764 1219 q 711 1200 743 1200 q 686 1201 694 1200 z "},"Ỗ":{"ha":1038,"x_min":49,"x_max":989,"o":"m 518 -12 q 270 49 376 -12 q 106 222 164 111 q 49 474 49 332 q 109 724 49 615 q 276 892 169 832 q 518 951 383 951 q 763 893 656 951 q 929 728 869 835 q 989 482 989 621 q 930 228 989 340 q 764 51 871 115 q 518 -12 657 -12 m 540 76 q 663 124 611 76 q 743 256 715 171 q 771 450 771 340 q 735 660 771 565 q 638 810 700 754 q 494 865 575 865 q 374 822 426 865 q 294 698 322 779 q 265 508 265 617 q 297 293 265 392 q 390 135 328 194 q 540 76 453 76 m 338 1011 q 299 1033 315 1015 q 278 1072 283 1051 q 481 1221 403 1149 q 568 1231 513 1231 q 760 1067 640 1154 q 668 1011 724 1022 q 504 1099 579 1065 q 338 1011 375 1036 m 592 1293 q 540 1301 561 1293 q 485 1325 518 1308 q 440 1346 457 1339 q 400 1353 422 1353 q 297 1297 346 1353 q 261 1372 263 1328 q 346 1447 299 1424 q 440 1469 393 1469 q 496 1461 471 1469 q 550 1439 521 1453 q 597 1419 581 1425 q 632 1414 613 1414 q 714 1460 678 1414 q 778 1426 756 1453 q 696 1327 743 1361 q 592 1293 649 1293 z "},"Ȍ":{"ha":1038,"x_min":49,"x_max":989,"o":"m 518 -12 q 270 49 376 -12 q 106 222 164 111 q 49 474 49 332 q 109 724 49 615 q 276 892 169 832 q 518 951 383 951 q 763 893 656 951 q 929 728 869 835 q 989 482 989 621 q 930 228 989 340 q 764 51 871 115 q 518 -12 657 -12 m 540 76 q 663 124 611 76 q 743 256 715 171 q 771 450 771 340 q 735 660 771 565 q 638 810 700 754 q 494 865 575 865 q 374 822 426 865 q 294 698 322 779 q 265 508 265 617 q 297 293 265 392 q 390 135 328 194 q 540 76 453 76 m 368 997 q 214 1171 281 1106 q 288 1192 244 1186 q 378 1197 332 1199 q 468 1014 421 1092 q 368 997 425 997 m 613 997 q 465 1174 539 1096 q 538 1192 494 1186 q 622 1197 581 1199 q 713 1014 665 1092 q 613 997 669 997 z "},"Ö":{"ha":1038,"x_min":49,"x_max":989,"o":"m 518 -12 q 270 49 376 -12 q 106 222 164 111 q 49 474 49 332 q 109 724 49 615 q 276 892 169 832 q 518 951 383 951 q 763 893 656 951 q 929 728 869 835 q 989 482 989 621 q 930 228 989 340 q 764 51 871 115 q 518 -12 657 -12 m 540 76 q 663 124 611 76 q 743 256 715 171 q 771 450 771 340 q 735 660 771 565 q 638 810 700 754 q 494 865 575 865 q 374 822 426 865 q 294 698 322 779 q 265 508 265 617 q 297 293 265 392 q 390 135 328 194 q 540 76 453 76 z "},"Ȫ":{"ha":1038,"x_min":49,"x_max":989,"o":"m 518 -12 q 270 49 376 -12 q 106 222 164 111 q 49 474 49 332 q 109 724 49 615 q 276 892 169 832 q 518 951 383 951 q 763 893 656 951 q 929 728 869 835 q 989 482 989 621 q 930 228 989 340 q 764 51 871 115 q 518 -12 657 -12 m 540 76 q 663 124 611 76 q 743 256 715 171 q 771 450 771 340 q 735 660 771 565 q 638 810 700 754 q 494 865 575 865 q 374 822 426 865 q 294 698 322 779 q 265 508 265 617 q 297 293 265 392 q 390 135 328 194 q 540 76 453 76 m 782 1376 q 769 1301 782 1335 q 256 1289 517 1301 q 268 1376 256 1346 l 782 1376 z "},"Ȱ":{"ha":1038,"x_min":49,"x_max":989,"o":"m 518 -12 q 270 49 376 -12 q 106 222 164 111 q 49 474 49 332 q 109 724 49 615 q 276 892 169 832 q 518 951 383 951 q 763 893 656 951 q 929 728 869 835 q 989 482 989 621 q 930 228 989 340 q 764 51 871 115 q 518 -12 657 -12 m 540 76 q 663 124 611 76 q 743 256 715 171 q 771 450 771 340 q 735 660 771 565 q 638 810 700 754 q 494 865 575 865 q 374 822 426 865 q 294 698 322 779 q 265 508 265 617 q 297 293 265 392 q 390 135 328 194 q 540 76 453 76 m 782 1339 q 769 1264 782 1297 q 256 1251 517 1264 q 268 1339 256 1308 l 782 1339 z "},"Ọ":{"ha":1038,"x_min":49,"x_max":989,"o":"m 518 -12 q 270 49 376 -12 q 106 222 164 111 q 49 474 49 332 q 109 724 49 615 q 276 892 169 832 q 518 951 383 951 q 763 893 656 951 q 929 728 869 835 q 989 482 989 621 q 930 228 989 340 q 764 51 871 115 q 518 -12 657 -12 m 540 76 q 663 124 611 76 q 743 256 715 171 q 771 450 771 340 q 735 660 771 565 q 638 810 700 754 q 494 865 575 865 q 374 822 426 865 q 294 698 322 779 q 265 508 265 617 q 297 293 265 392 q 390 135 328 194 q 540 76 453 76 m 513 -311 q 431 -283 463 -311 q 400 -214 400 -256 q 433 -137 400 -165 q 518 -108 467 -108 q 605 -136 574 -108 q 636 -212 636 -164 q 602 -283 636 -256 q 513 -311 568 -311 z "},"Ò":{"ha":1038,"x_min":49,"x_max":989,"o":"m 518 -12 q 270 49 376 -12 q 106 222 164 111 q 49 474 49 332 q 109 724 49 615 q 276 892 169 832 q 518 951 383 951 q 763 893 656 951 q 929 728 869 835 q 989 482 989 621 q 930 228 989 340 q 764 51 871 115 q 518 -12 657 -12 m 540 76 q 663 124 611 76 q 743 256 715 171 q 771 450 771 340 q 735 660 771 565 q 638 810 700 754 q 494 865 575 865 q 374 822 426 865 q 294 698 322 779 q 265 508 265 617 q 297 293 265 392 q 390 135 328 194 q 540 76 453 76 m 489 1019 q 340 1192 411 1124 q 416 1214 371 1207 q 504 1218 461 1221 q 594 1035 547 1113 q 489 1019 556 1019 z "},"Ỏ":{"ha":1038,"x_min":49,"x_max":989,"o":"m 518 -12 q 270 49 376 -12 q 106 222 164 111 q 49 474 49 332 q 109 724 49 615 q 276 892 169 832 q 518 951 383 951 q 763 893 656 951 q 929 728 869 835 q 989 482 989 621 q 930 228 989 340 q 764 51 871 115 q 518 -12 657 -12 m 540 76 q 663 124 611 76 q 743 256 715 171 q 771 450 771 340 q 735 660 771 565 q 638 810 700 754 q 494 865 575 865 q 374 822 426 865 q 294 698 322 779 q 265 508 265 617 q 297 293 265 392 q 390 135 328 194 q 540 76 453 76 m 485 1003 q 472 1043 472 1022 q 483 1080 472 1065 q 515 1110 494 1094 q 542 1135 535 1125 q 550 1160 550 1144 q 515 1190 550 1190 q 477 1171 492 1190 q 456 1100 463 1151 q 375 1117 408 1100 q 379 1167 379 1144 q 375 1206 379 1188 q 528 1249 439 1249 q 628 1226 593 1249 q 663 1163 663 1204 q 647 1112 663 1131 q 600 1072 631 1093 q 572 1051 581 1060 q 563 1031 563 1042 q 567 1010 563 1021 q 510 1001 542 1001 q 485 1003 493 1001 z "},"Ơ":{"ha":1038,"x_min":49,"x_max":989,"o":"m 801 869 q 940 708 890 808 q 989 482 989 608 q 930 228 989 340 q 764 51 871 115 q 518 -12 657 -12 q 270 49 376 -12 q 106 222 164 111 q 49 474 49 332 q 109 724 49 615 q 276 892 169 832 q 518 951 383 951 q 640 943 574 951 q 715 936 685 936 q 804 958 774 936 q 835 1032 835 981 q 826 1093 835 1058 q 911 1110 864 1110 q 940 1107 924 1110 q 968 1018 968 1065 q 919 912 968 953 q 801 869 869 871 m 540 76 q 663 124 611 76 q 743 256 715 171 q 771 450 771 340 q 735 660 771 565 q 638 810 700 754 q 494 865 575 865 q 374 822 426 865 q 294 698 322 779 q 265 508 265 617 q 297 293 265 392 q 390 135 328 194 q 540 76 453 76 z "},"Ớ":{"ha":1038,"x_min":49,"x_max":989,"o":"m 801 869 q 940 708 890 808 q 989 482 989 608 q 930 228 989 340 q 764 51 871 115 q 518 -12 657 -12 q 270 49 376 -12 q 106 222 164 111 q 49 474 49 332 q 109 724 49 615 q 276 892 169 832 q 518 951 383 951 q 640 943 574 951 q 715 936 685 936 q 804 958 774 936 q 835 1032 835 981 q 826 1093 835 1058 q 911 1110 864 1110 q 940 1107 924 1110 q 968 1018 968 1065 q 919 912 968 953 q 801 869 869 871 m 540 76 q 663 124 611 76 q 743 256 715 171 q 771 450 771 340 q 735 660 771 565 q 638 810 700 754 q 494 865 575 865 q 374 822 426 865 q 294 698 322 779 q 265 508 265 617 q 297 293 265 392 q 390 135 328 194 q 540 76 453 76 m 544 1019 q 444 1035 485 1019 q 526 1211 499 1136 q 626 1222 578 1222 q 707 1213 674 1222 q 544 1019 622 1119 z "},"Ợ":{"ha":1038,"x_min":49,"x_max":989,"o":"m 801 869 q 940 708 890 808 q 989 482 989 608 q 930 228 989 340 q 764 51 871 115 q 518 -12 657 -12 q 270 49 376 -12 q 106 222 164 111 q 49 474 49 332 q 109 724 49 615 q 276 892 169 832 q 518 951 383 951 q 640 943 574 951 q 715 936 685 936 q 804 958 774 936 q 835 1032 835 981 q 826 1093 835 1058 q 911 1110 864 1110 q 940 1107 924 1110 q 968 1018 968 1065 q 919 912 968 953 q 801 869 869 871 m 540 76 q 663 124 611 76 q 743 256 715 171 q 771 450 771 340 q 735 660 771 565 q 638 810 700 754 q 494 865 575 865 q 374 822 426 865 q 294 698 322 779 q 265 508 265 617 q 297 293 265 392 q 390 135 328 194 q 540 76 453 76 m 513 -311 q 431 -283 463 -311 q 400 -214 400 -256 q 433 -137 400 -165 q 518 -108 467 -108 q 605 -136 574 -108 q 636 -212 636 -164 q 602 -283 636 -256 q 513 -311 568 -311 z "},"Ờ":{"ha":1038,"x_min":49,"x_max":989,"o":"m 801 869 q 940 708 890 808 q 989 482 989 608 q 930 228 989 340 q 764 51 871 115 q 518 -12 657 -12 q 270 49 376 -12 q 106 222 164 111 q 49 474 49 332 q 109 724 49 615 q 276 892 169 832 q 518 951 383 951 q 640 943 574 951 q 715 936 685 936 q 804 958 774 936 q 835 1032 835 981 q 826 1093 835 1058 q 911 1110 864 1110 q 940 1107 924 1110 q 968 1018 968 1065 q 919 912 968 953 q 801 869 869 871 m 540 76 q 663 124 611 76 q 743 256 715 171 q 771 450 771 340 q 735 660 771 565 q 638 810 700 754 q 494 865 575 865 q 374 822 426 865 q 294 698 322 779 q 265 508 265 617 q 297 293 265 392 q 390 135 328 194 q 540 76 453 76 m 489 1019 q 340 1192 411 1124 q 416 1214 371 1207 q 504 1218 461 1221 q 594 1035 547 1113 q 489 1019 556 1019 z "},"Ở":{"ha":1038,"x_min":49,"x_max":989,"o":"m 801 869 q 940 708 890 808 q 989 482 989 608 q 930 228 989 340 q 764 51 871 115 q 518 -12 657 -12 q 270 49 376 -12 q 106 222 164 111 q 49 474 49 332 q 109 724 49 615 q 276 892 169 832 q 518 951 383 951 q 640 943 574 951 q 715 936 685 936 q 804 958 774 936 q 835 1032 835 981 q 826 1093 835 1058 q 911 1110 864 1110 q 940 1107 924 1110 q 968 1018 968 1065 q 919 912 968 953 q 801 869 869 871 m 540 76 q 663 124 611 76 q 743 256 715 171 q 771 450 771 340 q 735 660 771 565 q 638 810 700 754 q 494 865 575 865 q 374 822 426 865 q 294 698 322 779 q 265 508 265 617 q 297 293 265 392 q 390 135 328 194 q 540 76 453 76 m 485 1003 q 472 1043 472 1022 q 483 1080 472 1065 q 515 1110 494 1094 q 542 1135 535 1125 q 550 1160 550 1144 q 515 1190 550 1190 q 477 1171 492 1190 q 456 1100 463 1151 q 375 1117 408 1100 q 379 1167 379 1144 q 375 1206 379 1188 q 528 1249 439 1249 q 628 1226 593 1249 q 663 1163 663 1204 q 647 1112 663 1131 q 600 1072 631 1093 q 572 1051 581 1060 q 563 1031 563 1042 q 567 1010 563 1021 q 510 1001 542 1001 q 485 1003 493 1001 z "},"Ỡ":{"ha":1038,"x_min":49,"x_max":989,"o":"m 801 869 q 940 708 890 808 q 989 482 989 608 q 930 228 989 340 q 764 51 871 115 q 518 -12 657 -12 q 270 49 376 -12 q 106 222 164 111 q 49 474 49 332 q 109 724 49 615 q 276 892 169 832 q 518 951 383 951 q 640 943 574 951 q 715 936 685 936 q 804 958 774 936 q 835 1032 835 981 q 826 1093 835 1058 q 911 1110 864 1110 q 940 1107 924 1110 q 968 1018 968 1065 q 919 912 968 953 q 801 869 869 871 m 540 76 q 663 124 611 76 q 743 256 715 171 q 771 450 771 340 q 735 660 771 565 q 638 810 700 754 q 494 865 575 865 q 374 822 426 865 q 294 698 322 779 q 265 508 265 617 q 297 293 265 392 q 390 135 328 194 q 540 76 453 76 m 592 1029 q 540 1037 561 1029 q 485 1061 518 1044 q 440 1082 457 1075 q 400 1089 422 1089 q 297 1033 346 1089 q 261 1108 263 1064 q 346 1183 299 1160 q 440 1206 393 1206 q 496 1197 471 1206 q 550 1175 521 1189 q 597 1156 581 1161 q 632 1150 613 1150 q 714 1196 678 1150 q 778 1163 756 1189 q 696 1063 743 1097 q 592 1029 649 1029 z "},"Ő":{"ha":1038,"x_min":49,"x_max":989,"o":"m 518 -12 q 270 49 376 -12 q 106 222 164 111 q 49 474 49 332 q 109 724 49 615 q 276 892 169 832 q 518 951 383 951 q 763 893 656 951 q 929 728 869 835 q 989 482 989 621 q 930 228 989 340 q 764 51 871 115 q 518 -12 657 -12 m 540 76 q 663 124 611 76 q 743 256 715 171 q 771 450 771 340 q 735 660 771 565 q 638 810 700 754 q 494 865 575 865 q 374 822 426 865 q 294 698 322 779 q 265 508 265 617 q 297 293 265 392 q 390 135 328 194 q 540 76 453 76 m 418 1019 q 365 1028 392 1021 q 324 1046 339 1035 q 388 1206 360 1119 q 508 1225 440 1225 q 575 1215 550 1225 q 418 1019 492 1124 m 669 1019 q 617 1028 643 1021 q 575 1046 590 1035 q 639 1206 611 1119 q 758 1225 692 1225 q 826 1215 801 1225 q 669 1019 743 1124 z "},"Ȏ":{"ha":1038,"x_min":49,"x_max":989,"o":"m 518 -12 q 270 49 376 -12 q 106 222 164 111 q 49 474 49 332 q 109 724 49 615 q 276 892 169 832 q 518 951 383 951 q 763 893 656 951 q 929 728 869 835 q 989 482 989 621 q 930 228 989 340 q 764 51 871 115 q 518 -12 657 -12 m 540 76 q 663 124 611 76 q 743 256 715 171 q 771 450 771 340 q 735 660 771 565 q 638 810 700 754 q 494 865 575 865 q 374 822 426 865 q 294 698 322 779 q 265 508 265 617 q 297 293 265 392 q 390 135 328 194 q 540 76 453 76 m 289 1017 q 349 1165 289 1114 q 522 1215 408 1215 q 692 1166 633 1215 q 750 1022 750 1117 q 669 1007 715 1007 q 644 1008 653 1007 q 601 1074 638 1051 q 507 1097 565 1097 q 416 1074 450 1097 q 379 1008 382 1051 q 349 1006 360 1006 q 289 1017 315 1006 z "},"Ō":{"ha":1038,"x_min":49,"x_max":989,"o":"m 518 -12 q 270 49 376 -12 q 106 222 164 111 q 49 474 49 332 q 109 724 49 615 q 276 892 169 832 q 518 951 383 951 q 763 893 656 951 q 929 728 869 835 q 989 482 989 621 q 930 228 989 340 q 764 51 871 115 q 518 -12 657 -12 m 540 76 q 663 124 611 76 q 743 256 715 171 q 771 450 771 340 q 735 660 771 565 q 638 810 700 754 q 494 865 575 865 q 374 822 426 865 q 294 698 322 779 q 265 508 265 617 q 297 293 265 392 q 390 135 328 194 q 540 76 453 76 m 782 1135 q 769 1060 782 1093 q 256 1047 517 1060 q 268 1135 256 1104 l 782 1135 z "},"Ṓ":{"ha":1038,"x_min":49,"x_max":989,"o":"m 518 -12 q 270 49 376 -12 q 106 222 164 111 q 49 474 49 332 q 109 724 49 615 q 276 892 169 832 q 518 951 383 951 q 763 893 656 951 q 929 728 869 835 q 989 482 989 621 q 930 228 989 340 q 764 51 871 115 q 518 -12 657 -12 m 540 76 q 663 124 611 76 q 743 256 715 171 q 771 450 771 340 q 735 660 771 565 q 638 810 700 754 q 494 865 575 865 q 374 822 426 865 q 294 698 322 779 q 265 508 265 617 q 297 293 265 392 q 390 135 328 194 q 540 76 453 76 m 782 1135 q 769 1060 782 1093 q 256 1047 517 1060 q 268 1135 256 1104 l 782 1135 m 544 1215 q 444 1231 485 1215 q 526 1407 499 1332 q 626 1418 578 1418 q 707 1408 674 1418 q 544 1215 622 1315 z "},"Ṑ":{"ha":1038,"x_min":49,"x_max":989,"o":"m 518 -12 q 270 49 376 -12 q 106 222 164 111 q 49 474 49 332 q 109 724 49 615 q 276 892 169 832 q 518 951 383 951 q 763 893 656 951 q 929 728 869 835 q 989 482 989 621 q 930 228 989 340 q 764 51 871 115 q 518 -12 657 -12 m 540 76 q 663 124 611 76 q 743 256 715 171 q 771 450 771 340 q 735 660 771 565 q 638 810 700 754 q 494 865 575 865 q 374 822 426 865 q 294 698 322 779 q 265 508 265 617 q 297 293 265 392 q 390 135 328 194 q 540 76 453 76 m 782 1135 q 769 1060 782 1093 q 256 1047 517 1060 q 268 1135 256 1104 l 782 1135 m 489 1215 q 340 1388 411 1319 q 416 1410 371 1403 q 504 1414 461 1417 q 594 1231 547 1308 q 489 1215 556 1215 z "},"Ǫ":{"ha":1038,"x_min":49,"x_max":989,"o":"m 989 482 q 919 207 989 326 q 725 31 849 88 q 633 -37 664 4 q 603 -124 603 -79 q 696 -204 603 -204 q 753 -197 732 -204 q 765 -229 760 -208 q 771 -269 771 -250 q 769 -285 771 -279 q 624 -349 682 -308 q 594 -350 613 -350 q 519 -333 557 -350 q 458 -282 482 -315 q 433 -201 433 -249 q 547 -11 433 -89 q 518 -12 538 -12 q 270 49 376 -12 q 106 222 164 111 q 49 474 49 332 q 109 724 49 615 q 276 892 169 832 q 518 951 383 951 q 763 893 656 951 q 929 728 869 835 q 989 482 989 621 m 540 76 q 663 124 611 76 q 743 256 715 171 q 771 450 771 340 q 735 660 771 565 q 638 810 700 754 q 494 865 575 865 q 374 822 426 865 q 294 698 322 779 q 265 508 265 617 q 297 293 265 392 q 390 135 328 194 q 540 76 453 76 z "},"Ø":{"ha":1038,"x_min":49,"x_max":989,"o":"m 864 817 q 956 669 924 754 q 989 482 989 583 q 930 228 989 340 q 764 51 871 115 q 518 -12 657 -12 q 257 57 369 -12 l 181 -37 q 119 -29 147 -37 q 76 -7 92 -21 l 181 118 q 83 274 117 183 q 49 474 49 365 q 109 724 49 615 q 276 892 169 832 q 518 951 383 951 q 783 881 669 951 l 854 972 q 964 944 928 972 l 864 817 m 494 865 q 374 822 426 865 q 294 698 322 779 q 265 508 265 617 q 306 268 265 376 l 683 761 q 494 865 606 865 m 540 76 q 663 124 611 76 q 743 256 715 171 q 771 450 771 340 q 735 661 771 568 l 357 172 q 540 76 428 76 z "},"Ǿ":{"ha":1038,"x_min":49,"x_max":989,"o":"m 864 817 q 956 669 924 754 q 989 482 989 583 q 930 228 989 340 q 764 51 871 115 q 518 -12 657 -12 q 257 57 369 -12 l 181 -37 q 119 -29 147 -37 q 76 -7 92 -21 l 181 118 q 83 274 117 183 q 49 474 49 365 q 109 724 49 615 q 276 892 169 832 q 518 951 383 951 q 783 881 669 951 l 854 972 q 964 944 928 972 l 864 817 m 494 865 q 374 822 426 865 q 294 698 322 779 q 265 508 265 617 q 306 268 265 376 l 683 761 q 494 865 606 865 m 540 76 q 663 124 611 76 q 743 256 715 171 q 771 450 771 340 q 735 661 771 568 l 357 172 q 540 76 428 76 m 544 1019 q 444 1035 485 1019 q 526 1211 499 1136 q 626 1222 578 1222 q 707 1213 674 1222 q 544 1019 622 1119 z "},"Õ":{"ha":1038,"x_min":49,"x_max":989,"o":"m 518 -12 q 270 49 376 -12 q 106 222 164 111 q 49 474 49 332 q 109 724 49 615 q 276 892 169 832 q 518 951 383 951 q 763 893 656 951 q 929 728 869 835 q 989 482 989 621 q 930 228 989 340 q 764 51 871 115 q 518 -12 657 -12 m 540 76 q 663 124 611 76 q 743 256 715 171 q 771 450 771 340 q 735 660 771 565 q 638 810 700 754 q 494 865 575 865 q 374 822 426 865 q 294 698 322 779 q 265 508 265 617 q 297 293 265 392 q 390 135 328 194 q 540 76 453 76 m 592 1029 q 540 1037 561 1029 q 485 1061 518 1044 q 440 1082 457 1075 q 400 1089 422 1089 q 297 1033 346 1089 q 261 1108 263 1064 q 346 1183 299 1160 q 440 1206 393 1206 q 496 1197 471 1206 q 550 1175 521 1189 q 597 1156 581 1161 q 632 1150 613 1150 q 714 1196 678 1150 q 778 1163 756 1189 q 696 1063 743 1097 q 592 1029 649 1029 z "},"Ṍ":{"ha":1038,"x_min":49,"x_max":989,"o":"m 518 -12 q 270 49 376 -12 q 106 222 164 111 q 49 474 49 332 q 109 724 49 615 q 276 892 169 832 q 518 951 383 951 q 763 893 656 951 q 929 728 869 835 q 989 482 989 621 q 930 228 989 340 q 764 51 871 115 q 518 -12 657 -12 m 540 76 q 663 124 611 76 q 743 256 715 171 q 771 450 771 340 q 735 660 771 565 q 638 810 700 754 q 494 865 575 865 q 374 822 426 865 q 294 698 322 779 q 265 508 265 617 q 297 293 265 392 q 390 135 328 194 q 540 76 453 76 m 592 1029 q 540 1037 561 1029 q 485 1061 518 1044 q 440 1082 457 1075 q 400 1089 422 1089 q 297 1033 346 1089 q 261 1108 263 1064 q 346 1183 299 1160 q 440 1206 393 1206 q 496 1197 471 1206 q 550 1175 521 1189 q 597 1156 581 1161 q 632 1150 613 1150 q 714 1196 678 1150 q 778 1163 756 1189 q 696 1063 743 1097 q 592 1029 649 1029 m 544 1271 q 444 1286 485 1271 q 526 1463 499 1388 q 626 1474 578 1474 q 707 1464 674 1474 q 544 1271 622 1371 z "},"Ṏ":{"ha":1038,"x_min":49,"x_max":989,"o":"m 518 -12 q 270 49 376 -12 q 106 222 164 111 q 49 474 49 332 q 109 724 49 615 q 276 892 169 832 q 518 951 383 951 q 763 893 656 951 q 929 728 869 835 q 989 482 989 621 q 930 228 989 340 q 764 51 871 115 q 518 -12 657 -12 m 540 76 q 663 124 611 76 q 743 256 715 171 q 771 450 771 340 q 735 660 771 565 q 638 810 700 754 q 494 865 575 865 q 374 822 426 865 q 294 698 322 779 q 265 508 265 617 q 297 293 265 392 q 390 135 328 194 q 540 76 453 76 m 592 1029 q 540 1037 561 1029 q 485 1061 518 1044 q 440 1082 457 1075 q 400 1089 422 1089 q 297 1033 346 1089 q 261 1108 263 1064 q 346 1183 299 1160 q 440 1206 393 1206 q 496 1197 471 1206 q 550 1175 521 1189 q 597 1156 581 1161 q 632 1150 613 1150 q 714 1196 678 1150 q 778 1163 756 1189 q 696 1063 743 1097 q 592 1029 649 1029 z "},"Ȭ":{"ha":1038,"x_min":49,"x_max":989,"o":"m 518 -12 q 270 49 376 -12 q 106 222 164 111 q 49 474 49 332 q 109 724 49 615 q 276 892 169 832 q 518 951 383 951 q 763 893 656 951 q 929 728 869 835 q 989 482 989 621 q 930 228 989 340 q 764 51 871 115 q 518 -12 657 -12 m 540 76 q 663 124 611 76 q 743 256 715 171 q 771 450 771 340 q 735 660 771 565 q 638 810 700 754 q 494 865 575 865 q 374 822 426 865 q 294 698 322 779 q 265 508 265 617 q 297 293 265 392 q 390 135 328 194 q 540 76 453 76 m 592 1029 q 540 1037 561 1029 q 485 1061 518 1044 q 440 1082 457 1075 q 400 1089 422 1089 q 297 1033 346 1089 q 261 1108 263 1064 q 346 1183 299 1160 q 440 1206 393 1206 q 496 1197 471 1206 q 550 1175 521 1189 q 597 1156 581 1161 q 632 1150 613 1150 q 714 1196 678 1150 q 778 1163 756 1189 q 696 1063 743 1097 q 592 1029 649 1029 m 782 1386 q 769 1311 782 1344 q 256 1299 517 1311 q 268 1386 256 1356 l 782 1386 z "},"Œ":{"ha":1382,"x_min":49,"x_max":1344,"o":"m 507 950 q 593 949 553 950 q 665 946 633 947 q 913 939 788 939 q 1272 943 1150 939 q 1283 820 1275 886 q 1301 711 1290 754 q 1197 690 1263 690 q 1142 816 1186 771 q 988 861 1097 861 l 782 861 q 898 715 858 806 q 942 507 938 624 l 957 507 q 1051 531 1026 507 q 1078 611 1076 556 q 1174 625 1114 625 q 1169 467 1169 517 q 1174 304 1169 413 q 1081 315 1118 304 q 1065 378 1076 356 q 1027 413 1054 401 q 950 424 1000 424 l 939 424 q 890 227 931 314 q 776 83 850 140 l 1031 83 q 1134 103 1094 83 q 1197 161 1174 122 q 1242 267 1221 200 q 1344 226 1314 256 q 1301 -3 1317 142 q 946 0 1165 0 q 693 -7 874 0 q 503 -12 565 -12 q 259 47 361 -12 q 103 215 157 106 q 49 468 49 324 q 105 723 49 614 q 265 891 161 832 q 507 950 369 950 m 489 863 q 321 766 381 863 q 261 499 261 669 q 328 193 261 310 q 521 76 396 76 q 675 176 618 76 q 732 457 732 275 q 700 672 732 579 q 613 813 668 764 q 489 863 558 863 z "},"P":{"ha":888,"x_min":58,"x_max":839,"o":"m 468 413 q 580 461 536 413 q 624 621 624 510 q 576 793 624 731 q 432 856 529 856 q 369 847 400 856 l 369 240 q 383 147 369 181 q 425 99 396 114 q 507 81 454 85 q 517 -4 517 54 q 293 0 446 0 q 58 -4 135 0 q 67 81 58 50 q 125 95 106 83 q 153 135 144 107 q 161 219 161 163 l 161 721 q 153 805 161 778 q 127 843 146 832 q 69 858 108 854 q 58 943 58 892 q 268 939 179 939 l 406 940 q 494 942 443 942 q 839 661 839 942 q 800 490 839 567 q 686 368 761 413 q 506 324 611 324 q 410 339 449 324 q 407 368 407 358 q 417 418 407 397 q 468 413 439 413 z "},"Þ":{"ha":886,"x_min":58,"x_max":838,"o":"m 478 292 q 592 334 546 292 q 638 472 638 376 q 589 617 638 563 q 447 671 540 671 q 369 661 403 671 l 369 240 q 383 147 369 181 q 425 99 396 114 q 507 81 454 85 q 517 -4 517 54 q 290 0 444 0 q 58 -4 150 0 q 69 81 58 39 q 127 95 108 83 q 153 135 146 107 q 161 219 161 163 l 161 721 q 153 805 161 778 q 127 843 146 832 q 69 858 108 854 q 58 943 58 892 q 269 939 131 939 q 472 943 389 939 q 463 858 472 889 q 392 833 411 854 q 369 751 372 813 q 535 754 467 754 q 763 682 689 754 q 838 496 838 610 q 799 352 838 418 q 688 247 761 286 q 515 208 615 208 q 418 221 456 208 q 415 246 415 238 q 426 294 415 272 q 478 292 443 292 z "},"Q":{"ha":1038,"x_min":49,"x_max":1081,"o":"m 1078 -128 q 1067 -215 1081 -175 q 851 -281 949 -236 q 770 -233 801 -264 q 703 -149 739 -201 q 651 -81 672 -106 q 597 -37 629 -57 q 518 -12 564 -18 q 270 49 376 -12 q 106 222 164 111 q 49 474 49 332 q 109 724 49 615 q 276 892 169 832 q 518 951 383 951 q 763 893 656 951 q 929 728 869 835 q 989 482 989 621 q 913 197 989 319 q 703 21 836 74 q 770 -8 742 8 q 844 -54 799 -24 q 947 -111 904 -93 q 1050 -129 989 -129 l 1078 -128 m 265 508 q 297 293 265 392 q 390 135 328 194 q 540 76 453 76 q 663 124 611 76 q 743 256 715 171 q 771 450 771 340 q 735 660 771 565 q 638 810 700 754 q 494 865 575 865 q 374 822 426 865 q 294 698 322 779 q 265 508 265 617 z "},"R":{"ha":975,"x_min":58,"x_max":950,"o":"m 804 197 q 848 130 831 151 q 888 98 865 108 q 950 85 911 88 q 939 0 950 35 q 672 -12 753 0 q 603 133 633 63 l 576 192 q 516 307 544 264 q 442 392 488 350 l 406 390 l 369 392 l 369 228 q 376 136 369 167 q 400 94 383 106 q 449 81 417 83 q 457 -4 457 54 q 251 0 374 0 q 58 -4 139 0 q 68 81 58 50 q 126 95 107 83 q 153 135 146 107 q 161 219 161 163 l 161 722 q 153 807 161 779 q 126 846 146 835 q 67 860 107 857 q 58 943 58 893 q 264 939 188 939 q 367 942 289 939 q 524 944 464 944 q 768 875 686 944 q 850 696 850 806 q 792 520 850 590 q 635 424 733 450 q 715 348 683 390 q 804 197 746 306 m 419 478 q 572 528 511 478 q 633 672 633 578 q 587 810 633 761 q 449 860 540 860 q 369 849 404 860 l 369 482 q 419 478 401 478 z "},"Ŕ":{"ha":975,"x_min":58,"x_max":950,"o":"m 804 197 q 848 130 831 151 q 888 98 865 108 q 950 85 911 88 q 939 0 950 35 q 672 -12 753 0 q 603 133 633 63 l 576 192 q 516 307 544 264 q 442 392 488 350 l 406 390 l 369 392 l 369 228 q 376 136 369 167 q 400 94 383 106 q 449 81 417 83 q 457 -4 457 54 q 251 0 374 0 q 58 -4 139 0 q 68 81 58 50 q 126 95 107 83 q 153 135 146 107 q 161 219 161 163 l 161 722 q 153 807 161 779 q 126 846 146 835 q 67 860 107 857 q 58 943 58 893 q 264 939 188 939 q 367 942 289 939 q 524 944 464 944 q 768 875 686 944 q 850 696 850 806 q 792 520 850 590 q 635 424 733 450 q 715 348 683 390 q 804 197 746 306 m 419 478 q 572 528 511 478 q 633 672 633 578 q 587 810 633 761 q 449 860 540 860 q 369 849 404 860 l 369 482 q 419 478 401 478 m 474 1019 q 374 1035 414 1019 q 456 1211 428 1136 q 556 1222 507 1222 q 636 1213 603 1222 q 474 1019 551 1119 z "},"Ř":{"ha":975,"x_min":58,"x_max":950,"o":"m 804 197 q 848 130 831 151 q 888 98 865 108 q 950 85 911 88 q 939 0 950 35 q 672 -12 753 0 q 603 133 633 63 l 576 192 q 516 307 544 264 q 442 392 488 350 l 406 390 l 369 392 l 369 228 q 376 136 369 167 q 400 94 383 106 q 449 81 417 83 q 457 -4 457 54 q 251 0 374 0 q 58 -4 139 0 q 68 81 58 50 q 126 95 107 83 q 153 135 146 107 q 161 219 161 163 l 161 722 q 153 807 161 779 q 126 846 146 835 q 67 860 107 857 q 58 943 58 893 q 264 939 188 939 q 367 942 289 939 q 524 944 464 944 q 768 875 686 944 q 850 696 850 806 q 792 520 850 590 q 635 424 733 450 q 715 348 683 390 q 804 197 746 306 m 419 478 q 572 528 511 478 q 633 672 633 578 q 587 810 633 761 q 449 860 540 860 q 369 849 404 860 l 369 482 q 419 478 401 478 m 388 1011 q 197 1175 318 1086 q 288 1231 233 1219 q 453 1144 374 1179 q 541 1188 492 1163 q 619 1231 590 1213 q 658 1208 642 1226 q 679 1169 674 1190 q 476 1022 557 1094 q 388 1011 444 1011 z "},"Ŗ":{"ha":975,"x_min":58,"x_max":950,"o":"m 804 197 q 848 130 831 151 q 888 98 865 108 q 950 85 911 88 q 939 0 950 35 q 672 -12 753 0 q 603 133 633 63 l 576 192 q 516 307 544 264 q 442 392 488 350 l 406 390 l 369 392 l 369 228 q 376 136 369 167 q 400 94 383 106 q 449 81 417 83 q 457 -4 457 54 q 251 0 374 0 q 58 -4 139 0 q 68 81 58 50 q 126 95 107 83 q 153 135 146 107 q 161 219 161 163 l 161 722 q 153 807 161 779 q 126 846 146 835 q 67 860 107 857 q 58 943 58 893 q 264 939 188 939 q 367 942 289 939 q 524 944 464 944 q 768 875 686 944 q 850 696 850 806 q 792 520 850 590 q 635 424 733 450 q 715 348 683 390 q 804 197 746 306 m 419 478 q 572 528 511 478 q 633 672 633 578 q 587 810 633 761 q 449 860 540 860 q 369 849 404 860 l 369 482 q 419 478 401 478 m 567 -56 q 613 -91 599 -65 q 628 -161 628 -117 q 475 -414 628 -307 q 433 -406 453 -414 q 401 -382 413 -397 q 458 -319 439 -350 q 478 -262 478 -289 q 406 -207 478 -215 q 408 -151 403 -182 q 422 -97 413 -121 q 567 -56 513 -90 z "},"Ȑ":{"ha":975,"x_min":58,"x_max":950,"o":"m 804 197 q 848 130 831 151 q 888 98 865 108 q 950 85 911 88 q 939 0 950 35 q 672 -12 753 0 q 603 133 633 63 l 576 192 q 516 307 544 264 q 442 392 488 350 l 406 390 l 369 392 l 369 228 q 376 136 369 167 q 400 94 383 106 q 449 81 417 83 q 457 -4 457 54 q 251 0 374 0 q 58 -4 139 0 q 68 81 58 50 q 126 95 107 83 q 153 135 146 107 q 161 219 161 163 l 161 722 q 153 807 161 779 q 126 846 146 835 q 67 860 107 857 q 58 943 58 893 q 264 939 188 939 q 367 942 289 939 q 524 944 464 944 q 768 875 686 944 q 850 696 850 806 q 792 520 850 590 q 635 424 733 450 q 715 348 683 390 q 804 197 746 306 m 419 478 q 572 528 511 478 q 633 672 633 578 q 587 810 633 761 q 449 860 540 860 q 369 849 404 860 l 369 482 q 419 478 401 478 m 299 997 q 144 1171 211 1106 q 219 1192 175 1186 q 308 1197 263 1199 q 399 1014 351 1092 q 299 997 356 997 m 543 997 q 396 1174 469 1096 q 468 1192 425 1186 q 553 1197 511 1199 q 643 1014 596 1092 q 543 997 600 997 z "},"Ṛ":{"ha":975,"x_min":58,"x_max":950,"o":"m 804 197 q 848 130 831 151 q 888 98 865 108 q 950 85 911 88 q 939 0 950 35 q 672 -12 753 0 q 603 133 633 63 l 576 192 q 516 307 544 264 q 442 392 488 350 l 406 390 l 369 392 l 369 228 q 376 136 369 167 q 400 94 383 106 q 449 81 417 83 q 457 -4 457 54 q 251 0 374 0 q 58 -4 139 0 q 68 81 58 50 q 126 95 107 83 q 153 135 146 107 q 161 219 161 163 l 161 722 q 153 807 161 779 q 126 846 146 835 q 67 860 107 857 q 58 943 58 893 q 264 939 188 939 q 367 942 289 939 q 524 944 464 944 q 768 875 686 944 q 850 696 850 806 q 792 520 850 590 q 635 424 733 450 q 715 348 683 390 q 804 197 746 306 m 419 478 q 572 528 511 478 q 633 672 633 578 q 587 810 633 761 q 449 860 540 860 q 369 849 404 860 l 369 482 q 419 478 401 478 m 513 -311 q 431 -283 463 -311 q 400 -214 400 -256 q 433 -137 400 -165 q 518 -108 467 -108 q 605 -136 574 -108 q 636 -212 636 -164 q 602 -283 636 -256 q 513 -311 568 -311 z "},"Ȓ":{"ha":975,"x_min":58,"x_max":950,"o":"m 804 197 q 848 130 831 151 q 888 98 865 108 q 950 85 911 88 q 939 0 950 35 q 672 -12 753 0 q 603 133 633 63 l 576 192 q 516 307 544 264 q 442 392 488 350 l 406 390 l 369 392 l 369 228 q 376 136 369 167 q 400 94 383 106 q 449 81 417 83 q 457 -4 457 54 q 251 0 374 0 q 58 -4 139 0 q 68 81 58 50 q 126 95 107 83 q 153 135 146 107 q 161 219 161 163 l 161 722 q 153 807 161 779 q 126 846 146 835 q 67 860 107 857 q 58 943 58 893 q 264 939 188 939 q 367 942 289 939 q 524 944 464 944 q 768 875 686 944 q 850 696 850 806 q 792 520 850 590 q 635 424 733 450 q 715 348 683 390 q 804 197 746 306 m 419 478 q 572 528 511 478 q 633 672 633 578 q 587 810 633 761 q 449 860 540 860 q 369 849 404 860 l 369 482 q 419 478 401 478 m 218 1017 q 278 1165 218 1114 q 451 1215 338 1215 q 621 1166 563 1215 q 679 1022 679 1117 q 599 1007 644 1007 q 574 1008 582 1007 q 531 1074 567 1051 q 436 1097 494 1097 q 345 1074 379 1097 q 308 1008 311 1051 q 278 1006 289 1006 q 218 1017 244 1006 z "},"Ṟ":{"ha":975,"x_min":58,"x_max":950,"o":"m 804 197 q 848 130 831 151 q 888 98 865 108 q 950 85 911 88 q 939 0 950 35 q 672 -12 753 0 q 603 133 633 63 l 576 192 q 516 307 544 264 q 442 392 488 350 l 406 390 l 369 392 l 369 228 q 376 136 369 167 q 400 94 383 106 q 449 81 417 83 q 457 -4 457 54 q 251 0 374 0 q 58 -4 139 0 q 68 81 58 50 q 126 95 107 83 q 153 135 146 107 q 161 219 161 163 l 161 722 q 153 807 161 779 q 126 846 146 835 q 67 860 107 857 q 58 943 58 893 q 264 939 188 939 q 367 942 289 939 q 524 944 464 944 q 768 875 686 944 q 850 696 850 806 q 792 520 850 590 q 635 424 733 450 q 715 348 683 390 q 804 197 746 306 m 419 478 q 572 528 511 478 q 633 672 633 578 q 587 810 633 761 q 449 860 540 860 q 369 849 404 860 l 369 482 q 419 478 401 478 m 260 -224 q 272 -143 260 -172 l 779 -143 q 767 -214 779 -183 q 260 -224 510 -214 z "},"S":{"ha":775,"x_min":65,"x_max":726,"o":"m 379 -12 q 217 8 292 -12 q 65 71 142 29 q 82 288 82 157 q 207 301 129 301 q 253 130 214 181 q 385 79 292 79 q 501 112 463 79 q 539 196 539 144 q 515 265 539 236 q 456 315 492 294 q 357 365 421 335 q 216 442 269 407 q 124 535 163 476 q 85 682 85 594 q 170 883 85 814 q 394 951 256 951 q 542 933 468 951 q 656 890 615 915 q 664 693 656 749 q 609 676 643 682 q 543 671 575 671 q 487 822 525 781 q 383 864 449 864 q 289 836 324 864 q 254 757 254 808 q 280 682 254 714 q 344 628 306 650 q 450 574 382 606 q 593 499 538 533 q 688 406 649 464 q 726 265 726 349 q 637 64 726 140 q 379 -12 547 -12 z "},"Ś":{"ha":775,"x_min":65,"x_max":726,"o":"m 379 -12 q 217 8 292 -12 q 65 71 142 29 q 82 288 82 157 q 207 301 129 301 q 253 130 214 181 q 385 79 292 79 q 501 112 463 79 q 539 196 539 144 q 515 265 539 236 q 456 315 492 294 q 357 365 421 335 q 216 442 269 407 q 124 535 163 476 q 85 682 85 594 q 170 883 85 814 q 394 951 256 951 q 542 933 468 951 q 656 890 615 915 q 664 693 656 749 q 609 676 643 682 q 543 671 575 671 q 487 822 525 781 q 383 864 449 864 q 289 836 324 864 q 254 757 254 808 q 280 682 254 714 q 344 628 306 650 q 450 574 382 606 q 593 499 538 533 q 688 406 649 464 q 726 265 726 349 q 637 64 726 140 q 379 -12 547 -12 m 419 1019 q 319 1035 360 1019 q 401 1211 374 1136 q 501 1222 453 1222 q 582 1213 549 1222 q 419 1019 497 1119 z "},"Ṥ":{"ha":775,"x_min":65,"x_max":726,"o":"m 379 -12 q 217 8 292 -12 q 65 71 142 29 q 82 288 82 157 q 207 301 129 301 q 253 130 214 181 q 385 79 292 79 q 501 112 463 79 q 539 196 539 144 q 515 265 539 236 q 456 315 492 294 q 357 365 421 335 q 216 442 269 407 q 124 535 163 476 q 85 682 85 594 q 170 883 85 814 q 394 951 256 951 q 542 933 468 951 q 656 890 615 915 q 664 693 656 749 q 609 676 643 682 q 543 671 575 671 q 487 822 525 781 q 383 864 449 864 q 289 836 324 864 q 254 757 254 808 q 280 682 254 714 q 344 628 306 650 q 450 574 382 606 q 593 499 538 533 q 688 406 649 464 q 726 265 726 349 q 637 64 726 140 q 379 -12 547 -12 m 419 1019 q 319 1035 360 1019 q 401 1211 374 1136 q 501 1222 453 1222 q 582 1213 549 1222 q 419 1019 497 1119 z "},"Š":{"ha":775,"x_min":65,"x_max":726,"o":"m 379 -12 q 217 8 292 -12 q 65 71 142 29 q 82 288 82 157 q 207 301 129 301 q 253 130 214 181 q 385 79 292 79 q 501 112 463 79 q 539 196 539 144 q 515 265 539 236 q 456 315 492 294 q 357 365 421 335 q 216 442 269 407 q 124 535 163 476 q 85 682 85 594 q 170 883 85 814 q 394 951 256 951 q 542 933 468 951 q 656 890 615 915 q 664 693 656 749 q 609 676 643 682 q 543 671 575 671 q 487 822 525 781 q 383 864 449 864 q 289 836 324 864 q 254 757 254 808 q 280 682 254 714 q 344 628 306 650 q 450 574 382 606 q 593 499 538 533 q 688 406 649 464 q 726 265 726 349 q 637 64 726 140 q 379 -12 547 -12 m 332 1011 q 142 1175 263 1086 q 232 1231 178 1219 q 397 1144 318 1179 q 485 1188 436 1163 q 564 1231 535 1213 q 602 1208 586 1226 q 624 1169 618 1190 q 421 1022 501 1094 q 332 1011 389 1011 z "},"Ṧ":{"ha":775,"x_min":65,"x_max":726,"o":"m 379 -12 q 217 8 292 -12 q 65 71 142 29 q 82 288 82 157 q 207 301 129 301 q 253 130 214 181 q 385 79 292 79 q 501 112 463 79 q 539 196 539 144 q 515 265 539 236 q 456 315 492 294 q 357 365 421 335 q 216 442 269 407 q 124 535 163 476 q 85 682 85 594 q 170 883 85 814 q 394 951 256 951 q 542 933 468 951 q 656 890 615 915 q 664 693 656 749 q 609 676 643 682 q 543 671 575 671 q 487 822 525 781 q 383 864 449 864 q 289 836 324 864 q 254 757 254 808 q 280 682 254 714 q 344 628 306 650 q 450 574 382 606 q 593 499 538 533 q 688 406 649 464 q 726 265 726 349 q 637 64 726 140 q 379 -12 547 -12 m 332 1011 q 142 1175 263 1086 q 232 1231 178 1219 q 397 1144 318 1179 q 485 1188 436 1163 q 564 1231 535 1213 q 602 1208 586 1226 q 624 1169 618 1190 q 421 1022 501 1094 q 332 1011 389 1011 z "},"Ş":{"ha":775,"x_min":65,"x_max":726,"o":"m 726 265 q 650 76 726 151 q 429 -11 574 1 l 389 -64 q 478 -109 446 -74 q 511 -193 511 -144 q 451 -298 511 -260 q 299 -336 390 -336 q 288 -278 288 -314 q 365 -260 333 -278 q 397 -210 397 -242 q 373 -165 397 -182 q 311 -147 349 -147 q 286 -87 286 -119 l 342 -11 q 200 13 267 -7 q 65 71 133 33 q 82 288 82 157 q 207 301 129 301 q 253 130 214 181 q 385 79 292 79 q 501 112 463 79 q 539 196 539 144 q 515 265 539 236 q 456 315 492 294 q 357 365 421 335 q 216 442 269 407 q 124 535 163 476 q 85 682 85 594 q 170 883 85 814 q 394 951 256 951 q 542 933 468 951 q 656 890 615 915 q 664 693 656 749 q 609 676 643 682 q 543 671 575 671 q 487 822 525 781 q 383 864 449 864 q 289 836 324 864 q 254 757 254 808 q 280 682 254 714 q 344 628 306 650 q 450 574 382 606 q 593 499 538 533 q 688 406 649 464 q 726 265 726 349 z "},"Ŝ":{"ha":775,"x_min":65,"x_max":726,"o":"m 379 -12 q 217 8 292 -12 q 65 71 142 29 q 82 288 82 157 q 207 301 129 301 q 253 130 214 181 q 385 79 292 79 q 501 112 463 79 q 539 196 539 144 q 515 265 539 236 q 456 315 492 294 q 357 365 421 335 q 216 442 269 407 q 124 535 163 476 q 85 682 85 594 q 170 883 85 814 q 394 951 256 951 q 542 933 468 951 q 656 890 615 915 q 664 693 656 749 q 609 676 643 682 q 543 671 575 671 q 487 822 525 781 q 383 864 449 864 q 289 836 324 864 q 254 757 254 808 q 280 682 254 714 q 344 628 306 650 q 450 574 382 606 q 593 499 538 533 q 688 406 649 464 q 726 265 726 349 q 637 64 726 140 q 379 -12 547 -12 m 213 1011 q 174 1033 190 1015 q 153 1072 158 1051 q 356 1221 278 1149 q 443 1231 388 1231 q 635 1067 515 1154 q 543 1011 599 1022 q 379 1099 454 1065 q 213 1011 250 1036 z "},"Ș":{"ha":775,"x_min":65,"x_max":726,"o":"m 379 -12 q 217 8 292 -12 q 65 71 142 29 q 82 288 82 157 q 207 301 129 301 q 253 130 214 181 q 385 79 292 79 q 501 112 463 79 q 539 196 539 144 q 515 265 539 236 q 456 315 492 294 q 357 365 421 335 q 216 442 269 407 q 124 535 163 476 q 85 682 85 594 q 170 883 85 814 q 394 951 256 951 q 542 933 468 951 q 656 890 615 915 q 664 693 656 749 q 609 676 643 682 q 543 671 575 671 q 487 822 525 781 q 383 864 449 864 q 289 836 324 864 q 254 757 254 808 q 280 682 254 714 q 344 628 306 650 q 450 574 382 606 q 593 499 538 533 q 688 406 649 464 q 726 265 726 349 q 637 64 726 140 q 379 -12 547 -12 m 447 -56 q 494 -91 479 -65 q 508 -161 508 -117 q 356 -414 508 -307 q 313 -406 333 -414 q 282 -382 293 -397 q 339 -319 319 -350 q 358 -262 358 -289 q 286 -207 358 -215 q 288 -151 283 -182 q 303 -97 293 -121 q 447 -56 393 -90 z "},"Ṡ":{"ha":775,"x_min":65,"x_max":726,"o":"m 379 -12 q 217 8 292 -12 q 65 71 142 29 q 82 288 82 157 q 207 301 129 301 q 253 130 214 181 q 385 79 292 79 q 501 112 463 79 q 539 196 539 144 q 515 265 539 236 q 456 315 492 294 q 357 365 421 335 q 216 442 269 407 q 124 535 163 476 q 85 682 85 594 q 170 883 85 814 q 394 951 256 951 q 542 933 468 951 q 656 890 615 915 q 664 693 656 749 q 609 676 643 682 q 543 671 575 671 q 487 822 525 781 q 383 864 449 864 q 289 836 324 864 q 254 757 254 808 q 280 682 254 714 q 344 628 306 650 q 450 574 382 606 q 593 499 538 533 q 688 406 649 464 q 726 265 726 349 q 637 64 726 140 q 379 -12 547 -12 z "},"Ṣ":{"ha":775,"x_min":65,"x_max":726,"o":"m 379 -12 q 217 8 292 -12 q 65 71 142 29 q 82 288 82 157 q 207 301 129 301 q 253 130 214 181 q 385 79 292 79 q 501 112 463 79 q 539 196 539 144 q 515 265 539 236 q 456 315 492 294 q 357 365 421 335 q 216 442 269 407 q 124 535 163 476 q 85 682 85 594 q 170 883 85 814 q 394 951 256 951 q 542 933 468 951 q 656 890 615 915 q 664 693 656 749 q 609 676 643 682 q 543 671 575 671 q 487 822 525 781 q 383 864 449 864 q 289 836 324 864 q 254 757 254 808 q 280 682 254 714 q 344 628 306 650 q 450 574 382 606 q 593 499 538 533 q 688 406 649 464 q 726 265 726 349 q 637 64 726 140 q 379 -12 547 -12 m 393 -311 q 312 -283 343 -311 q 281 -214 281 -256 q 314 -137 281 -165 q 399 -108 347 -108 q 485 -136 454 -108 q 517 -212 517 -164 q 483 -283 517 -256 q 393 -311 449 -311 z "},"Ṩ":{"ha":775,"x_min":65,"x_max":726,"o":"m 379 -12 q 217 8 292 -12 q 65 71 142 29 q 82 288 82 157 q 207 301 129 301 q 253 130 214 181 q 385 79 292 79 q 501 112 463 79 q 539 196 539 144 q 515 265 539 236 q 456 315 492 294 q 357 365 421 335 q 216 442 269 407 q 124 535 163 476 q 85 682 85 594 q 170 883 85 814 q 394 951 256 951 q 542 933 468 951 q 656 890 615 915 q 664 693 656 749 q 609 676 643 682 q 543 671 575 671 q 487 822 525 781 q 383 864 449 864 q 289 836 324 864 q 254 757 254 808 q 280 682 254 714 q 344 628 306 650 q 450 574 382 606 q 593 499 538 533 q 688 406 649 464 q 726 265 726 349 q 637 64 726 140 q 379 -12 547 -12 m 393 -311 q 312 -283 343 -311 q 281 -214 281 -256 q 314 -137 281 -165 q 399 -108 347 -108 q 485 -136 454 -108 q 517 -212 517 -164 q 483 -283 517 -256 q 393 -311 449 -311 z "},"ẞ":{"ha":1042,"x_min":43,"x_max":992,"o":"m 738 544 q 924 449 856 519 q 992 267 992 379 q 906 63 992 139 q 665 -12 819 -12 q 534 4 588 -12 q 435 53 481 21 q 451 247 451 138 q 569 263 497 263 q 583 153 572 192 q 615 97 593 114 q 675 81 636 81 q 758 122 726 81 q 789 240 789 163 q 532 471 789 446 q 515 514 522 488 q 508 560 508 540 q 696 853 604 679 q 626 856 643 856 q 522 860 569 860 q 426 838 461 860 q 372 758 390 817 q 353 586 353 699 l 353 -3 q 231 0 297 0 q 43 -4 128 0 q 53 81 43 44 q 112 97 93 85 q 138 142 131 110 q 146 243 146 175 l 146 578 q 249 862 146 779 q 536 944 351 944 q 615 942 565 944 q 718 939 671 939 q 903 946 810 939 q 920 901 913 928 q 928 851 928 874 q 738 544 843 688 z "},"Ə":{"ha":931,"x_min":49,"x_max":882,"o":"m 407 951 q 766 823 650 951 q 882 490 882 694 q 828 233 882 347 q 674 55 775 119 q 435 -10 572 -10 q 151 111 244 -10 q 49 426 58 232 q 83 493 57 467 l 663 493 q 590 765 656 664 q 379 865 525 865 q 283 845 318 865 q 229 784 247 825 q 201 672 211 743 q 179 671 194 671 q 96 689 132 671 q 100 788 100 739 q 94 888 100 843 q 238 935 156 918 q 407 951 321 951 m 457 76 q 600 152 544 76 q 663 403 656 228 q 261 408 475 408 q 310 163 261 249 q 457 76 360 76 z "},"T":{"ha":910,"x_min":35,"x_max":875,"o":"m 853 943 q 875 699 851 836 q 765 682 831 679 q 718 814 754 772 q 608 856 682 856 l 560 856 l 560 219 q 569 134 560 161 q 603 95 578 107 q 682 81 629 83 q 693 -4 693 54 q 464 0 610 0 q 210 -4 296 0 q 222 81 210 43 q 303 95 276 83 q 340 135 329 107 q 351 219 351 163 l 351 856 l 317 856 q 226 836 260 856 q 174 780 192 817 q 142 682 156 743 q 35 699 68 682 q 56 824 47 757 q 64 943 64 892 q 460 939 161 939 q 853 943 707 939 z "},"Ŧ":{"ha":910,"x_min":35,"x_max":875,"o":"m 853 943 q 875 699 851 836 q 765 682 831 679 q 718 814 754 772 q 608 856 682 856 l 560 856 l 560 529 l 735 529 q 718 432 735 469 q 560 433 653 433 l 560 219 q 569 134 560 161 q 603 95 578 107 q 682 81 629 83 q 693 -4 693 54 q 464 0 610 0 q 210 -4 296 0 q 222 81 210 43 q 303 95 276 83 q 340 135 329 107 q 351 219 351 163 l 351 432 l 232 431 l 182 429 q 187 485 182 457 q 199 529 192 513 l 351 529 l 351 856 l 317 856 q 226 836 260 856 q 174 780 192 817 q 142 682 156 743 q 35 699 68 682 q 56 824 47 757 q 64 943 64 892 q 460 939 161 939 q 853 943 707 939 z "},"Ť":{"ha":910,"x_min":35,"x_max":875,"o":"m 853 943 q 875 699 851 836 q 765 682 831 679 q 718 814 754 772 q 608 856 682 856 l 560 856 l 560 219 q 569 134 560 161 q 603 95 578 107 q 682 81 629 83 q 693 -4 693 54 q 464 0 610 0 q 210 -4 296 0 q 222 81 210 43 q 303 95 276 83 q 340 135 329 107 q 351 219 351 163 l 351 856 l 317 856 q 226 836 260 856 q 174 780 192 817 q 142 682 156 743 q 35 699 68 682 q 56 824 47 757 q 64 943 64 892 q 460 939 161 939 q 853 943 707 939 m 396 1011 q 206 1175 326 1086 q 296 1231 242 1219 q 461 1144 382 1179 q 549 1188 500 1163 q 628 1231 599 1213 q 666 1208 650 1226 q 688 1169 682 1190 q 485 1022 565 1094 q 396 1011 453 1011 z "},"Ţ":{"ha":910,"x_min":35,"x_max":875,"o":"m 853 943 q 875 699 851 836 q 765 682 831 679 q 718 814 754 772 q 608 856 682 856 l 560 856 l 560 219 q 569 134 560 161 q 603 95 578 107 q 682 81 629 83 q 693 -4 693 54 q 489 0 618 0 l 442 -64 q 531 -109 499 -74 q 564 -193 564 -144 q 503 -298 564 -260 q 351 -336 443 -336 q 340 -278 340 -314 q 417 -260 386 -278 q 449 -210 449 -242 q 425 -165 449 -182 q 364 -147 401 -147 q 339 -87 339 -122 l 403 0 q 210 -4 276 0 q 222 81 210 43 q 303 95 276 83 q 340 135 329 107 q 351 219 351 163 l 351 856 l 317 856 q 226 836 260 856 q 174 780 192 817 q 142 682 156 743 q 35 699 68 682 q 56 824 47 757 q 64 943 64 892 q 460 939 161 939 q 853 943 707 939 z "},"Ț":{"ha":910,"x_min":35,"x_max":875,"o":"m 853 943 q 875 699 851 836 q 765 682 831 679 q 718 814 754 772 q 608 856 682 856 l 560 856 l 560 219 q 569 134 560 161 q 603 95 578 107 q 682 81 629 83 q 693 -4 693 54 q 464 0 610 0 q 210 -4 296 0 q 222 81 210 43 q 303 95 276 83 q 340 135 329 107 q 351 219 351 163 l 351 856 l 317 856 q 226 836 260 856 q 174 780 192 817 q 142 682 156 743 q 35 699 68 682 q 56 824 47 757 q 64 943 64 892 q 460 939 161 939 q 853 943 707 939 m 499 -56 q 545 -91 531 -65 q 560 -161 560 -117 q 407 -414 560 -307 q 365 -406 385 -414 q 333 -382 344 -397 q 390 -319 371 -350 q 410 -262 410 -289 q 338 -207 410 -215 q 340 -151 335 -182 q 354 -97 344 -121 q 499 -56 444 -90 z "},"Ṭ":{"ha":910,"x_min":35,"x_max":875,"o":"m 853 943 q 875 699 851 836 q 765 682 831 679 q 718 814 754 772 q 608 856 682 856 l 560 856 l 560 219 q 569 134 560 161 q 603 95 578 107 q 682 81 629 83 q 693 -4 693 54 q 464 0 610 0 q 210 -4 296 0 q 222 81 210 43 q 303 95 276 83 q 340 135 329 107 q 351 219 351 163 l 351 856 l 317 856 q 226 836 260 856 q 174 780 192 817 q 142 682 156 743 q 35 699 68 682 q 56 824 47 757 q 64 943 64 892 q 460 939 161 939 q 853 943 707 939 m 444 -311 q 363 -283 394 -311 q 332 -214 332 -256 q 365 -137 332 -165 q 450 -108 399 -108 q 537 -136 506 -108 q 568 -212 568 -164 q 534 -283 568 -256 q 444 -311 500 -311 z "},"Ṯ":{"ha":910,"x_min":35,"x_max":875,"o":"m 853 943 q 875 699 851 836 q 765 682 831 679 q 718 814 754 772 q 608 856 682 856 l 560 856 l 560 219 q 569 134 560 161 q 603 95 578 107 q 682 81 629 83 q 693 -4 693 54 q 464 0 610 0 q 210 -4 296 0 q 222 81 210 43 q 303 95 276 83 q 340 135 329 107 q 351 219 351 163 l 351 856 l 317 856 q 226 836 260 856 q 174 780 192 817 q 142 682 156 743 q 35 699 68 682 q 56 824 47 757 q 64 943 64 892 q 460 939 161 939 q 853 943 707 939 m 192 -224 q 204 -143 192 -172 l 711 -143 q 699 -214 711 -183 q 192 -224 442 -214 z "},"U":{"ha":953,"x_min":43,"x_max":904,"o":"m 811 379 q 794 182 811 254 q 729 64 776 110 q 493 -12 649 -12 q 283 24 360 -12 q 172 135 206 61 q 139 326 139 208 l 139 717 q 132 803 139 775 q 108 842 125 831 q 51 858 90 853 q 43 943 43 894 q 218 939 100 939 q 446 943 382 939 q 438 858 446 889 q 378 842 396 853 q 353 803 360 831 q 346 717 346 776 l 346 349 q 392 150 346 218 q 540 82 438 82 q 613 96 576 82 q 672 138 649 110 q 710 223 699 169 q 722 382 722 276 l 722 676 q 714 783 722 746 q 686 836 706 819 q 628 858 667 853 q 621 943 621 899 q 764 939 672 939 q 904 943 853 939 q 896 858 904 894 q 843 838 861 854 q 818 786 825 822 q 811 683 811 750 l 811 379 z "},"Ú":{"ha":953,"x_min":43,"x_max":904,"o":"m 811 379 q 794 182 811 254 q 729 64 776 110 q 493 -12 649 -12 q 283 24 360 -12 q 172 135 206 61 q 139 326 139 208 l 139 717 q 132 803 139 775 q 108 842 125 831 q 51 858 90 853 q 43 943 43 894 q 218 939 100 939 q 446 943 382 939 q 438 858 446 889 q 378 842 396 853 q 353 803 360 831 q 346 717 346 776 l 346 349 q 392 150 346 218 q 540 82 438 82 q 613 96 576 82 q 672 138 649 110 q 710 223 699 169 q 722 382 722 276 l 722 676 q 714 783 722 746 q 686 836 706 819 q 628 858 667 853 q 621 943 621 899 q 764 939 672 939 q 904 943 853 939 q 896 858 904 894 q 843 838 861 854 q 818 786 825 822 q 811 683 811 750 l 811 379 m 558 1019 q 458 1035 499 1019 q 540 1211 513 1136 q 640 1222 592 1222 q 721 1213 688 1222 q 558 1019 636 1119 z "},"Ŭ":{"ha":953,"x_min":43,"x_max":904,"o":"m 811 379 q 794 182 811 254 q 729 64 776 110 q 493 -12 649 -12 q 283 24 360 -12 q 172 135 206 61 q 139 326 139 208 l 139 717 q 132 803 139 775 q 108 842 125 831 q 51 858 90 853 q 43 943 43 894 q 218 939 100 939 q 446 943 382 939 q 438 858 446 889 q 378 842 396 853 q 353 803 360 831 q 346 717 346 776 l 346 349 q 392 150 346 218 q 540 82 438 82 q 613 96 576 82 q 672 138 649 110 q 710 223 699 169 q 722 382 722 276 l 722 676 q 714 783 722 746 q 686 836 706 819 q 628 858 667 853 q 621 943 621 899 q 764 939 672 939 q 904 943 853 939 q 896 858 904 894 q 843 838 861 854 q 818 786 825 822 q 811 683 811 750 l 811 379 m 764 1204 q 704 1056 764 1107 q 531 1006 644 1006 q 361 1055 419 1006 q 303 1199 303 1104 q 383 1214 338 1214 q 408 1213 400 1214 q 451 1147 415 1169 q 546 1124 488 1124 q 637 1147 603 1124 q 674 1213 671 1169 q 704 1215 693 1215 q 764 1204 738 1215 z "},"Ǔ":{"ha":953,"x_min":43,"x_max":904,"o":"m 811 379 q 794 182 811 254 q 729 64 776 110 q 493 -12 649 -12 q 283 24 360 -12 q 172 135 206 61 q 139 326 139 208 l 139 717 q 132 803 139 775 q 108 842 125 831 q 51 858 90 853 q 43 943 43 894 q 218 939 100 939 q 446 943 382 939 q 438 858 446 889 q 378 842 396 853 q 353 803 360 831 q 346 717 346 776 l 346 349 q 392 150 346 218 q 540 82 438 82 q 613 96 576 82 q 672 138 649 110 q 710 223 699 169 q 722 382 722 276 l 722 676 q 714 783 722 746 q 686 836 706 819 q 628 858 667 853 q 621 943 621 899 q 764 939 672 939 q 904 943 853 939 q 896 858 904 894 q 843 838 861 854 q 818 786 825 822 q 811 683 811 750 l 811 379 m 471 1011 q 281 1175 401 1086 q 371 1231 317 1219 q 536 1144 457 1179 q 624 1188 575 1163 q 703 1231 674 1213 q 741 1208 725 1226 q 763 1169 757 1190 q 560 1022 640 1094 q 471 1011 528 1011 z "},"Û":{"ha":953,"x_min":43,"x_max":904,"o":"m 811 379 q 794 182 811 254 q 729 64 776 110 q 493 -12 649 -12 q 283 24 360 -12 q 172 135 206 61 q 139 326 139 208 l 139 717 q 132 803 139 775 q 108 842 125 831 q 51 858 90 853 q 43 943 43 894 q 218 939 100 939 q 446 943 382 939 q 438 858 446 889 q 378 842 396 853 q 353 803 360 831 q 346 717 346 776 l 346 349 q 392 150 346 218 q 540 82 438 82 q 613 96 576 82 q 672 138 649 110 q 710 223 699 169 q 722 382 722 276 l 722 676 q 714 783 722 746 q 686 836 706 819 q 628 858 667 853 q 621 943 621 899 q 764 939 672 939 q 904 943 853 939 q 896 858 904 894 q 843 838 861 854 q 818 786 825 822 q 811 683 811 750 l 811 379 m 351 1011 q 313 1033 329 1015 q 292 1072 297 1051 q 494 1221 417 1149 q 582 1231 526 1231 q 774 1067 654 1154 q 682 1011 738 1022 q 518 1099 593 1065 q 351 1011 389 1036 z "},"Ȕ":{"ha":953,"x_min":43,"x_max":904,"o":"m 811 379 q 794 182 811 254 q 729 64 776 110 q 493 -12 649 -12 q 283 24 360 -12 q 172 135 206 61 q 139 326 139 208 l 139 717 q 132 803 139 775 q 108 842 125 831 q 51 858 90 853 q 43 943 43 894 q 218 939 100 939 q 446 943 382 939 q 438 858 446 889 q 378 842 396 853 q 353 803 360 831 q 346 717 346 776 l 346 349 q 392 150 346 218 q 540 82 438 82 q 613 96 576 82 q 672 138 649 110 q 710 223 699 169 q 722 382 722 276 l 722 676 q 714 783 722 746 q 686 836 706 819 q 628 858 667 853 q 621 943 621 899 q 764 939 672 939 q 904 943 853 939 q 896 858 904 894 q 843 838 861 854 q 818 786 825 822 q 811 683 811 750 l 811 379 m 382 997 q 228 1171 294 1106 q 302 1192 258 1186 q 392 1197 346 1199 q 482 1014 435 1092 q 382 997 439 997 m 626 997 q 479 1174 553 1096 q 551 1192 508 1186 q 636 1197 594 1199 q 726 1014 679 1092 q 626 997 683 997 z "},"Ü":{"ha":953,"x_min":43,"x_max":904,"o":"m 811 379 q 794 182 811 254 q 729 64 776 110 q 493 -12 649 -12 q 283 24 360 -12 q 172 135 206 61 q 139 326 139 208 l 139 717 q 132 803 139 775 q 108 842 125 831 q 51 858 90 853 q 43 943 43 894 q 218 939 100 939 q 446 943 382 939 q 438 858 446 889 q 378 842 396 853 q 353 803 360 831 q 346 717 346 776 l 346 349 q 392 150 346 218 q 540 82 438 82 q 613 96 576 82 q 672 138 649 110 q 710 223 699 169 q 722 382 722 276 l 722 676 q 714 783 722 746 q 686 836 706 819 q 628 858 667 853 q 621 943 621 899 q 764 939 672 939 q 904 943 853 939 q 896 858 904 894 q 843 838 861 854 q 818 786 825 822 q 811 683 811 750 l 811 379 z "},"Ǘ":{"ha":953,"x_min":43,"x_max":904,"o":"m 811 379 q 794 182 811 254 q 729 64 776 110 q 493 -12 649 -12 q 283 24 360 -12 q 172 135 206 61 q 139 326 139 208 l 139 717 q 132 803 139 775 q 108 842 125 831 q 51 858 90 853 q 43 943 43 894 q 218 939 100 939 q 446 943 382 939 q 438 858 446 889 q 378 842 396 853 q 353 803 360 831 q 346 717 346 776 l 346 349 q 392 150 346 218 q 540 82 438 82 q 613 96 576 82 q 672 138 649 110 q 710 223 699 169 q 722 382 722 276 l 722 676 q 714 783 722 746 q 686 836 706 819 q 628 858 667 853 q 621 943 621 899 q 764 939 672 939 q 904 943 853 939 q 896 858 904 894 q 843 838 861 854 q 818 786 825 822 q 811 683 811 750 l 811 379 m 558 1261 q 458 1276 499 1261 q 540 1453 513 1378 q 640 1464 592 1464 q 721 1454 688 1464 q 558 1261 636 1361 z "},"Ǚ":{"ha":953,"x_min":43,"x_max":904,"o":"m 811 379 q 794 182 811 254 q 729 64 776 110 q 493 -12 649 -12 q 283 24 360 -12 q 172 135 206 61 q 139 326 139 208 l 139 717 q 132 803 139 775 q 108 842 125 831 q 51 858 90 853 q 43 943 43 894 q 218 939 100 939 q 446 943 382 939 q 438 858 446 889 q 378 842 396 853 q 353 803 360 831 q 346 717 346 776 l 346 349 q 392 150 346 218 q 540 82 438 82 q 613 96 576 82 q 672 138 649 110 q 710 223 699 169 q 722 382 722 276 l 722 676 q 714 783 722 746 q 686 836 706 819 q 628 858 667 853 q 621 943 621 899 q 764 939 672 939 q 904 943 853 939 q 896 858 904 894 q 843 838 861 854 q 818 786 825 822 q 811 683 811 750 l 811 379 m 471 1253 q 281 1417 401 1328 q 371 1472 317 1461 q 536 1386 457 1421 q 624 1429 575 1404 q 703 1472 674 1454 q 741 1450 725 1468 q 763 1411 757 1432 q 560 1264 640 1336 q 471 1253 528 1253 z "},"Ǜ":{"ha":953,"x_min":43,"x_max":904,"o":"m 811 379 q 794 182 811 254 q 729 64 776 110 q 493 -12 649 -12 q 283 24 360 -12 q 172 135 206 61 q 139 326 139 208 l 139 717 q 132 803 139 775 q 108 842 125 831 q 51 858 90 853 q 43 943 43 894 q 218 939 100 939 q 446 943 382 939 q 438 858 446 889 q 378 842 396 853 q 353 803 360 831 q 346 717 346 776 l 346 349 q 392 150 346 218 q 540 82 438 82 q 613 96 576 82 q 672 138 649 110 q 710 223 699 169 q 722 382 722 276 l 722 676 q 714 783 722 746 q 686 836 706 819 q 628 858 667 853 q 621 943 621 899 q 764 939 672 939 q 904 943 853 939 q 896 858 904 894 q 843 838 861 854 q 818 786 825 822 q 811 683 811 750 l 811 379 m 503 1261 q 354 1433 425 1365 q 430 1456 385 1449 q 518 1460 475 1463 q 608 1276 561 1354 q 503 1261 569 1261 z "},"Ǖ":{"ha":953,"x_min":43,"x_max":904,"o":"m 811 379 q 794 182 811 254 q 729 64 776 110 q 493 -12 649 -12 q 283 24 360 -12 q 172 135 206 61 q 139 326 139 208 l 139 717 q 132 803 139 775 q 108 842 125 831 q 51 858 90 853 q 43 943 43 894 q 218 939 100 939 q 446 943 382 939 q 438 858 446 889 q 378 842 396 853 q 353 803 360 831 q 346 717 346 776 l 346 349 q 392 150 346 218 q 540 82 438 82 q 613 96 576 82 q 672 138 649 110 q 710 223 699 169 q 722 382 722 276 l 722 676 q 714 783 722 746 q 686 836 706 819 q 628 858 667 853 q 621 943 621 899 q 764 939 672 939 q 904 943 853 939 q 896 858 904 894 q 843 838 861 854 q 818 786 825 822 q 811 683 811 750 l 811 379 m 796 1376 q 783 1301 796 1335 q 269 1289 531 1301 q 282 1376 269 1346 l 796 1376 z "},"Ụ":{"ha":953,"x_min":43,"x_max":904,"o":"m 811 379 q 794 182 811 254 q 729 64 776 110 q 493 -12 649 -12 q 283 24 360 -12 q 172 135 206 61 q 139 326 139 208 l 139 717 q 132 803 139 775 q 108 842 125 831 q 51 858 90 853 q 43 943 43 894 q 218 939 100 939 q 446 943 382 939 q 438 858 446 889 q 378 842 396 853 q 353 803 360 831 q 346 717 346 776 l 346 349 q 392 150 346 218 q 540 82 438 82 q 613 96 576 82 q 672 138 649 110 q 710 223 699 169 q 722 382 722 276 l 722 676 q 714 783 722 746 q 686 836 706 819 q 628 858 667 853 q 621 943 621 899 q 764 939 672 939 q 904 943 853 939 q 896 858 904 894 q 843 838 861 854 q 818 786 825 822 q 811 683 811 750 l 811 379 m 482 -311 q 401 -283 432 -311 q 369 -214 369 -256 q 403 -137 369 -165 q 488 -108 436 -108 q 574 -136 543 -108 q 606 -212 606 -164 q 572 -283 606 -256 q 482 -311 538 -311 z "},"Ù":{"ha":953,"x_min":43,"x_max":904,"o":"m 811 379 q 794 182 811 254 q 729 64 776 110 q 493 -12 649 -12 q 283 24 360 -12 q 172 135 206 61 q 139 326 139 208 l 139 717 q 132 803 139 775 q 108 842 125 831 q 51 858 90 853 q 43 943 43 894 q 218 939 100 939 q 446 943 382 939 q 438 858 446 889 q 378 842 396 853 q 353 803 360 831 q 346 717 346 776 l 346 349 q 392 150 346 218 q 540 82 438 82 q 613 96 576 82 q 672 138 649 110 q 710 223 699 169 q 722 382 722 276 l 722 676 q 714 783 722 746 q 686 836 706 819 q 628 858 667 853 q 621 943 621 899 q 764 939 672 939 q 904 943 853 939 q 896 858 904 894 q 843 838 861 854 q 818 786 825 822 q 811 683 811 750 l 811 379 m 503 1019 q 354 1192 425 1124 q 430 1214 385 1207 q 518 1218 475 1221 q 608 1035 561 1113 q 503 1019 569 1019 z "},"Ủ":{"ha":953,"x_min":43,"x_max":904,"o":"m 811 379 q 794 182 811 254 q 729 64 776 110 q 493 -12 649 -12 q 283 24 360 -12 q 172 135 206 61 q 139 326 139 208 l 139 717 q 132 803 139 775 q 108 842 125 831 q 51 858 90 853 q 43 943 43 894 q 218 939 100 939 q 446 943 382 939 q 438 858 446 889 q 378 842 396 853 q 353 803 360 831 q 346 717 346 776 l 346 349 q 392 150 346 218 q 540 82 438 82 q 613 96 576 82 q 672 138 649 110 q 710 223 699 169 q 722 382 722 276 l 722 676 q 714 783 722 746 q 686 836 706 819 q 628 858 667 853 q 621 943 621 899 q 764 939 672 939 q 904 943 853 939 q 896 858 904 894 q 843 838 861 854 q 818 786 825 822 q 811 683 811 750 l 811 379 m 499 1003 q 486 1043 486 1022 q 497 1080 486 1065 q 529 1110 508 1094 q 556 1135 549 1125 q 564 1160 564 1144 q 529 1190 564 1190 q 491 1171 506 1190 q 469 1100 476 1151 q 389 1117 422 1100 q 393 1167 393 1144 q 389 1206 393 1188 q 542 1249 453 1249 q 642 1226 607 1249 q 676 1163 676 1204 q 660 1112 676 1131 q 614 1072 644 1093 q 585 1051 594 1060 q 576 1031 576 1042 q 581 1010 576 1021 q 524 1001 556 1001 q 499 1003 507 1001 z "},"Ư":{"ha":1065,"x_min":43,"x_max":1038,"o":"m 1008 1108 q 1038 1017 1038 1065 q 997 910 1038 950 q 896 858 956 869 q 843 838 861 854 q 818 786 825 822 q 811 683 811 750 l 811 379 q 794 182 811 254 q 729 64 776 110 q 493 -12 649 -12 q 283 24 360 -12 q 172 135 206 61 q 139 326 139 208 l 139 717 q 132 803 139 775 q 108 842 125 831 q 51 858 90 853 q 43 943 43 894 q 218 939 100 939 q 446 943 382 939 q 438 858 446 889 q 378 842 396 853 q 353 803 360 831 q 346 717 346 776 l 346 349 q 392 150 346 218 q 540 82 438 82 q 613 96 576 82 q 672 138 649 110 q 710 223 699 169 q 722 382 722 276 l 722 676 q 714 783 722 746 q 686 836 706 819 q 628 858 667 853 q 621 943 621 899 q 764 939 672 939 l 767 939 q 869 961 836 939 q 903 1032 903 983 q 894 1094 903 1057 q 978 1111 932 1111 q 1008 1108 989 1111 z "},"Ứ":{"ha":1065,"x_min":43,"x_max":1038,"o":"m 1008 1108 q 1038 1017 1038 1065 q 997 910 1038 950 q 896 858 956 869 q 843 838 861 854 q 818 786 825 822 q 811 683 811 750 l 811 379 q 794 182 811 254 q 729 64 776 110 q 493 -12 649 -12 q 283 24 360 -12 q 172 135 206 61 q 139 326 139 208 l 139 717 q 132 803 139 775 q 108 842 125 831 q 51 858 90 853 q 43 943 43 894 q 218 939 100 939 q 446 943 382 939 q 438 858 446 889 q 378 842 396 853 q 353 803 360 831 q 346 717 346 776 l 346 349 q 392 150 346 218 q 540 82 438 82 q 613 96 576 82 q 672 138 649 110 q 710 223 699 169 q 722 382 722 276 l 722 676 q 714 783 722 746 q 686 836 706 819 q 628 858 667 853 q 621 943 621 899 q 764 939 672 939 l 767 939 q 869 961 836 939 q 903 1032 903 983 q 894 1094 903 1057 q 978 1111 932 1111 q 1008 1108 989 1111 m 558 1019 q 458 1035 499 1019 q 540 1211 513 1136 q 640 1222 592 1222 q 721 1213 688 1222 q 558 1019 636 1119 z "},"Ự":{"ha":1065,"x_min":43,"x_max":1038,"o":"m 1008 1108 q 1038 1017 1038 1065 q 997 910 1038 950 q 896 858 956 869 q 843 838 861 854 q 818 786 825 822 q 811 683 811 750 l 811 379 q 794 182 811 254 q 729 64 776 110 q 493 -12 649 -12 q 283 24 360 -12 q 172 135 206 61 q 139 326 139 208 l 139 717 q 132 803 139 775 q 108 842 125 831 q 51 858 90 853 q 43 943 43 894 q 218 939 100 939 q 446 943 382 939 q 438 858 446 889 q 378 842 396 853 q 353 803 360 831 q 346 717 346 776 l 346 349 q 392 150 346 218 q 540 82 438 82 q 613 96 576 82 q 672 138 649 110 q 710 223 699 169 q 722 382 722 276 l 722 676 q 714 783 722 746 q 686 836 706 819 q 628 858 667 853 q 621 943 621 899 q 764 939 672 939 l 767 939 q 869 961 836 939 q 903 1032 903 983 q 894 1094 903 1057 q 978 1111 932 1111 q 1008 1108 989 1111 m 482 -311 q 401 -283 432 -311 q 369 -214 369 -256 q 403 -137 369 -165 q 488 -108 436 -108 q 574 -136 543 -108 q 606 -212 606 -164 q 572 -283 606 -256 q 482 -311 538 -311 z "},"Ừ":{"ha":1065,"x_min":43,"x_max":1038,"o":"m 1008 1108 q 1038 1017 1038 1065 q 997 910 1038 950 q 896 858 956 869 q 843 838 861 854 q 818 786 825 822 q 811 683 811 750 l 811 379 q 794 182 811 254 q 729 64 776 110 q 493 -12 649 -12 q 283 24 360 -12 q 172 135 206 61 q 139 326 139 208 l 139 717 q 132 803 139 775 q 108 842 125 831 q 51 858 90 853 q 43 943 43 894 q 218 939 100 939 q 446 943 382 939 q 438 858 446 889 q 378 842 396 853 q 353 803 360 831 q 346 717 346 776 l 346 349 q 392 150 346 218 q 540 82 438 82 q 613 96 576 82 q 672 138 649 110 q 710 223 699 169 q 722 382 722 276 l 722 676 q 714 783 722 746 q 686 836 706 819 q 628 858 667 853 q 621 943 621 899 q 764 939 672 939 l 767 939 q 869 961 836 939 q 903 1032 903 983 q 894 1094 903 1057 q 978 1111 932 1111 q 1008 1108 989 1111 m 503 1019 q 354 1192 425 1124 q 430 1214 385 1207 q 518 1218 475 1221 q 608 1035 561 1113 q 503 1019 569 1019 z "},"Ử":{"ha":1065,"x_min":43,"x_max":1038,"o":"m 1008 1108 q 1038 1017 1038 1065 q 997 910 1038 950 q 896 858 956 869 q 843 838 861 854 q 818 786 825 822 q 811 683 811 750 l 811 379 q 794 182 811 254 q 729 64 776 110 q 493 -12 649 -12 q 283 24 360 -12 q 172 135 206 61 q 139 326 139 208 l 139 717 q 132 803 139 775 q 108 842 125 831 q 51 858 90 853 q 43 943 43 894 q 218 939 100 939 q 446 943 382 939 q 438 858 446 889 q 378 842 396 853 q 353 803 360 831 q 346 717 346 776 l 346 349 q 392 150 346 218 q 540 82 438 82 q 613 96 576 82 q 672 138 649 110 q 710 223 699 169 q 722 382 722 276 l 722 676 q 714 783 722 746 q 686 836 706 819 q 628 858 667 853 q 621 943 621 899 q 764 939 672 939 l 767 939 q 869 961 836 939 q 903 1032 903 983 q 894 1094 903 1057 q 978 1111 932 1111 q 1008 1108 989 1111 m 499 1003 q 486 1043 486 1022 q 497 1080 486 1065 q 529 1110 508 1094 q 556 1135 549 1125 q 564 1160 564 1144 q 529 1190 564 1190 q 491 1171 506 1190 q 469 1100 476 1151 q 389 1117 422 1100 q 393 1167 393 1144 q 389 1206 393 1188 q 542 1249 453 1249 q 642 1226 607 1249 q 676 1163 676 1204 q 660 1112 676 1131 q 614 1072 644 1093 q 585 1051 594 1060 q 576 1031 576 1042 q 581 1010 576 1021 q 524 1001 556 1001 q 499 1003 507 1001 z "},"Ữ":{"ha":1065,"x_min":43,"x_max":1038,"o":"m 1008 1108 q 1038 1017 1038 1065 q 997 910 1038 950 q 896 858 956 869 q 843 838 861 854 q 818 786 825 822 q 811 683 811 750 l 811 379 q 794 182 811 254 q 729 64 776 110 q 493 -12 649 -12 q 283 24 360 -12 q 172 135 206 61 q 139 326 139 208 l 139 717 q 132 803 139 775 q 108 842 125 831 q 51 858 90 853 q 43 943 43 894 q 218 939 100 939 q 446 943 382 939 q 438 858 446 889 q 378 842 396 853 q 353 803 360 831 q 346 717 346 776 l 346 349 q 392 150 346 218 q 540 82 438 82 q 613 96 576 82 q 672 138 649 110 q 710 223 699 169 q 722 382 722 276 l 722 676 q 714 783 722 746 q 686 836 706 819 q 628 858 667 853 q 621 943 621 899 q 764 939 672 939 l 767 939 q 869 961 836 939 q 903 1032 903 983 q 894 1094 903 1057 q 978 1111 932 1111 q 1008 1108 989 1111 m 606 1029 q 553 1037 575 1029 q 499 1061 532 1044 q 453 1082 471 1075 q 414 1089 436 1089 q 311 1033 360 1089 q 275 1108 276 1064 q 360 1183 313 1160 q 454 1206 407 1206 q 510 1197 485 1206 q 564 1175 535 1189 q 610 1156 594 1161 q 646 1150 626 1150 q 728 1196 692 1150 q 792 1163 769 1189 q 710 1063 757 1097 q 606 1029 663 1029 z "},"Ű":{"ha":953,"x_min":43,"x_max":904,"o":"m 811 379 q 794 182 811 254 q 729 64 776 110 q 493 -12 649 -12 q 283 24 360 -12 q 172 135 206 61 q 139 326 139 208 l 139 717 q 132 803 139 775 q 108 842 125 831 q 51 858 90 853 q 43 943 43 894 q 218 939 100 939 q 446 943 382 939 q 438 858 446 889 q 378 842 396 853 q 353 803 360 831 q 346 717 346 776 l 346 349 q 392 150 346 218 q 540 82 438 82 q 613 96 576 82 q 672 138 649 110 q 710 223 699 169 q 722 382 722 276 l 722 676 q 714 783 722 746 q 686 836 706 819 q 628 858 667 853 q 621 943 621 899 q 764 939 672 939 q 904 943 853 939 q 896 858 904 894 q 843 838 861 854 q 818 786 825 822 q 811 683 811 750 l 811 379 m 432 1019 q 379 1028 406 1021 q 338 1046 353 1035 q 401 1206 374 1119 q 522 1225 454 1225 q 589 1215 564 1225 q 432 1019 506 1124 m 683 1019 q 631 1028 657 1021 q 589 1046 604 1035 q 653 1206 625 1119 q 772 1225 706 1225 q 840 1215 815 1225 q 683 1019 757 1124 z "},"Ȗ":{"ha":953,"x_min":43,"x_max":904,"o":"m 811 379 q 794 182 811 254 q 729 64 776 110 q 493 -12 649 -12 q 283 24 360 -12 q 172 135 206 61 q 139 326 139 208 l 139 717 q 132 803 139 775 q 108 842 125 831 q 51 858 90 853 q 43 943 43 894 q 218 939 100 939 q 446 943 382 939 q 438 858 446 889 q 378 842 396 853 q 353 803 360 831 q 346 717 346 776 l 346 349 q 392 150 346 218 q 540 82 438 82 q 613 96 576 82 q 672 138 649 110 q 710 223 699 169 q 722 382 722 276 l 722 676 q 714 783 722 746 q 686 836 706 819 q 628 858 667 853 q 621 943 621 899 q 764 939 672 939 q 904 943 853 939 q 896 858 904 894 q 843 838 861 854 q 818 786 825 822 q 811 683 811 750 l 811 379 m 303 1017 q 363 1165 303 1114 q 536 1215 422 1215 q 706 1166 647 1215 q 764 1022 764 1117 q 683 1007 729 1007 q 658 1008 667 1007 q 615 1074 651 1051 q 521 1097 579 1097 q 430 1074 464 1097 q 393 1008 396 1051 q 363 1006 374 1006 q 303 1017 329 1006 z "},"Ū":{"ha":953,"x_min":43,"x_max":904,"o":"m 811 379 q 794 182 811 254 q 729 64 776 110 q 493 -12 649 -12 q 283 24 360 -12 q 172 135 206 61 q 139 326 139 208 l 139 717 q 132 803 139 775 q 108 842 125 831 q 51 858 90 853 q 43 943 43 894 q 218 939 100 939 q 446 943 382 939 q 438 858 446 889 q 378 842 396 853 q 353 803 360 831 q 346 717 346 776 l 346 349 q 392 150 346 218 q 540 82 438 82 q 613 96 576 82 q 672 138 649 110 q 710 223 699 169 q 722 382 722 276 l 722 676 q 714 783 722 746 q 686 836 706 819 q 628 858 667 853 q 621 943 621 899 q 764 939 672 939 q 904 943 853 939 q 896 858 904 894 q 843 838 861 854 q 818 786 825 822 q 811 683 811 750 l 811 379 m 796 1135 q 783 1060 796 1093 q 269 1047 531 1060 q 282 1135 269 1104 l 796 1135 z "},"Ṻ":{"ha":953,"x_min":43,"x_max":904,"o":"m 811 379 q 794 182 811 254 q 729 64 776 110 q 493 -12 649 -12 q 283 24 360 -12 q 172 135 206 61 q 139 326 139 208 l 139 717 q 132 803 139 775 q 108 842 125 831 q 51 858 90 853 q 43 943 43 894 q 218 939 100 939 q 446 943 382 939 q 438 858 446 889 q 378 842 396 853 q 353 803 360 831 q 346 717 346 776 l 346 349 q 392 150 346 218 q 540 82 438 82 q 613 96 576 82 q 672 138 649 110 q 710 223 699 169 q 722 382 722 276 l 722 676 q 714 783 722 746 q 686 836 706 819 q 628 858 667 853 q 621 943 621 899 q 764 939 672 939 q 904 943 853 939 q 896 858 904 894 q 843 838 861 854 q 818 786 825 822 q 811 683 811 750 l 811 379 m 796 1135 q 783 1060 796 1093 q 269 1047 531 1060 q 282 1135 269 1104 l 796 1135 z "},"Ų":{"ha":953,"x_min":43,"x_max":904,"o":"m 764 939 q 904 943 853 939 q 896 858 904 894 q 843 838 861 854 q 818 786 825 822 q 811 683 811 750 l 811 379 q 794 182 811 254 q 729 64 776 110 q 692 35 713 47 q 576 -121 576 -39 q 674 -200 576 -200 q 726 -193 706 -200 q 739 -225 733 -204 q 744 -265 744 -246 q 743 -281 744 -275 q 597 -344 656 -304 q 568 -346 586 -346 q 494 -329 531 -346 q 432 -276 457 -312 q 407 -185 407 -239 q 434 -93 407 -135 q 532 -11 461 -51 q 493 -12 519 -12 q 283 24 360 -12 q 172 135 206 61 q 139 326 139 208 l 139 717 q 132 803 139 775 q 108 842 125 831 q 51 858 90 853 q 43 943 43 894 q 218 939 100 939 q 446 943 382 939 q 438 858 446 889 q 378 842 396 853 q 353 803 360 831 q 346 717 346 776 l 346 349 q 392 150 346 218 q 540 82 438 82 q 613 96 576 82 q 672 138 649 110 q 710 223 699 169 q 722 382 722 276 l 722 676 q 714 783 722 746 q 686 836 706 819 q 628 858 667 853 q 621 943 621 899 q 764 939 672 939 z "},"Ů":{"ha":953,"x_min":43,"x_max":904,"o":"m 811 379 q 794 182 811 254 q 729 64 776 110 q 493 -12 649 -12 q 283 24 360 -12 q 172 135 206 61 q 139 326 139 208 l 139 717 q 132 803 139 775 q 108 842 125 831 q 51 858 90 853 q 43 943 43 894 q 218 939 100 939 q 446 943 382 939 q 438 858 446 889 q 378 842 396 853 q 353 803 360 831 q 346 717 346 776 l 346 349 q 392 150 346 218 q 540 82 438 82 q 613 96 576 82 q 672 138 649 110 q 710 223 699 169 q 722 382 722 276 l 722 676 q 714 783 722 746 q 686 836 706 819 q 628 858 667 853 q 621 943 621 899 q 764 939 672 939 q 904 943 853 939 q 896 858 904 894 q 843 838 861 854 q 818 786 825 822 q 811 683 811 750 l 811 379 m 526 997 q 418 1028 461 997 q 375 1111 375 1058 q 421 1199 375 1165 q 539 1232 467 1232 q 649 1203 606 1232 q 692 1119 692 1175 q 646 1031 692 1065 q 526 997 600 997 m 538 1051 q 574 1067 560 1051 q 589 1110 589 1083 q 573 1160 589 1138 q 528 1183 557 1183 q 492 1166 506 1183 q 478 1118 478 1149 q 494 1069 478 1088 q 538 1051 510 1051 z "},"Ũ":{"ha":953,"x_min":43,"x_max":904,"o":"m 811 379 q 794 182 811 254 q 729 64 776 110 q 493 -12 649 -12 q 283 24 360 -12 q 172 135 206 61 q 139 326 139 208 l 139 717 q 132 803 139 775 q 108 842 125 831 q 51 858 90 853 q 43 943 43 894 q 218 939 100 939 q 446 943 382 939 q 438 858 446 889 q 378 842 396 853 q 353 803 360 831 q 346 717 346 776 l 346 349 q 392 150 346 218 q 540 82 438 82 q 613 96 576 82 q 672 138 649 110 q 710 223 699 169 q 722 382 722 276 l 722 676 q 714 783 722 746 q 686 836 706 819 q 628 858 667 853 q 621 943 621 899 q 764 939 672 939 q 904 943 853 939 q 896 858 904 894 q 843 838 861 854 q 818 786 825 822 q 811 683 811 750 l 811 379 m 606 1029 q 553 1037 575 1029 q 499 1061 532 1044 q 453 1082 471 1075 q 414 1089 436 1089 q 311 1033 360 1089 q 275 1108 276 1064 q 360 1183 313 1160 q 454 1206 407 1206 q 510 1197 485 1206 q 564 1175 535 1189 q 610 1156 594 1161 q 646 1150 626 1150 q 728 1196 692 1150 q 792 1163 769 1189 q 710 1063 757 1097 q 606 1029 663 1029 z "},"Ṹ":{"ha":953,"x_min":43,"x_max":904,"o":"m 811 379 q 794 182 811 254 q 729 64 776 110 q 493 -12 649 -12 q 283 24 360 -12 q 172 135 206 61 q 139 326 139 208 l 139 717 q 132 803 139 775 q 108 842 125 831 q 51 858 90 853 q 43 943 43 894 q 218 939 100 939 q 446 943 382 939 q 438 858 446 889 q 378 842 396 853 q 353 803 360 831 q 346 717 346 776 l 346 349 q 392 150 346 218 q 540 82 438 82 q 613 96 576 82 q 672 138 649 110 q 710 223 699 169 q 722 382 722 276 l 722 676 q 714 783 722 746 q 686 836 706 819 q 628 858 667 853 q 621 943 621 899 q 764 939 672 939 q 904 943 853 939 q 896 858 904 894 q 843 838 861 854 q 818 786 825 822 q 811 683 811 750 l 811 379 m 606 1029 q 553 1037 575 1029 q 499 1061 532 1044 q 453 1082 471 1075 q 414 1089 436 1089 q 311 1033 360 1089 q 275 1108 276 1064 q 360 1183 313 1160 q 454 1206 407 1206 q 510 1197 485 1206 q 564 1175 535 1189 q 610 1156 594 1161 q 646 1150 626 1150 q 728 1196 692 1150 q 792 1163 769 1189 q 710 1063 757 1097 q 606 1029 663 1029 m 558 1271 q 458 1286 499 1271 q 540 1463 513 1388 q 640 1474 592 1474 q 721 1464 688 1474 q 558 1271 636 1371 z "},"V":{"ha":968,"x_min":24,"x_max":944,"o":"m 804 939 q 944 943 894 939 q 933 858 944 899 q 871 817 896 850 q 817 707 846 783 q 529 -1 671 335 q 436 -11 500 -11 q 153 696 276 415 q 104 799 121 768 q 72 842 88 829 q 33 858 57 854 q 24 943 24 889 q 222 939 86 939 q 426 943 354 939 q 417 858 424 886 q 361 844 378 854 q 344 810 344 833 q 374 713 344 779 q 544 257 483 443 q 728 722 650 500 q 742 789 742 764 q 675 858 742 849 q 665 943 665 889 q 804 939 719 939 z "},"W":{"ha":1381,"x_min":24,"x_max":1356,"o":"m 1214 939 q 1356 943 1300 939 q 1344 858 1356 889 q 1303 832 1319 850 q 1269 774 1286 814 q 1229 658 1253 735 l 1028 -1 q 981 -10 1013 -7 q 922 -12 950 -12 q 682 628 792 350 l 464 -3 q 360 -12 433 -12 q 142 685 260 324 q 99 799 114 767 q 72 842 85 832 q 32 856 58 853 q 24 943 24 888 q 221 939 90 939 q 426 943 367 939 q 417 858 426 897 q 353 842 372 854 q 333 803 333 831 q 358 704 333 774 q 479 310 428 492 l 699 940 q 789 950 726 950 q 1032 300 925 599 l 1143 660 q 1164 768 1164 729 q 1142 831 1164 810 q 1075 858 1121 851 q 1063 943 1063 890 q 1214 939 1121 939 z "},"Ẃ":{"ha":1381,"x_min":24,"x_max":1356,"o":"m 1214 939 q 1356 943 1300 939 q 1344 858 1356 889 q 1303 832 1319 850 q 1269 774 1286 814 q 1229 658 1253 735 l 1028 -1 q 981 -10 1013 -7 q 922 -12 950 -12 q 682 628 792 350 l 464 -3 q 360 -12 433 -12 q 142 685 260 324 q 99 799 114 767 q 72 842 85 832 q 32 856 58 853 q 24 943 24 888 q 221 939 90 939 q 426 943 367 939 q 417 858 426 897 q 353 842 372 854 q 333 803 333 831 q 358 704 333 774 q 479 310 428 492 l 699 940 q 789 950 726 950 q 1032 300 925 599 l 1143 660 q 1164 768 1164 729 q 1142 831 1164 810 q 1075 858 1121 851 q 1063 943 1063 890 q 1214 939 1121 939 m 769 1019 q 669 1035 710 1019 q 751 1211 724 1136 q 851 1222 803 1222 q 932 1213 899 1222 q 769 1019 847 1119 z "},"Ŵ":{"ha":1381,"x_min":24,"x_max":1356,"o":"m 1214 939 q 1356 943 1300 939 q 1344 858 1356 889 q 1303 832 1319 850 q 1269 774 1286 814 q 1229 658 1253 735 l 1028 -1 q 981 -10 1013 -7 q 922 -12 950 -12 q 682 628 792 350 l 464 -3 q 360 -12 433 -12 q 142 685 260 324 q 99 799 114 767 q 72 842 85 832 q 32 856 58 853 q 24 943 24 888 q 221 939 90 939 q 426 943 367 939 q 417 858 426 897 q 353 842 372 854 q 333 803 333 831 q 358 704 333 774 q 479 310 428 492 l 699 940 q 789 950 726 950 q 1032 300 925 599 l 1143 660 q 1164 768 1164 729 q 1142 831 1164 810 q 1075 858 1121 851 q 1063 943 1063 890 q 1214 939 1121 939 m 563 1011 q 524 1033 540 1015 q 503 1072 508 1051 q 706 1221 628 1149 q 793 1231 738 1231 q 985 1067 865 1154 q 893 1011 949 1022 q 729 1099 804 1065 q 563 1011 600 1036 z "},"Ẅ":{"ha":1381,"x_min":24,"x_max":1356,"o":"m 1214 939 q 1356 943 1300 939 q 1344 858 1356 889 q 1303 832 1319 850 q 1269 774 1286 814 q 1229 658 1253 735 l 1028 -1 q 981 -10 1013 -7 q 922 -12 950 -12 q 682 628 792 350 l 464 -3 q 360 -12 433 -12 q 142 685 260 324 q 99 799 114 767 q 72 842 85 832 q 32 856 58 853 q 24 943 24 888 q 221 939 90 939 q 426 943 367 939 q 417 858 426 897 q 353 842 372 854 q 333 803 333 831 q 358 704 333 774 q 479 310 428 492 l 699 940 q 789 950 726 950 q 1032 300 925 599 l 1143 660 q 1164 768 1164 729 q 1142 831 1164 810 q 1075 858 1121 851 q 1063 943 1063 890 q 1214 939 1121 939 z "},"Ẁ":{"ha":1381,"x_min":24,"x_max":1356,"o":"m 1214 939 q 1356 943 1300 939 q 1344 858 1356 889 q 1303 832 1319 850 q 1269 774 1286 814 q 1229 658 1253 735 l 1028 -1 q 981 -10 1013 -7 q 922 -12 950 -12 q 682 628 792 350 l 464 -3 q 360 -12 433 -12 q 142 685 260 324 q 99 799 114 767 q 72 842 85 832 q 32 856 58 853 q 24 943 24 888 q 221 939 90 939 q 426 943 367 939 q 417 858 426 897 q 353 842 372 854 q 333 803 333 831 q 358 704 333 774 q 479 310 428 492 l 699 940 q 789 950 726 950 q 1032 300 925 599 l 1143 660 q 1164 768 1164 729 q 1142 831 1164 810 q 1075 858 1121 851 q 1063 943 1063 890 q 1214 939 1121 939 m 714 1019 q 565 1192 636 1124 q 641 1214 596 1207 q 729 1218 686 1221 q 819 1035 772 1113 q 714 1019 781 1019 z "},"X":{"ha":972,"x_min":42,"x_max":931,"o":"m 921 81 q 931 -4 931 53 q 714 0 871 0 q 506 -3 589 0 q 514 81 506 46 q 555 91 542 85 q 568 114 568 97 q 504 253 568 147 q 435 368 476 301 l 353 246 q 294 126 294 158 q 309 97 294 107 q 356 81 324 88 q 365 -4 365 50 q 200 0 294 0 q 42 -4 99 0 q 51 83 42 57 q 145 131 101 96 q 242 240 189 167 l 388 446 q 225 699 338 525 q 155 800 179 769 q 114 841 131 831 q 71 857 97 851 q 60 943 60 890 q 290 939 133 939 q 478 942 392 939 q 469 858 478 900 q 426 844 440 853 q 413 818 413 835 q 458 718 413 792 l 547 581 l 622 699 q 672 814 672 781 q 658 844 672 833 q 615 858 644 854 q 606 943 606 888 q 764 939 674 939 q 911 943 860 939 q 904 858 911 885 q 846 836 869 850 q 797 792 822 822 q 732 703 771 763 l 599 500 q 735 279 656 410 q 815 155 786 194 q 867 101 844 115 q 921 81 889 86 z "},"Y":{"ha":878,"x_min":24,"x_max":854,"o":"m 729 939 q 854 942 815 939 q 844 860 854 901 q 785 822 813 851 q 728 728 758 793 l 549 349 l 549 251 q 558 145 549 178 q 591 99 567 113 q 672 81 615 86 q 683 -4 683 43 q 443 0 578 0 q 240 -3 360 0 q 199 -4 225 -4 q 211 81 201 53 q 299 97 274 86 q 333 140 325 108 q 342 244 342 171 l 342 351 l 131 776 q 87 838 110 819 q 33 858 64 856 q 24 942 24 896 q 215 939 78 939 q 425 942 375 939 q 417 860 425 897 q 363 817 363 854 q 385 746 363 793 q 513 453 454 603 q 640 740 589 631 q 661 808 661 782 q 601 858 661 851 q 590 942 590 899 q 729 939 632 939 z "},"Ý":{"ha":878,"x_min":24,"x_max":854,"o":"m 729 939 q 854 942 815 939 q 844 860 854 901 q 785 822 813 851 q 728 728 758 793 l 549 349 l 549 251 q 558 145 549 178 q 591 99 567 113 q 672 81 615 86 q 683 -4 683 43 q 443 0 578 0 q 240 -3 360 0 q 199 -4 225 -4 q 211 81 201 53 q 299 97 274 86 q 333 140 325 108 q 342 244 342 171 l 342 351 l 131 776 q 87 838 110 819 q 33 858 64 856 q 24 942 24 896 q 215 939 78 939 q 425 942 375 939 q 417 860 425 897 q 363 817 363 854 q 385 746 363 793 q 513 453 454 603 q 640 740 589 631 q 661 808 661 782 q 601 858 661 851 q 590 942 590 899 q 729 939 632 939 m 528 1019 q 428 1035 468 1019 q 510 1211 482 1136 q 610 1222 561 1222 q 690 1213 657 1222 q 528 1019 606 1119 z "},"Ŷ":{"ha":878,"x_min":24,"x_max":854,"o":"m 729 939 q 854 942 815 939 q 844 860 854 901 q 785 822 813 851 q 728 728 758 793 l 549 349 l 549 251 q 558 145 549 178 q 591 99 567 113 q 672 81 615 86 q 683 -4 683 43 q 443 0 578 0 q 240 -3 360 0 q 199 -4 225 -4 q 211 81 201 53 q 299 97 274 86 q 333 140 325 108 q 342 244 342 171 l 342 351 l 131 776 q 87 838 110 819 q 33 858 64 856 q 24 942 24 896 q 215 939 78 939 q 425 942 375 939 q 417 860 425 897 q 363 817 363 854 q 385 746 363 793 q 513 453 454 603 q 640 740 589 631 q 661 808 661 782 q 601 858 661 851 q 590 942 590 899 q 729 939 632 939 m 321 1011 q 283 1033 299 1015 q 261 1072 267 1051 q 464 1221 386 1149 q 551 1231 496 1231 q 743 1067 624 1154 q 651 1011 707 1022 q 488 1099 563 1065 q 321 1011 358 1036 z "},"Ÿ":{"ha":878,"x_min":24,"x_max":854,"o":"m 729 939 q 854 942 815 939 q 844 860 854 901 q 785 822 813 851 q 728 728 758 793 l 549 349 l 549 251 q 558 145 549 178 q 591 99 567 113 q 672 81 615 86 q 683 -4 683 43 q 443 0 578 0 q 240 -3 360 0 q 199 -4 225 -4 q 211 81 201 53 q 299 97 274 86 q 333 140 325 108 q 342 244 342 171 l 342 351 l 131 776 q 87 838 110 819 q 33 858 64 856 q 24 942 24 896 q 215 939 78 939 q 425 942 375 939 q 417 860 425 897 q 363 817 363 854 q 385 746 363 793 q 513 453 454 603 q 640 740 589 631 q 661 808 661 782 q 601 858 661 851 q 590 942 590 899 q 729 939 632 939 z "},"Ẏ":{"ha":878,"x_min":24,"x_max":854,"o":"m 729 939 q 854 942 815 939 q 844 860 854 901 q 785 822 813 851 q 728 728 758 793 l 549 349 l 549 251 q 558 145 549 178 q 591 99 567 113 q 672 81 615 86 q 683 -4 683 43 q 443 0 578 0 q 240 -3 360 0 q 199 -4 225 -4 q 211 81 201 53 q 299 97 274 86 q 333 140 325 108 q 342 244 342 171 l 342 351 l 131 776 q 87 838 110 819 q 33 858 64 856 q 24 942 24 896 q 215 939 78 939 q 425 942 375 939 q 417 860 425 897 q 363 817 363 854 q 385 746 363 793 q 513 453 454 603 q 640 740 589 631 q 661 808 661 782 q 601 858 661 851 q 590 942 590 899 q 729 939 632 939 z "},"Ỵ":{"ha":878,"x_min":24,"x_max":854,"o":"m 729 939 q 854 942 815 939 q 844 860 854 901 q 785 822 813 851 q 728 728 758 793 l 549 349 l 549 251 q 558 145 549 178 q 591 99 567 113 q 672 81 615 86 q 683 -4 683 43 q 443 0 578 0 q 240 -3 360 0 q 199 -4 225 -4 q 211 81 201 53 q 299 97 274 86 q 333 140 325 108 q 342 244 342 171 l 342 351 l 131 776 q 87 838 110 819 q 33 858 64 856 q 24 942 24 896 q 215 939 78 939 q 425 942 375 939 q 417 860 425 897 q 363 817 363 854 q 385 746 363 793 q 513 453 454 603 q 640 740 589 631 q 661 808 661 782 q 601 858 661 851 q 590 942 590 899 q 729 939 632 939 m 436 -311 q 355 -283 386 -311 q 324 -214 324 -256 q 357 -137 324 -165 q 442 -108 390 -108 q 528 -136 497 -108 q 560 -212 560 -164 q 526 -283 560 -256 q 436 -311 492 -311 z "},"Ỳ":{"ha":878,"x_min":24,"x_max":854,"o":"m 729 939 q 854 942 815 939 q 844 860 854 901 q 785 822 813 851 q 728 728 758 793 l 549 349 l 549 251 q 558 145 549 178 q 591 99 567 113 q 672 81 615 86 q 683 -4 683 43 q 443 0 578 0 q 240 -3 360 0 q 199 -4 225 -4 q 211 81 201 53 q 299 97 274 86 q 333 140 325 108 q 342 244 342 171 l 342 351 l 131 776 q 87 838 110 819 q 33 858 64 856 q 24 942 24 896 q 215 939 78 939 q 425 942 375 939 q 417 860 425 897 q 363 817 363 854 q 385 746 363 793 q 513 453 454 603 q 640 740 589 631 q 661 808 661 782 q 601 858 661 851 q 590 942 590 899 q 729 939 632 939 m 472 1019 q 324 1192 394 1124 q 399 1214 354 1207 q 488 1218 444 1221 q 578 1035 531 1113 q 472 1019 539 1019 z "},"Ỷ":{"ha":878,"x_min":24,"x_max":854,"o":"m 729 939 q 854 942 815 939 q 844 860 854 901 q 785 822 813 851 q 728 728 758 793 l 549 349 l 549 251 q 558 145 549 178 q 591 99 567 113 q 672 81 615 86 q 683 -4 683 43 q 443 0 578 0 q 240 -3 360 0 q 199 -4 225 -4 q 211 81 201 53 q 299 97 274 86 q 333 140 325 108 q 342 244 342 171 l 342 351 l 131 776 q 87 838 110 819 q 33 858 64 856 q 24 942 24 896 q 215 939 78 939 q 425 942 375 939 q 417 860 425 897 q 363 817 363 854 q 385 746 363 793 q 513 453 454 603 q 640 740 589 631 q 661 808 661 782 q 601 858 661 851 q 590 942 590 899 q 729 939 632 939 m 468 1003 q 456 1043 456 1022 q 467 1080 456 1065 q 499 1110 478 1094 q 526 1135 518 1125 q 533 1160 533 1144 q 499 1190 533 1190 q 460 1171 475 1190 q 439 1100 446 1151 q 358 1117 392 1100 q 363 1167 363 1144 q 358 1206 363 1188 q 511 1249 422 1249 q 611 1226 576 1249 q 646 1163 646 1204 q 630 1112 646 1131 q 583 1072 614 1093 q 555 1051 564 1060 q 546 1031 546 1042 q 550 1010 546 1021 q 493 1001 525 1001 q 468 1003 476 1001 z "},"Ȳ":{"ha":878,"x_min":24,"x_max":854,"o":"m 729 939 q 854 942 815 939 q 844 860 854 901 q 785 822 813 851 q 728 728 758 793 l 549 349 l 549 251 q 558 145 549 178 q 591 99 567 113 q 672 81 615 86 q 683 -4 683 43 q 443 0 578 0 q 240 -3 360 0 q 199 -4 225 -4 q 211 81 201 53 q 299 97 274 86 q 333 140 325 108 q 342 244 342 171 l 342 351 l 131 776 q 87 838 110 819 q 33 858 64 856 q 24 942 24 896 q 215 939 78 939 q 425 942 375 939 q 417 860 425 897 q 363 817 363 854 q 385 746 363 793 q 513 453 454 603 q 640 740 589 631 q 661 808 661 782 q 601 858 661 851 q 590 942 590 899 q 729 939 632 939 m 765 1135 q 753 1060 765 1093 q 239 1047 500 1060 q 251 1135 239 1104 l 765 1135 z "},"Ỹ":{"ha":878,"x_min":24,"x_max":854,"o":"m 729 939 q 854 942 815 939 q 844 860 854 901 q 785 822 813 851 q 728 728 758 793 l 549 349 l 549 251 q 558 145 549 178 q 591 99 567 113 q 672 81 615 86 q 683 -4 683 43 q 443 0 578 0 q 240 -3 360 0 q 199 -4 225 -4 q 211 81 201 53 q 299 97 274 86 q 333 140 325 108 q 342 244 342 171 l 342 351 l 131 776 q 87 838 110 819 q 33 858 64 856 q 24 942 24 896 q 215 939 78 939 q 425 942 375 939 q 417 860 425 897 q 363 817 363 854 q 385 746 363 793 q 513 453 454 603 q 640 740 589 631 q 661 808 661 782 q 601 858 661 851 q 590 942 590 899 q 729 939 632 939 m 575 1029 q 523 1037 544 1029 q 468 1061 501 1044 q 423 1082 440 1075 q 383 1089 406 1089 q 281 1033 329 1089 q 244 1108 246 1064 q 329 1183 282 1160 q 424 1206 376 1206 q 479 1197 454 1206 q 533 1175 504 1189 q 580 1156 564 1161 q 615 1150 596 1150 q 697 1196 661 1150 q 761 1163 739 1189 q 679 1063 726 1097 q 575 1029 632 1029 z "},"Z":{"ha":844,"x_min":60,"x_max":781,"o":"m 667 265 q 781 233 733 261 q 759 117 768 185 q 749 -4 750 49 q 388 0 626 0 q 81 -4 188 0 q 60 68 60 28 q 108 151 93 124 q 339 545 254 397 q 511 858 424 693 l 379 858 q 293 843 325 858 q 240 788 261 828 q 201 668 218 747 q 86 685 118 668 q 109 808 101 738 q 117 942 117 878 q 449 939 181 939 q 738 942 646 939 q 760 869 758 910 q 314 82 549 468 l 443 82 q 559 97 518 82 q 624 149 600 111 q 667 265 649 188 z "},"Ź":{"ha":844,"x_min":60,"x_max":781,"o":"m 667 265 q 781 233 733 261 q 759 117 768 185 q 749 -4 750 49 q 388 0 626 0 q 81 -4 188 0 q 60 68 60 28 q 108 151 93 124 q 339 545 254 397 q 511 858 424 693 l 379 858 q 293 843 325 858 q 240 788 261 828 q 201 668 218 747 q 86 685 118 668 q 109 808 101 738 q 117 942 117 878 q 449 939 181 939 q 738 942 646 939 q 760 869 758 910 q 314 82 549 468 l 443 82 q 559 97 518 82 q 624 149 600 111 q 667 265 649 188 m 463 1019 q 363 1035 403 1019 q 444 1211 417 1136 q 544 1222 496 1222 q 625 1213 592 1222 q 463 1019 540 1119 z "},"Ž":{"ha":844,"x_min":60,"x_max":781,"o":"m 667 265 q 781 233 733 261 q 759 117 768 185 q 749 -4 750 49 q 388 0 626 0 q 81 -4 188 0 q 60 68 60 28 q 108 151 93 124 q 339 545 254 397 q 511 858 424 693 l 379 858 q 293 843 325 858 q 240 788 261 828 q 201 668 218 747 q 86 685 118 668 q 109 808 101 738 q 117 942 117 878 q 449 939 181 939 q 738 942 646 939 q 760 869 758 910 q 314 82 549 468 l 443 82 q 559 97 518 82 q 624 149 600 111 q 667 265 649 188 m 375 1011 q 185 1175 306 1086 q 275 1231 221 1219 q 440 1144 361 1179 q 528 1188 479 1163 q 607 1231 578 1213 q 645 1208 629 1226 q 667 1169 661 1190 q 464 1022 544 1094 q 375 1011 432 1011 z "},"Ẑ":{"ha":844,"x_min":60,"x_max":781,"o":"m 667 265 q 781 233 733 261 q 759 117 768 185 q 749 -4 750 49 q 388 0 626 0 q 81 -4 188 0 q 60 68 60 28 q 108 151 93 124 q 339 545 254 397 q 511 858 424 693 l 379 858 q 293 843 325 858 q 240 788 261 828 q 201 668 218 747 q 86 685 118 668 q 109 808 101 738 q 117 942 117 878 q 449 939 181 939 q 738 942 646 939 q 760 869 758 910 q 314 82 549 468 l 443 82 q 559 97 518 82 q 624 149 600 111 q 667 265 649 188 m 256 1011 q 217 1033 233 1015 q 196 1072 201 1051 q 399 1221 321 1149 q 486 1231 431 1231 q 678 1067 558 1154 q 586 1011 642 1022 q 422 1099 497 1065 q 256 1011 293 1036 z "},"Ż":{"ha":844,"x_min":60,"x_max":781,"o":"m 667 265 q 781 233 733 261 q 759 117 768 185 q 749 -4 750 49 q 388 0 626 0 q 81 -4 188 0 q 60 68 60 28 q 108 151 93 124 q 339 545 254 397 q 511 858 424 693 l 379 858 q 293 843 325 858 q 240 788 261 828 q 201 668 218 747 q 86 685 118 668 q 109 808 101 738 q 117 942 117 878 q 449 939 181 939 q 738 942 646 939 q 760 869 758 910 q 314 82 549 468 l 443 82 q 559 97 518 82 q 624 149 600 111 q 667 265 649 188 z "},"Ẓ":{"ha":844,"x_min":60,"x_max":781,"o":"m 667 265 q 781 233 733 261 q 759 117 768 185 q 749 -4 750 49 q 388 0 626 0 q 81 -4 188 0 q 60 68 60 28 q 108 151 93 124 q 339 545 254 397 q 511 858 424 693 l 379 858 q 293 843 325 858 q 240 788 261 828 q 201 668 218 747 q 86 685 118 668 q 109 808 101 738 q 117 942 117 878 q 449 939 181 939 q 738 942 646 939 q 760 869 758 910 q 314 82 549 468 l 443 82 q 559 97 518 82 q 624 149 600 111 q 667 265 649 188 m 417 -311 q 335 -283 367 -311 q 304 -214 304 -256 q 338 -137 304 -165 q 422 -108 371 -108 q 509 -136 478 -108 q 540 -212 540 -164 q 506 -283 540 -256 q 417 -311 472 -311 z "},"a":{"ha":758,"x_min":51,"x_max":722,"o":"m 722 100 q 708 33 722 61 q 506 -12 596 29 q 473 16 483 -3 q 463 68 463 35 q 468 121 463 94 q 408 40 447 71 q 247 -10 350 -10 q 103 31 154 -10 q 51 146 51 71 q 110 277 51 228 q 251 349 169 326 q 440 388 333 372 q 434 481 440 450 q 410 533 428 513 q 332 568 381 568 q 253 524 279 568 q 222 413 228 479 q 108 426 144 413 q 111 479 111 460 q 100 593 111 533 q 233 635 158 619 q 376 650 308 650 q 578 588 513 650 q 624 502 608 556 q 639 356 639 449 l 639 235 q 644 165 639 188 q 667 132 650 142 q 721 121 685 122 l 722 100 m 440 314 q 298 269 346 297 q 250 183 250 242 q 269 125 250 144 q 317 106 288 106 q 376 125 347 106 q 422 183 404 144 q 440 276 440 221 l 440 314 z "}}}
